<?xml version="1.0" encoding="utf-8" standalone="no"?>
<!DOCTYPE svg PUBLIC "-//W3C//DTD SVG 1.1//EN"
  "http://www.w3.org/Graphics/SVG/1.1/DTD/svg11.dtd">
<svg xmlns:xlink="http://www.w3.org/1999/xlink" width="576pt" height="432pt" viewBox="0 0 576 432" xmlns="http://www.w3.org/2000/svg" version="1.1">
 <metadata>
  <rdf:RDF xmlns:dc="http://purl.org/dc/elements/1.1/" xmlns:cc="http://creativecommons.org/ns#" xmlns:rdf="http://www.w3.org/1999/02/22-rdf-syntax-ns#">
   <cc:Work>
    <dc:type rdf:resource="http://purl.org/dc/dcmitype/StillImage"/>
    <dc:date>2025-06-16T12:42:11.527105</dc:date>
    <dc:format>image/svg+xml</dc:format>
    <dc:creator>
     <cc:Agent>
      <dc:title>Matplotlib v3.9.2, https://matplotlib.org/</dc:title>
     </cc:Agent>
    </dc:creator>
   </cc:Work>
  </rdf:RDF>
 </metadata>
 <defs>
  <style type="text/css">*{stroke-linejoin: round; stroke-linecap: butt}</style>
 </defs>
 <g id="figure_1">
  <g id="patch_1">
   <path d="M 0 432 
L 576 432 
L 576 0 
L 0 0 
z
" style="fill: #ffffff"/>
  </g>
  <g id="axes_1">
   <g id="patch_2">
    <path d="M 67.7 153.36 
L 565.2 153.36 
L 565.2 49.68 
L 67.7 49.68 
z
" style="fill: #ffffff"/>
   </g>
   <g id="matplotlib.axis_1">
    <g id="xtick_1">
     <g id="line2d_1">
      <path d="M 90.313636 153.36 
L 90.313636 49.68 
" clip-path="url(#p0007da2e3a)" style="fill: none; stroke: #b0b0b0; stroke-width: 0.8; stroke-linecap: square"/>
     </g>
     <g id="line2d_2">
      <defs>
       <path id="macce28d189" d="M 0 0 
L 0 3.5 
" style="stroke: #000000; stroke-width: 0.8"/>
      </defs>
      <g>
       <use xlink:href="#macce28d189" x="90.313636" y="153.36" style="stroke: #000000; stroke-width: 0.8"/>
      </g>
     </g>
    </g>
    <g id="xtick_2">
     <g id="line2d_3">
      <path d="M 180.769991 153.36 
L 180.769991 49.68 
" clip-path="url(#p0007da2e3a)" style="fill: none; stroke: #b0b0b0; stroke-width: 0.8; stroke-linecap: square"/>
     </g>
     <g id="line2d_4">
      <g>
       <use xlink:href="#macce28d189" x="180.769991" y="153.36" style="stroke: #000000; stroke-width: 0.8"/>
      </g>
     </g>
    </g>
    <g id="xtick_3">
     <g id="line2d_5">
      <path d="M 271.226346 153.36 
L 271.226346 49.68 
" clip-path="url(#p0007da2e3a)" style="fill: none; stroke: #b0b0b0; stroke-width: 0.8; stroke-linecap: square"/>
     </g>
     <g id="line2d_6">
      <g>
       <use xlink:href="#macce28d189" x="271.226346" y="153.36" style="stroke: #000000; stroke-width: 0.8"/>
      </g>
     </g>
    </g>
    <g id="xtick_4">
     <g id="line2d_7">
      <path d="M 361.6827 153.36 
L 361.6827 49.68 
" clip-path="url(#p0007da2e3a)" style="fill: none; stroke: #b0b0b0; stroke-width: 0.8; stroke-linecap: square"/>
     </g>
     <g id="line2d_8">
      <g>
       <use xlink:href="#macce28d189" x="361.6827" y="153.36" style="stroke: #000000; stroke-width: 0.8"/>
      </g>
     </g>
    </g>
    <g id="xtick_5">
     <g id="line2d_9">
      <path d="M 452.139055 153.36 
L 452.139055 49.68 
" clip-path="url(#p0007da2e3a)" style="fill: none; stroke: #b0b0b0; stroke-width: 0.8; stroke-linecap: square"/>
     </g>
     <g id="line2d_10">
      <g>
       <use xlink:href="#macce28d189" x="452.139055" y="153.36" style="stroke: #000000; stroke-width: 0.8"/>
      </g>
     </g>
    </g>
    <g id="xtick_6">
     <g id="line2d_11">
      <path d="M 542.595409 153.36 
L 542.595409 49.68 
" clip-path="url(#p0007da2e3a)" style="fill: none; stroke: #b0b0b0; stroke-width: 0.8; stroke-linecap: square"/>
     </g>
     <g id="line2d_12">
      <g>
       <use xlink:href="#macce28d189" x="542.595409" y="153.36" style="stroke: #000000; stroke-width: 0.8"/>
      </g>
     </g>
    </g>
   </g>
   <g id="matplotlib.axis_2">
    <g id="ytick_1">
     <g id="line2d_13">
      <path d="M 67.7 142.254522 
L 565.2 142.254522 
" clip-path="url(#p0007da2e3a)" style="fill: none; stroke: #b0b0b0; stroke-width: 0.8; stroke-linecap: square"/>
     </g>
     <g id="line2d_14">
      <defs>
       <path id="mf83e9b3401" d="M 0 0 
L -3.5 0 
" style="stroke: #000000; stroke-width: 0.8"/>
      </defs>
      <g>
       <use xlink:href="#mf83e9b3401" x="67.7" y="142.254522" style="stroke: #000000; stroke-width: 0.8"/>
      </g>
     </g>
     <g id="text_1">
      <!-- 0.000 -->
      <g transform="translate(32.071875 146.053741) scale(0.1 -0.1)">
       <defs>
        <path id="DejaVuSans-30" d="M 2034 4250 
Q 1547 4250 1301 3770 
Q 1056 3291 1056 2328 
Q 1056 1369 1301 889 
Q 1547 409 2034 409 
Q 2525 409 2770 889 
Q 3016 1369 3016 2328 
Q 3016 3291 2770 3770 
Q 2525 4250 2034 4250 
z
M 2034 4750 
Q 2819 4750 3233 4129 
Q 3647 3509 3647 2328 
Q 3647 1150 3233 529 
Q 2819 -91 2034 -91 
Q 1250 -91 836 529 
Q 422 1150 422 2328 
Q 422 3509 836 4129 
Q 1250 4750 2034 4750 
z
" transform="scale(0.015625)"/>
        <path id="DejaVuSans-2e" d="M 684 794 
L 1344 794 
L 1344 0 
L 684 0 
L 684 794 
z
" transform="scale(0.015625)"/>
       </defs>
       <use xlink:href="#DejaVuSans-30"/>
       <use xlink:href="#DejaVuSans-2e" x="63.623047"/>
       <use xlink:href="#DejaVuSans-30" x="95.410156"/>
       <use xlink:href="#DejaVuSans-30" x="159.033203"/>
       <use xlink:href="#DejaVuSans-30" x="222.65625"/>
      </g>
     </g>
    </g>
    <g id="ytick_2">
     <g id="line2d_15">
      <path d="M 67.7 120.235953 
L 565.2 120.235953 
" clip-path="url(#p0007da2e3a)" style="fill: none; stroke: #b0b0b0; stroke-width: 0.8; stroke-linecap: square"/>
     </g>
     <g id="line2d_16">
      <g>
       <use xlink:href="#mf83e9b3401" x="67.7" y="120.235953" style="stroke: #000000; stroke-width: 0.8"/>
      </g>
     </g>
     <g id="text_2">
      <!-- 0.001 -->
      <g transform="translate(32.071875 124.035171) scale(0.1 -0.1)">
       <defs>
        <path id="DejaVuSans-31" d="M 794 531 
L 1825 531 
L 1825 4091 
L 703 3866 
L 703 4441 
L 1819 4666 
L 2450 4666 
L 2450 531 
L 3481 531 
L 3481 0 
L 794 0 
L 794 531 
z
" transform="scale(0.015625)"/>
       </defs>
       <use xlink:href="#DejaVuSans-30"/>
       <use xlink:href="#DejaVuSans-2e" x="63.623047"/>
       <use xlink:href="#DejaVuSans-30" x="95.410156"/>
       <use xlink:href="#DejaVuSans-30" x="159.033203"/>
       <use xlink:href="#DejaVuSans-31" x="222.65625"/>
      </g>
     </g>
    </g>
    <g id="ytick_3">
     <g id="line2d_17">
      <path d="M 67.7 98.217383 
L 565.2 98.217383 
" clip-path="url(#p0007da2e3a)" style="fill: none; stroke: #b0b0b0; stroke-width: 0.8; stroke-linecap: square"/>
     </g>
     <g id="line2d_18">
      <g>
       <use xlink:href="#mf83e9b3401" x="67.7" y="98.217383" style="stroke: #000000; stroke-width: 0.8"/>
      </g>
     </g>
     <g id="text_3">
      <!-- 0.002 -->
      <g transform="translate(32.071875 102.016601) scale(0.1 -0.1)">
       <defs>
        <path id="DejaVuSans-32" d="M 1228 531 
L 3431 531 
L 3431 0 
L 469 0 
L 469 531 
Q 828 903 1448 1529 
Q 2069 2156 2228 2338 
Q 2531 2678 2651 2914 
Q 2772 3150 2772 3378 
Q 2772 3750 2511 3984 
Q 2250 4219 1831 4219 
Q 1534 4219 1204 4116 
Q 875 4013 500 3803 
L 500 4441 
Q 881 4594 1212 4672 
Q 1544 4750 1819 4750 
Q 2544 4750 2975 4387 
Q 3406 4025 3406 3419 
Q 3406 3131 3298 2873 
Q 3191 2616 2906 2266 
Q 2828 2175 2409 1742 
Q 1991 1309 1228 531 
z
" transform="scale(0.015625)"/>
       </defs>
       <use xlink:href="#DejaVuSans-30"/>
       <use xlink:href="#DejaVuSans-2e" x="63.623047"/>
       <use xlink:href="#DejaVuSans-30" x="95.410156"/>
       <use xlink:href="#DejaVuSans-30" x="159.033203"/>
       <use xlink:href="#DejaVuSans-32" x="222.65625"/>
      </g>
     </g>
    </g>
    <g id="ytick_4">
     <g id="line2d_19">
      <path d="M 67.7 76.198813 
L 565.2 76.198813 
" clip-path="url(#p0007da2e3a)" style="fill: none; stroke: #b0b0b0; stroke-width: 0.8; stroke-linecap: square"/>
     </g>
     <g id="line2d_20">
      <g>
       <use xlink:href="#mf83e9b3401" x="67.7" y="76.198813" style="stroke: #000000; stroke-width: 0.8"/>
      </g>
     </g>
     <g id="text_4">
      <!-- 0.003 -->
      <g transform="translate(32.071875 79.998032) scale(0.1 -0.1)">
       <defs>
        <path id="DejaVuSans-33" d="M 2597 2516 
Q 3050 2419 3304 2112 
Q 3559 1806 3559 1356 
Q 3559 666 3084 287 
Q 2609 -91 1734 -91 
Q 1441 -91 1130 -33 
Q 819 25 488 141 
L 488 750 
Q 750 597 1062 519 
Q 1375 441 1716 441 
Q 2309 441 2620 675 
Q 2931 909 2931 1356 
Q 2931 1769 2642 2001 
Q 2353 2234 1838 2234 
L 1294 2234 
L 1294 2753 
L 1863 2753 
Q 2328 2753 2575 2939 
Q 2822 3125 2822 3475 
Q 2822 3834 2567 4026 
Q 2313 4219 1838 4219 
Q 1578 4219 1281 4162 
Q 984 4106 628 3988 
L 628 4550 
Q 988 4650 1302 4700 
Q 1616 4750 1894 4750 
Q 2613 4750 3031 4423 
Q 3450 4097 3450 3541 
Q 3450 3153 3228 2886 
Q 3006 2619 2597 2516 
z
" transform="scale(0.015625)"/>
       </defs>
       <use xlink:href="#DejaVuSans-30"/>
       <use xlink:href="#DejaVuSans-2e" x="63.623047"/>
       <use xlink:href="#DejaVuSans-30" x="95.410156"/>
       <use xlink:href="#DejaVuSans-30" x="159.033203"/>
       <use xlink:href="#DejaVuSans-33" x="222.65625"/>
      </g>
     </g>
    </g>
    <g id="ytick_5">
     <g id="line2d_21">
      <path d="M 67.7 54.180243 
L 565.2 54.180243 
" clip-path="url(#p0007da2e3a)" style="fill: none; stroke: #b0b0b0; stroke-width: 0.8; stroke-linecap: square"/>
     </g>
     <g id="line2d_22">
      <g>
       <use xlink:href="#mf83e9b3401" x="67.7" y="54.180243" style="stroke: #000000; stroke-width: 0.8"/>
      </g>
     </g>
     <g id="text_5">
      <!-- 0.004 -->
      <g transform="translate(32.071875 57.979462) scale(0.1 -0.1)">
       <defs>
        <path id="DejaVuSans-34" d="M 2419 4116 
L 825 1625 
L 2419 1625 
L 2419 4116 
z
M 2253 4666 
L 3047 4666 
L 3047 1625 
L 3713 1625 
L 3713 1100 
L 3047 1100 
L 3047 0 
L 2419 0 
L 2419 1100 
L 313 1100 
L 313 1709 
L 2253 4666 
z
" transform="scale(0.015625)"/>
       </defs>
       <use xlink:href="#DejaVuSans-30"/>
       <use xlink:href="#DejaVuSans-2e" x="63.623047"/>
       <use xlink:href="#DejaVuSans-30" x="95.410156"/>
       <use xlink:href="#DejaVuSans-30" x="159.033203"/>
       <use xlink:href="#DejaVuSans-34" x="222.65625"/>
      </g>
     </g>
    </g>
    <g id="text_6">
     <!-- $v$ /V -->
     <g transform="translate(25.992188 111.22) rotate(-90) scale(0.1 -0.1)">
      <defs>
       <path id="DejaVuSans-Oblique-76" d="M 459 3500 
L 1069 3500 
L 1581 525 
L 3256 3500 
L 3866 3500 
L 1875 0 
L 1100 0 
L 459 3500 
z
" transform="scale(0.015625)"/>
       <path id="DejaVuSans-20" transform="scale(0.015625)"/>
       <path id="DejaVuSans-2f" d="M 1625 4666 
L 2156 4666 
L 531 -594 
L 0 -594 
L 1625 4666 
z
" transform="scale(0.015625)"/>
       <path id="DejaVuSans-56" d="M 1831 0 
L 50 4666 
L 709 4666 
L 2188 738 
L 3669 4666 
L 4325 4666 
L 2547 0 
L 1831 0 
z
" transform="scale(0.015625)"/>
      </defs>
      <use xlink:href="#DejaVuSans-Oblique-76" transform="translate(0 0.09375)"/>
      <use xlink:href="#DejaVuSans-20" transform="translate(59.179688 0.09375)"/>
      <use xlink:href="#DejaVuSans-2f" transform="translate(90.966797 0.09375)"/>
      <use xlink:href="#DejaVuSans-56" transform="translate(124.658203 0.09375)"/>
     </g>
    </g>
   </g>
   <g id="line2d_23">
    <path d="M 90.313636 142.254522 
L 180.616215 142.165974 
L 180.697626 141.704561 
L 181.032314 136.975261 
L 181.222273 132.141524 
L 181.584098 124.922306 
L 181.765011 122.821806 
L 182.208247 116.389012 
L 182.380114 116.028426 
L 182.461525 115.588868 
L 182.904761 109.89395 
L 183.248495 103.233268 
L 183.46559 103.090285 
L 183.565092 102.069525 
L 183.854553 99.069207 
L 183.945009 98.803327 
L 184.062602 97.244414 
L 184.288743 94.937578 
L 184.442519 94.976884 
L 184.741025 95.044087 
L 184.750071 95.025033 
L 184.831481 94.533432 
L 185.039531 90.965747 
L 185.401356 86.719901 
L 185.410402 86.720481 
L 185.555132 86.638681 
L 185.636543 85.919039 
L 185.781273 81.73327 
L 185.989323 78.213303 
L 186.106916 77.08171 
L 186.387331 74.190528 
L 186.586335 74.316606 
L 188.712059 75.825268 
L 188.73015 75.795411 
L 188.811561 75.32157 
L 189.137204 71.836861 
L 189.22766 71.884453 
L 189.878946 72.319358 
L 189.906083 72.268304 
L 189.987493 71.720006 
L 190.304091 68.34739 
L 190.36741 68.377996 
L 191.127244 68.904982 
L 191.15438 68.839556 
L 191.244837 68.091805 
L 191.543343 64.961002 
L 191.57048 64.970131 
L 192.113218 65.334453 
L 192.158446 65.195237 
L 192.257948 64.110002 
L 192.520271 61.406492 
L 192.683093 61.519941 
L 192.809732 61.564428 
L 192.836869 61.516599 
L 192.918279 60.977973 
L 193.234877 57.642886 
L 193.298196 57.680982 
L 194.039938 58.30003 
L 194.076121 58.226814 
L 194.166577 57.48967 
L 194.456037 54.392727 
L 194.49222 54.406093 
L 194.98973 54.87848 
L 200.426157 59.974846 
L 205.943994 64.843654 
L 210.340173 68.462114 
L 210.412538 68.251475 
L 210.521086 66.897374 
L 210.756272 64.502058 
L 210.891957 64.577672 
L 217.640001 70.161094 
L 220.471285 72.313372 
L 220.480331 72.300997 
L 220.552696 71.980915 
L 220.697426 69.755093 
L 220.887384 68.318232 
L 220.977841 68.119347 
L 221.077343 67.029781 
L 221.339666 64.317817 
L 221.502487 64.426762 
L 227.110781 69.105316 
L 232.827623 73.585071 
L 238.653012 77.867786 
L 244.60504 81.967857 
L 250.692753 85.891444 
L 256.925196 89.643915 
L 263.32046 93.23487 
L 269.896637 96.671974 
L 276.662772 99.956993 
L 283.636957 103.095435 
L 290.846329 106.095138 
L 298.308978 108.95841 
L 306.042996 111.686791 
L 314.084566 114.286848 
L 322.460825 116.760246 
L 331.207954 119.109984 
L 340.362137 121.337488 
L 349.977648 123.446769 
L 360.099714 125.437783 
L 370.791655 127.312453 
L 382.125836 129.072065 
L 394.192714 130.71828 
L 407.100836 132.252365 
L 420.967795 133.673883 
L 435.965458 134.98481 
L 452.283785 136.184722 
L 470.185097 137.274494 
L 490.004085 138.254313 
L 512.21112 139.125067 
L 537.448443 139.886932 
L 542.586364 140.017657 
L 542.586364 140.017657 
" clip-path="url(#p0007da2e3a)" style="fill: none; stroke: #1f77b4; stroke-opacity: 0.6; stroke-width: 1.5; stroke-linecap: square"/>
   </g>
   <g id="line2d_24">
    <path d="M 90.313636 142.254522 
L 180.598124 142.148219 
L 180.679535 141.484277 
L 180.806173 137.753991 
L 181.638372 110.402118 
L 181.737874 108.684762 
L 182.190156 98.969441 
L 182.226338 98.842104 
L 182.280612 99.059069 
L 182.416297 99.883539 
L 182.461525 99.668516 
L 182.570072 97.304241 
L 182.723848 95.042692 
L 182.750985 95.081221 
L 182.787168 95.110968 
L 182.814305 95.005493 
L 182.88667 93.534104 
L 183.148993 83.01896 
L 183.248495 83.799446 
L 183.483682 86.279255 
L 183.52891 86.020782 
L 183.746005 82.368227 
L 183.854553 83.226845 
L 183.945009 83.867009 
L 183.990237 83.63576 
L 184.198287 80.113558 
L 184.306834 80.978564 
L 184.795299 87.046029 
L 184.840527 86.786581 
L 184.976211 83.728178 
L 185.283763 77.879785 
L 185.319946 78.011968 
L 185.482767 80.099799 
L 185.582269 80.997513 
L 185.627497 80.707169 
L 185.717954 77.687304 
L 185.926003 70.228269 
L 185.971231 70.378424 
L 186.034551 70.657162 
L 186.079779 70.446954 
L 186.269737 67.66623 
L 186.360194 68.464983 
L 188.431644 97.959514 
L 188.757287 101.064142 
L 188.802515 100.877875 
L 188.911063 98.580072 
L 189.046747 96.44799 
L 189.091976 96.620193 
L 189.336208 99.217369 
L 189.924174 104.881369 
L 189.951311 104.804281 
L 190.032722 103.520927 
L 190.213634 100.050464 
L 190.267908 100.250375 
L 190.57546 103.363751 
L 191.163426 108.564308 
L 191.181517 108.516826 
L 191.253882 107.558388 
L 191.461932 103.521529 
L 191.525252 103.817458 
L 192.140355 109.258475 
L 192.221765 108.60788 
L 192.447906 104.19279 
L 192.529317 104.632152 
L 192.85496 107.328731 
L 192.909234 106.989241 
L 193.053964 103.484896 
L 193.153466 102.411601 
L 193.198694 102.59724 
L 193.4972 105.536559 
L 194.076121 110.604854 
L 194.103258 110.550756 
L 194.175623 109.576882 
L 194.383672 105.49692 
L 194.446992 105.780098 
L 195.062095 111.454311 
L 196.102343 119.558607 
L 197.142591 125.978852 
L 198.182839 131.060988 
L 199.223087 135.079937 
L 200.272381 138.278619 
L 201.33072 140.814988 
L 202.407151 142.832699 
L 203.510718 144.437866 
L 204.650469 145.710111 
L 205.853538 146.723422 
L 207.15611 147.528839 
L 208.594366 148.15476 
L 210.231626 148.621482 
L 210.340173 148.541296 
L 210.412538 148.023115 
L 210.530132 144.873162 
L 210.756272 140.438683 
L 210.837683 140.533211 
L 212.348304 143.203728 
L 213.460917 144.651651 
L 214.627804 145.810887 
L 215.867057 146.73127 
L 217.223902 147.460845 
L 218.752614 148.025845 
L 220.39892 148.402819 
L 220.480331 148.255554 
L 220.561741 147.357553 
L 221.312529 132.719205 
L 221.366803 132.814136 
L 223.88149 140.094275 
L 224.95792 142.145609 
L 226.061488 143.77933 
L 227.201238 145.076123 
L 228.404307 146.111094 
L 229.697833 146.931316 
L 231.136089 147.576994 
L 232.782395 148.066789 
L 234.745298 148.411018 
L 237.214756 148.607337 
L 240.570687 148.635758 
L 245.880475 148.432984 
L 262.271166 147.472581 
L 282.252975 146.440055 
L 303.953455 145.547367 
L 328.521401 144.764228 
L 356.852331 144.089406 
L 390.275954 143.522597 
L 430.981313 143.063101 
L 482.939443 142.709799 
L 542.586364 142.489982 
L 542.586364 142.489982 
" clip-path="url(#p0007da2e3a)" style="fill: none; stroke: #ff7f0e; stroke-opacity: 0.6; stroke-width: 1.5; stroke-linecap: square"/>
   </g>
   <g id="line2d_25">
    <path d="M 90.313636 142.254522 
L 542.586364 142.254522 
L 542.586364 142.254522 
" clip-path="url(#p0007da2e3a)" style="fill: none; stroke: #2ca02c; stroke-opacity: 0.6; stroke-width: 1.5; stroke-linecap: square"/>
   </g>
   <g id="patch_3">
    <path d="M 67.7 153.36 
L 67.7 49.68 
" style="fill: none; stroke: #000000; stroke-width: 0.8; stroke-linejoin: miter; stroke-linecap: square"/>
   </g>
   <g id="patch_4">
    <path d="M 565.2 153.36 
L 565.2 49.68 
" style="fill: none; stroke: #000000; stroke-width: 0.8; stroke-linejoin: miter; stroke-linecap: square"/>
   </g>
   <g id="patch_5">
    <path d="M 67.7 153.36 
L 565.2 153.36 
" style="fill: none; stroke: #000000; stroke-width: 0.8; stroke-linejoin: miter; stroke-linecap: square"/>
   </g>
   <g id="patch_6">
    <path d="M 67.7 49.68 
L 565.2 49.68 
" style="fill: none; stroke: #000000; stroke-width: 0.8; stroke-linejoin: miter; stroke-linecap: square"/>
   </g>
   <g id="legend_1">
    <g id="patch_7">
     <path d="M 425.342187 101.714375 
L 558.2 101.714375 
Q 560.2 101.714375 560.2 99.714375 
L 560.2 56.68 
Q 560.2 54.68 558.2 54.68 
L 425.342187 54.68 
Q 423.342187 54.68 423.342187 56.68 
L 423.342187 99.714375 
Q 423.342187 101.714375 425.342187 101.714375 
z
" style="fill: #ffffff; opacity: 0.8; stroke: #cccccc; stroke-linejoin: miter"/>
    </g>
    <g id="line2d_26">
     <path d="M 427.342187 62.778438 
L 437.342187 62.778438 
L 447.342187 62.778438 
" style="fill: none; stroke: #1f77b4; stroke-opacity: 0.6; stroke-width: 1.5; stroke-linecap: square"/>
    </g>
    <g id="text_7">
     <!-- preamp. - channel 0 -->
     <g transform="translate(455.342187 66.278438) scale(0.1 -0.1)">
      <defs>
       <path id="DejaVuSans-70" d="M 1159 525 
L 1159 -1331 
L 581 -1331 
L 581 3500 
L 1159 3500 
L 1159 2969 
Q 1341 3281 1617 3432 
Q 1894 3584 2278 3584 
Q 2916 3584 3314 3078 
Q 3713 2572 3713 1747 
Q 3713 922 3314 415 
Q 2916 -91 2278 -91 
Q 1894 -91 1617 61 
Q 1341 213 1159 525 
z
M 3116 1747 
Q 3116 2381 2855 2742 
Q 2594 3103 2138 3103 
Q 1681 3103 1420 2742 
Q 1159 2381 1159 1747 
Q 1159 1113 1420 752 
Q 1681 391 2138 391 
Q 2594 391 2855 752 
Q 3116 1113 3116 1747 
z
" transform="scale(0.015625)"/>
       <path id="DejaVuSans-72" d="M 2631 2963 
Q 2534 3019 2420 3045 
Q 2306 3072 2169 3072 
Q 1681 3072 1420 2755 
Q 1159 2438 1159 1844 
L 1159 0 
L 581 0 
L 581 3500 
L 1159 3500 
L 1159 2956 
Q 1341 3275 1631 3429 
Q 1922 3584 2338 3584 
Q 2397 3584 2469 3576 
Q 2541 3569 2628 3553 
L 2631 2963 
z
" transform="scale(0.015625)"/>
       <path id="DejaVuSans-65" d="M 3597 1894 
L 3597 1613 
L 953 1613 
Q 991 1019 1311 708 
Q 1631 397 2203 397 
Q 2534 397 2845 478 
Q 3156 559 3463 722 
L 3463 178 
Q 3153 47 2828 -22 
Q 2503 -91 2169 -91 
Q 1331 -91 842 396 
Q 353 884 353 1716 
Q 353 2575 817 3079 
Q 1281 3584 2069 3584 
Q 2775 3584 3186 3129 
Q 3597 2675 3597 1894 
z
M 3022 2063 
Q 3016 2534 2758 2815 
Q 2500 3097 2075 3097 
Q 1594 3097 1305 2825 
Q 1016 2553 972 2059 
L 3022 2063 
z
" transform="scale(0.015625)"/>
       <path id="DejaVuSans-61" d="M 2194 1759 
Q 1497 1759 1228 1600 
Q 959 1441 959 1056 
Q 959 750 1161 570 
Q 1363 391 1709 391 
Q 2188 391 2477 730 
Q 2766 1069 2766 1631 
L 2766 1759 
L 2194 1759 
z
M 3341 1997 
L 3341 0 
L 2766 0 
L 2766 531 
Q 2569 213 2275 61 
Q 1981 -91 1556 -91 
Q 1019 -91 701 211 
Q 384 513 384 1019 
Q 384 1609 779 1909 
Q 1175 2209 1959 2209 
L 2766 2209 
L 2766 2266 
Q 2766 2663 2505 2880 
Q 2244 3097 1772 3097 
Q 1472 3097 1187 3025 
Q 903 2953 641 2809 
L 641 3341 
Q 956 3463 1253 3523 
Q 1550 3584 1831 3584 
Q 2591 3584 2966 3190 
Q 3341 2797 3341 1997 
z
" transform="scale(0.015625)"/>
       <path id="DejaVuSans-6d" d="M 3328 2828 
Q 3544 3216 3844 3400 
Q 4144 3584 4550 3584 
Q 5097 3584 5394 3201 
Q 5691 2819 5691 2113 
L 5691 0 
L 5113 0 
L 5113 2094 
Q 5113 2597 4934 2840 
Q 4756 3084 4391 3084 
Q 3944 3084 3684 2787 
Q 3425 2491 3425 1978 
L 3425 0 
L 2847 0 
L 2847 2094 
Q 2847 2600 2669 2842 
Q 2491 3084 2119 3084 
Q 1678 3084 1418 2786 
Q 1159 2488 1159 1978 
L 1159 0 
L 581 0 
L 581 3500 
L 1159 3500 
L 1159 2956 
Q 1356 3278 1631 3431 
Q 1906 3584 2284 3584 
Q 2666 3584 2933 3390 
Q 3200 3197 3328 2828 
z
" transform="scale(0.015625)"/>
       <path id="DejaVuSans-2d" d="M 313 2009 
L 1997 2009 
L 1997 1497 
L 313 1497 
L 313 2009 
z
" transform="scale(0.015625)"/>
       <path id="DejaVuSans-63" d="M 3122 3366 
L 3122 2828 
Q 2878 2963 2633 3030 
Q 2388 3097 2138 3097 
Q 1578 3097 1268 2742 
Q 959 2388 959 1747 
Q 959 1106 1268 751 
Q 1578 397 2138 397 
Q 2388 397 2633 464 
Q 2878 531 3122 666 
L 3122 134 
Q 2881 22 2623 -34 
Q 2366 -91 2075 -91 
Q 1284 -91 818 406 
Q 353 903 353 1747 
Q 353 2603 823 3093 
Q 1294 3584 2113 3584 
Q 2378 3584 2631 3529 
Q 2884 3475 3122 3366 
z
" transform="scale(0.015625)"/>
       <path id="DejaVuSans-68" d="M 3513 2113 
L 3513 0 
L 2938 0 
L 2938 2094 
Q 2938 2591 2744 2837 
Q 2550 3084 2163 3084 
Q 1697 3084 1428 2787 
Q 1159 2491 1159 1978 
L 1159 0 
L 581 0 
L 581 4863 
L 1159 4863 
L 1159 2956 
Q 1366 3272 1645 3428 
Q 1925 3584 2291 3584 
Q 2894 3584 3203 3211 
Q 3513 2838 3513 2113 
z
" transform="scale(0.015625)"/>
       <path id="DejaVuSans-6e" d="M 3513 2113 
L 3513 0 
L 2938 0 
L 2938 2094 
Q 2938 2591 2744 2837 
Q 2550 3084 2163 3084 
Q 1697 3084 1428 2787 
Q 1159 2491 1159 1978 
L 1159 0 
L 581 0 
L 581 3500 
L 1159 3500 
L 1159 2956 
Q 1366 3272 1645 3428 
Q 1925 3584 2291 3584 
Q 2894 3584 3203 3211 
Q 3513 2838 3513 2113 
z
" transform="scale(0.015625)"/>
       <path id="DejaVuSans-6c" d="M 603 4863 
L 1178 4863 
L 1178 0 
L 603 0 
L 603 4863 
z
" transform="scale(0.015625)"/>
      </defs>
      <use xlink:href="#DejaVuSans-70"/>
      <use xlink:href="#DejaVuSans-72" x="63.476562"/>
      <use xlink:href="#DejaVuSans-65" x="102.339844"/>
      <use xlink:href="#DejaVuSans-61" x="163.863281"/>
      <use xlink:href="#DejaVuSans-6d" x="225.142578"/>
      <use xlink:href="#DejaVuSans-70" x="322.554688"/>
      <use xlink:href="#DejaVuSans-2e" x="386.03125"/>
      <use xlink:href="#DejaVuSans-20" x="417.818359"/>
      <use xlink:href="#DejaVuSans-2d" x="449.605469"/>
      <use xlink:href="#DejaVuSans-20" x="485.689453"/>
      <use xlink:href="#DejaVuSans-63" x="517.476562"/>
      <use xlink:href="#DejaVuSans-68" x="572.457031"/>
      <use xlink:href="#DejaVuSans-61" x="635.835938"/>
      <use xlink:href="#DejaVuSans-6e" x="697.115234"/>
      <use xlink:href="#DejaVuSans-6e" x="760.494141"/>
      <use xlink:href="#DejaVuSans-65" x="823.873047"/>
      <use xlink:href="#DejaVuSans-6c" x="885.396484"/>
      <use xlink:href="#DejaVuSans-20" x="913.179688"/>
      <use xlink:href="#DejaVuSans-30" x="944.966797"/>
     </g>
    </g>
    <g id="line2d_27">
     <path d="M 427.342187 77.456563 
L 437.342187 77.456563 
L 447.342187 77.456563 
" style="fill: none; stroke: #ff7f0e; stroke-opacity: 0.6; stroke-width: 1.5; stroke-linecap: square"/>
    </g>
    <g id="text_8">
     <!-- amp. - channel 0 -->
     <g transform="translate(455.342187 80.956563) scale(0.1 -0.1)">
      <use xlink:href="#DejaVuSans-61"/>
      <use xlink:href="#DejaVuSans-6d" x="61.279297"/>
      <use xlink:href="#DejaVuSans-70" x="158.691406"/>
      <use xlink:href="#DejaVuSans-2e" x="222.167969"/>
      <use xlink:href="#DejaVuSans-20" x="253.955078"/>
      <use xlink:href="#DejaVuSans-2d" x="285.742188"/>
      <use xlink:href="#DejaVuSans-20" x="321.826172"/>
      <use xlink:href="#DejaVuSans-63" x="353.613281"/>
      <use xlink:href="#DejaVuSans-68" x="408.59375"/>
      <use xlink:href="#DejaVuSans-61" x="471.972656"/>
      <use xlink:href="#DejaVuSans-6e" x="533.251953"/>
      <use xlink:href="#DejaVuSans-6e" x="596.630859"/>
      <use xlink:href="#DejaVuSans-65" x="660.009766"/>
      <use xlink:href="#DejaVuSans-6c" x="721.533203"/>
      <use xlink:href="#DejaVuSans-20" x="749.316406"/>
      <use xlink:href="#DejaVuSans-30" x="781.103516"/>
     </g>
    </g>
    <g id="line2d_28">
     <path d="M 427.342187 92.134688 
L 437.342187 92.134688 
L 447.342187 92.134688 
" style="fill: none; stroke: #2ca02c; stroke-opacity: 0.6; stroke-width: 1.5; stroke-linecap: square"/>
    </g>
    <g id="text_9">
     <!-- dig. - channel 0 -->
     <g transform="translate(455.342187 95.634688) scale(0.1 -0.1)">
      <defs>
       <path id="DejaVuSans-64" d="M 2906 2969 
L 2906 4863 
L 3481 4863 
L 3481 0 
L 2906 0 
L 2906 525 
Q 2725 213 2448 61 
Q 2172 -91 1784 -91 
Q 1150 -91 751 415 
Q 353 922 353 1747 
Q 353 2572 751 3078 
Q 1150 3584 1784 3584 
Q 2172 3584 2448 3432 
Q 2725 3281 2906 2969 
z
M 947 1747 
Q 947 1113 1208 752 
Q 1469 391 1925 391 
Q 2381 391 2643 752 
Q 2906 1113 2906 1747 
Q 2906 2381 2643 2742 
Q 2381 3103 1925 3103 
Q 1469 3103 1208 2742 
Q 947 2381 947 1747 
z
" transform="scale(0.015625)"/>
       <path id="DejaVuSans-69" d="M 603 3500 
L 1178 3500 
L 1178 0 
L 603 0 
L 603 3500 
z
M 603 4863 
L 1178 4863 
L 1178 4134 
L 603 4134 
L 603 4863 
z
" transform="scale(0.015625)"/>
       <path id="DejaVuSans-67" d="M 2906 1791 
Q 2906 2416 2648 2759 
Q 2391 3103 1925 3103 
Q 1463 3103 1205 2759 
Q 947 2416 947 1791 
Q 947 1169 1205 825 
Q 1463 481 1925 481 
Q 2391 481 2648 825 
Q 2906 1169 2906 1791 
z
M 3481 434 
Q 3481 -459 3084 -895 
Q 2688 -1331 1869 -1331 
Q 1566 -1331 1297 -1286 
Q 1028 -1241 775 -1147 
L 775 -588 
Q 1028 -725 1275 -790 
Q 1522 -856 1778 -856 
Q 2344 -856 2625 -561 
Q 2906 -266 2906 331 
L 2906 616 
Q 2728 306 2450 153 
Q 2172 0 1784 0 
Q 1141 0 747 490 
Q 353 981 353 1791 
Q 353 2603 747 3093 
Q 1141 3584 1784 3584 
Q 2172 3584 2450 3431 
Q 2728 3278 2906 2969 
L 2906 3500 
L 3481 3500 
L 3481 434 
z
" transform="scale(0.015625)"/>
      </defs>
      <use xlink:href="#DejaVuSans-64"/>
      <use xlink:href="#DejaVuSans-69" x="63.476562"/>
      <use xlink:href="#DejaVuSans-67" x="91.259766"/>
      <use xlink:href="#DejaVuSans-2e" x="154.736328"/>
      <use xlink:href="#DejaVuSans-20" x="186.523438"/>
      <use xlink:href="#DejaVuSans-2d" x="218.310547"/>
      <use xlink:href="#DejaVuSans-20" x="254.394531"/>
      <use xlink:href="#DejaVuSans-63" x="286.181641"/>
      <use xlink:href="#DejaVuSans-68" x="341.162109"/>
      <use xlink:href="#DejaVuSans-61" x="404.541016"/>
      <use xlink:href="#DejaVuSans-6e" x="465.820312"/>
      <use xlink:href="#DejaVuSans-6e" x="529.199219"/>
      <use xlink:href="#DejaVuSans-65" x="592.578125"/>
      <use xlink:href="#DejaVuSans-6c" x="654.101562"/>
      <use xlink:href="#DejaVuSans-20" x="681.884766"/>
      <use xlink:href="#DejaVuSans-30" x="713.671875"/>
     </g>
    </g>
   </g>
  </g>
  <g id="axes_2">
   <g id="patch_8">
    <path d="M 67.7 271.34 
L 565.2 271.34 
L 565.2 167.66 
L 67.7 167.66 
z
" style="fill: #ffffff"/>
   </g>
   <g id="matplotlib.axis_3">
    <g id="xtick_7">
     <g id="line2d_29">
      <path d="M 90.313636 271.34 
L 90.313636 167.66 
" clip-path="url(#p13293effa5)" style="fill: none; stroke: #b0b0b0; stroke-width: 0.8; stroke-linecap: square"/>
     </g>
     <g id="line2d_30">
      <g>
       <use xlink:href="#macce28d189" x="90.313636" y="271.34" style="stroke: #000000; stroke-width: 0.8"/>
      </g>
     </g>
    </g>
    <g id="xtick_8">
     <g id="line2d_31">
      <path d="M 180.769991 271.34 
L 180.769991 167.66 
" clip-path="url(#p13293effa5)" style="fill: none; stroke: #b0b0b0; stroke-width: 0.8; stroke-linecap: square"/>
     </g>
     <g id="line2d_32">
      <g>
       <use xlink:href="#macce28d189" x="180.769991" y="271.34" style="stroke: #000000; stroke-width: 0.8"/>
      </g>
     </g>
    </g>
    <g id="xtick_9">
     <g id="line2d_33">
      <path d="M 271.226346 271.34 
L 271.226346 167.66 
" clip-path="url(#p13293effa5)" style="fill: none; stroke: #b0b0b0; stroke-width: 0.8; stroke-linecap: square"/>
     </g>
     <g id="line2d_34">
      <g>
       <use xlink:href="#macce28d189" x="271.226346" y="271.34" style="stroke: #000000; stroke-width: 0.8"/>
      </g>
     </g>
    </g>
    <g id="xtick_10">
     <g id="line2d_35">
      <path d="M 361.6827 271.34 
L 361.6827 167.66 
" clip-path="url(#p13293effa5)" style="fill: none; stroke: #b0b0b0; stroke-width: 0.8; stroke-linecap: square"/>
     </g>
     <g id="line2d_36">
      <g>
       <use xlink:href="#macce28d189" x="361.6827" y="271.34" style="stroke: #000000; stroke-width: 0.8"/>
      </g>
     </g>
    </g>
    <g id="xtick_11">
     <g id="line2d_37">
      <path d="M 452.139055 271.34 
L 452.139055 167.66 
" clip-path="url(#p13293effa5)" style="fill: none; stroke: #b0b0b0; stroke-width: 0.8; stroke-linecap: square"/>
     </g>
     <g id="line2d_38">
      <g>
       <use xlink:href="#macce28d189" x="452.139055" y="271.34" style="stroke: #000000; stroke-width: 0.8"/>
      </g>
     </g>
    </g>
    <g id="xtick_12">
     <g id="line2d_39">
      <path d="M 542.595409 271.34 
L 542.595409 167.66 
" clip-path="url(#p13293effa5)" style="fill: none; stroke: #b0b0b0; stroke-width: 0.8; stroke-linecap: square"/>
     </g>
     <g id="line2d_40">
      <g>
       <use xlink:href="#macce28d189" x="542.595409" y="271.34" style="stroke: #000000; stroke-width: 0.8"/>
      </g>
     </g>
    </g>
   </g>
   <g id="matplotlib.axis_4">
    <g id="ytick_6">
     <g id="line2d_41">
      <path d="M 67.7 259.388504 
L 565.2 259.388504 
" clip-path="url(#p13293effa5)" style="fill: none; stroke: #b0b0b0; stroke-width: 0.8; stroke-linecap: square"/>
     </g>
     <g id="line2d_42">
      <g>
       <use xlink:href="#mf83e9b3401" x="67.7" y="259.388504" style="stroke: #000000; stroke-width: 0.8"/>
      </g>
     </g>
     <g id="text_10">
      <!-- 0.000 -->
      <g transform="translate(32.071875 263.187723) scale(0.1 -0.1)">
       <use xlink:href="#DejaVuSans-30"/>
       <use xlink:href="#DejaVuSans-2e" x="63.623047"/>
       <use xlink:href="#DejaVuSans-30" x="95.410156"/>
       <use xlink:href="#DejaVuSans-30" x="159.033203"/>
       <use xlink:href="#DejaVuSans-30" x="222.65625"/>
      </g>
     </g>
    </g>
    <g id="ytick_7">
     <g id="line2d_43">
      <path d="M 67.7 219.166768 
L 565.2 219.166768 
" clip-path="url(#p13293effa5)" style="fill: none; stroke: #b0b0b0; stroke-width: 0.8; stroke-linecap: square"/>
     </g>
     <g id="line2d_44">
      <g>
       <use xlink:href="#mf83e9b3401" x="67.7" y="219.166768" style="stroke: #000000; stroke-width: 0.8"/>
      </g>
     </g>
     <g id="text_11">
      <!-- 0.002 -->
      <g transform="translate(32.071875 222.965987) scale(0.1 -0.1)">
       <use xlink:href="#DejaVuSans-30"/>
       <use xlink:href="#DejaVuSans-2e" x="63.623047"/>
       <use xlink:href="#DejaVuSans-30" x="95.410156"/>
       <use xlink:href="#DejaVuSans-30" x="159.033203"/>
       <use xlink:href="#DejaVuSans-32" x="222.65625"/>
      </g>
     </g>
    </g>
    <g id="ytick_8">
     <g id="line2d_45">
      <path d="M 67.7 178.945032 
L 565.2 178.945032 
" clip-path="url(#p13293effa5)" style="fill: none; stroke: #b0b0b0; stroke-width: 0.8; stroke-linecap: square"/>
     </g>
     <g id="line2d_46">
      <g>
       <use xlink:href="#mf83e9b3401" x="67.7" y="178.945032" style="stroke: #000000; stroke-width: 0.8"/>
      </g>
     </g>
     <g id="text_12">
      <!-- 0.004 -->
      <g transform="translate(32.071875 182.744251) scale(0.1 -0.1)">
       <use xlink:href="#DejaVuSans-30"/>
       <use xlink:href="#DejaVuSans-2e" x="63.623047"/>
       <use xlink:href="#DejaVuSans-30" x="95.410156"/>
       <use xlink:href="#DejaVuSans-30" x="159.033203"/>
       <use xlink:href="#DejaVuSans-34" x="222.65625"/>
      </g>
     </g>
    </g>
    <g id="text_13">
     <!-- $v$ /V -->
     <g transform="translate(25.992188 229.2) rotate(-90) scale(0.1 -0.1)">
      <use xlink:href="#DejaVuSans-Oblique-76" transform="translate(0 0.09375)"/>
      <use xlink:href="#DejaVuSans-20" transform="translate(59.179688 0.09375)"/>
      <use xlink:href="#DejaVuSans-2f" transform="translate(90.966797 0.09375)"/>
      <use xlink:href="#DejaVuSans-56" transform="translate(124.658203 0.09375)"/>
     </g>
    </g>
   </g>
   <g id="line2d_47">
    <path d="M 90.313636 259.388504 
L 180.715717 259.2916 
L 180.797128 258.725487 
L 180.923767 255.511249 
L 181.240364 248.268299 
L 181.421277 247.367699 
L 181.511733 247.146492 
L 181.620281 245.938065 
L 182.769076 228.165862 
L 183.501773 220.338649 
L 183.935963 208.105812 
L 184.044511 208.034233 
L 184.071648 208.046671 
L 184.930983 208.428 
L 184.949075 208.380049 
L 185.039531 207.681047 
L 185.347082 204.768688 
L 185.365174 204.772236 
L 185.835547 205.046874 
L 186.45065 205.334249 
L 186.459696 205.317939 
L 186.541106 204.879187 
L 186.875795 201.672899 
L 186.957206 201.709462 
L 187.870815 202.207521 
L 187.888906 202.170853 
L 187.970317 201.664028 
L 188.29596 198.560832 
L 188.350233 198.583496 
L 188.513055 198.61317 
L 188.531146 198.572968 
L 188.603511 198.031874 
L 188.73015 194.657674 
L 188.956291 190.584189 
L 189.300025 187.233128 
L 189.426664 187.312651 
L 190.684007 188.226596 
L 190.702099 188.192723 
L 190.783509 187.698472 
L 191.100107 184.643449 
L 191.163426 184.67647 
L 191.407658 184.794831 
L 191.42575 184.761644 
L 191.50716 184.27048 
L 191.823757 181.227433 
L 191.887077 181.262845 
L 194.048984 183.105664 
L 194.718361 183.587169 
L 194.736452 183.554224 
L 194.817863 183.064146 
L 195.125414 180.024428 
L 195.19778 180.061566 
L 197.377778 181.948243 
L 199.630141 183.78493 
L 199.648232 183.756469 
L 199.720597 183.344908 
L 199.83819 180.866645 
L 200.091468 176.300171 
L 200.19097 176.307576 
L 200.209062 176.322538 
L 200.824165 176.80306 
L 200.851302 176.747979 
L 200.941758 176.080591 
L 201.231218 173.270777 
L 201.267401 173.285332 
L 201.810139 173.79177 
L 207.273703 178.808531 
L 208.693868 179.982818 
L 208.711959 179.950593 
L 208.79337 179.463757 
L 209.100921 176.436259 
L 209.173286 176.476267 
L 210.240671 177.365774 
L 210.276854 177.280904 
L 210.36731 176.52526 
L 210.647725 173.830964 
L 210.665816 173.835561 
L 210.964322 174.101422 
L 213.397598 176.284073 
L 213.406644 176.270668 
L 213.479009 175.937322 
L 213.659921 173.381778 
L 213.804652 172.75412 
L 213.822743 172.758932 
L 214.121249 173.02834 
L 217.26913 175.90096 
L 217.341495 175.624279 
L 217.47718 173.767436 
L 217.667138 172.373034 
L 217.811868 172.474688 
L 223.854353 178.090541 
L 229.390282 182.916553 
L 235.025712 187.535161 
L 240.769691 191.955787 
L 243.555747 193.920078 
L 243.564792 193.904909 
L 243.646203 193.476425 
L 243.971846 190.310803 
L 244.062302 190.35903 
L 254.121049 197.622765 
L 260.154488 201.607958 
L 266.332657 205.422431 
L 272.673647 209.075726 
L 279.177459 212.56606 
L 285.871229 215.905665 
L 292.773049 219.099838 
L 299.891964 222.148852 
L 307.255112 225.059926 
L 314.889628 227.838226 
L 322.813605 230.484308 
L 331.063224 233.003618 
L 339.674669 235.399487 
L 348.675076 237.67138 
L 358.11872 239.824208 
L 368.050827 241.858538 
L 378.525673 243.775291 
L 389.615622 245.576699 
L 401.411131 247.265192 
L 414.002656 248.840495 
L 427.507789 250.303323 
L 442.071262 251.654299 
L 457.883033 252.894616 
L 475.169243 254.024177 
L 494.246488 255.044131 
L 515.521822 255.954616 
L 539.565121 256.756076 
L 542.586364 256.842543 
L 542.586364 256.842543 
" clip-path="url(#p13293effa5)" style="fill: none; stroke: #1f77b4; stroke-opacity: 0.6; stroke-width: 1.5; stroke-linecap: square"/>
   </g>
   <g id="line2d_48">
    <path d="M 90.313636 259.388504 
L 180.68858 259.301553 
L 180.760945 258.781565 
L 180.860447 255.633634 
L 181.312729 237.396781 
L 181.357957 237.30074 
L 181.412231 237.422048 
L 181.475551 237.543025 
L 181.511733 237.44419 
L 181.593144 236.27946 
L 182.805259 209.298492 
L 182.832396 209.329187 
L 182.850487 209.400568 
L 182.931898 209.736505 
L 182.977126 209.557668 
L 183.094719 207.328002 
L 183.203267 206.042467 
L 183.248495 206.207176 
L 183.347997 206.808476 
L 183.393225 206.519981 
L 183.483682 203.309144 
L 183.890735 184.131384 
L 183.917872 184.256282 
L 184.062602 186.367305 
L 184.967166 200.031776 
L 184.985257 200.064903 
L 185.02144 199.917139 
L 185.148079 197.71486 
L 185.229489 197.017802 
L 185.274717 197.24188 
L 185.500858 200.288683 
L 186.459696 212.400578 
L 186.504924 212.538144 
L 186.550152 212.277829 
L 186.767247 208.829427 
L 186.875795 209.614814 
L 187.916043 220.50339 
L 187.934134 220.457362 
L 188.006499 219.54898 
L 188.196458 216.343779 
L 188.250731 216.572 
L 188.549237 219.156547 
L 188.612557 218.512608 
L 188.73015 213.1563 
L 188.929154 207.652775 
L 189.010565 206.938627 
L 189.191478 204.117349 
L 189.263843 204.529646 
L 189.806581 211.427553 
L 190.711144 221.088147 
L 190.729236 221.104899 
L 190.756372 221.015219 
L 190.846829 219.56107 
L 191.00965 216.992952 
L 191.054878 217.166153 
L 191.317202 219.800915 
L 191.452886 220.716869 
L 191.489069 220.567969 
L 191.588571 218.750447 
L 191.733301 216.648794 
L 191.769484 216.7715 
L 191.968488 218.742437 
L 193.008736 228.679208 
L 194.048984 236.557908 
L 194.736452 240.589094 
L 194.754543 240.555556 
L 194.817863 239.951739 
L 195.062095 235.232517 
L 195.170643 235.689191 
L 196.500351 243.715373 
L 197.540599 248.528407 
L 198.589893 252.36449 
L 199.584913 255.216162 
L 199.621095 255.239026 
L 199.657278 255.155554 
L 199.729643 254.247155 
L 199.856282 248.602052 
L 200.082423 241.402807 
L 200.136696 241.54009 
L 200.83321 245.023692 
L 200.905575 244.588687 
L 201.050306 240.972238 
L 201.176945 239.393024 
L 201.213127 239.461465 
L 201.430222 240.703478 
L 202.47047 246.29319 
L 203.510718 250.71537 
L 204.560012 254.236834 
L 205.618352 257.03102 
L 206.685737 259.23926 
L 207.771213 260.989281 
L 208.657685 262.065783 
L 208.721005 261.876117 
L 208.811461 260.497525 
L 209.08283 255.018839 
L 209.128058 255.071027 
L 209.625568 256.359853 
L 210.22258 257.652695 
L 210.240671 257.628589 
L 210.303991 257.221469 
L 210.421584 254.377021 
L 210.620588 251.020384 
L 210.629634 251.025682 
L 210.738181 251.332345 
L 211.886977 255.039679 
L 212.945316 257.695261 
L 213.370461 258.518586 
L 213.406644 258.462096 
L 213.479009 257.814822 
L 213.777515 251.818438 
L 213.913199 252.175044 
L 215.007721 255.570647 
L 216.066061 258.138263 
L 217.133445 260.163866 
L 217.241993 260.270052 
L 217.278176 260.199924 
L 217.350541 259.525701 
L 217.649047 253.422589 
L 217.784731 253.732956 
L 218.888299 256.824426 
L 219.946638 259.138307 
L 221.032114 260.989957 
L 222.144728 262.456784 
L 223.302569 263.621455 
L 224.532775 264.546636 
L 225.871529 265.275752 
L 227.38215 265.841239 
L 229.137004 266.254315 
L 231.271774 266.519613 
L 234.030693 266.626344 
L 237.97459 266.538138 
L 243.501473 266.193173 
L 243.573838 265.964626 
L 243.664294 264.645292 
L 243.9628 258.617854 
L 244.008028 258.649919 
L 244.749771 259.790216 
L 245.871429 261.195699 
L 247.047362 262.319567 
L 248.304705 263.216601 
L 249.688688 263.929239 
L 251.253582 264.480616 
L 253.089846 264.885548 
L 255.351255 265.147475 
L 258.327269 265.255401 
L 262.714403 265.172189 
L 271.42535 264.739373 
L 297.277776 263.423339 
L 319.412446 262.547623 
L 344.52313 261.781885 
L 373.568665 261.124573 
L 407.987308 260.575164 
L 450.176152 260.132861 
L 504.549467 259.796579 
L 542.586364 259.6565 
L 542.586364 259.6565 
" clip-path="url(#p13293effa5)" style="fill: none; stroke: #ff7f0e; stroke-opacity: 0.6; stroke-width: 1.5; stroke-linecap: square"/>
   </g>
   <g id="line2d_49">
    <path d="M 90.313636 259.388504 
L 542.586364 259.388504 
L 542.586364 259.388504 
" clip-path="url(#p13293effa5)" style="fill: none; stroke: #2ca02c; stroke-opacity: 0.6; stroke-width: 1.5; stroke-linecap: square"/>
   </g>
   <g id="patch_9">
    <path d="M 67.7 271.34 
L 67.7 167.66 
" style="fill: none; stroke: #000000; stroke-width: 0.8; stroke-linejoin: miter; stroke-linecap: square"/>
   </g>
   <g id="patch_10">
    <path d="M 565.2 271.34 
L 565.2 167.66 
" style="fill: none; stroke: #000000; stroke-width: 0.8; stroke-linejoin: miter; stroke-linecap: square"/>
   </g>
   <g id="patch_11">
    <path d="M 67.7 271.34 
L 565.2 271.34 
" style="fill: none; stroke: #000000; stroke-width: 0.8; stroke-linejoin: miter; stroke-linecap: square"/>
   </g>
   <g id="patch_12">
    <path d="M 67.7 167.66 
L 565.2 167.66 
" style="fill: none; stroke: #000000; stroke-width: 0.8; stroke-linejoin: miter; stroke-linecap: square"/>
   </g>
   <g id="legend_2">
    <g id="patch_13">
     <path d="M 425.342187 219.694375 
L 558.2 219.694375 
Q 560.2 219.694375 560.2 217.694375 
L 560.2 174.66 
Q 560.2 172.66 558.2 172.66 
L 425.342187 172.66 
Q 423.342187 172.66 423.342187 174.66 
L 423.342187 217.694375 
Q 423.342187 219.694375 425.342187 219.694375 
z
" style="fill: #ffffff; opacity: 0.8; stroke: #cccccc; stroke-linejoin: miter"/>
    </g>
    <g id="line2d_50">
     <path d="M 427.342187 180.758438 
L 437.342187 180.758438 
L 447.342187 180.758438 
" style="fill: none; stroke: #1f77b4; stroke-opacity: 0.6; stroke-width: 1.5; stroke-linecap: square"/>
    </g>
    <g id="text_14">
     <!-- preamp. - channel 1 -->
     <g transform="translate(455.342187 184.258438) scale(0.1 -0.1)">
      <use xlink:href="#DejaVuSans-70"/>
      <use xlink:href="#DejaVuSans-72" x="63.476562"/>
      <use xlink:href="#DejaVuSans-65" x="102.339844"/>
      <use xlink:href="#DejaVuSans-61" x="163.863281"/>
      <use xlink:href="#DejaVuSans-6d" x="225.142578"/>
      <use xlink:href="#DejaVuSans-70" x="322.554688"/>
      <use xlink:href="#DejaVuSans-2e" x="386.03125"/>
      <use xlink:href="#DejaVuSans-20" x="417.818359"/>
      <use xlink:href="#DejaVuSans-2d" x="449.605469"/>
      <use xlink:href="#DejaVuSans-20" x="485.689453"/>
      <use xlink:href="#DejaVuSans-63" x="517.476562"/>
      <use xlink:href="#DejaVuSans-68" x="572.457031"/>
      <use xlink:href="#DejaVuSans-61" x="635.835938"/>
      <use xlink:href="#DejaVuSans-6e" x="697.115234"/>
      <use xlink:href="#DejaVuSans-6e" x="760.494141"/>
      <use xlink:href="#DejaVuSans-65" x="823.873047"/>
      <use xlink:href="#DejaVuSans-6c" x="885.396484"/>
      <use xlink:href="#DejaVuSans-20" x="913.179688"/>
      <use xlink:href="#DejaVuSans-31" x="944.966797"/>
     </g>
    </g>
    <g id="line2d_51">
     <path d="M 427.342187 195.436563 
L 437.342187 195.436563 
L 447.342187 195.436563 
" style="fill: none; stroke: #ff7f0e; stroke-opacity: 0.6; stroke-width: 1.5; stroke-linecap: square"/>
    </g>
    <g id="text_15">
     <!-- amp. - channel 1 -->
     <g transform="translate(455.342187 198.936563) scale(0.1 -0.1)">
      <use xlink:href="#DejaVuSans-61"/>
      <use xlink:href="#DejaVuSans-6d" x="61.279297"/>
      <use xlink:href="#DejaVuSans-70" x="158.691406"/>
      <use xlink:href="#DejaVuSans-2e" x="222.167969"/>
      <use xlink:href="#DejaVuSans-20" x="253.955078"/>
      <use xlink:href="#DejaVuSans-2d" x="285.742188"/>
      <use xlink:href="#DejaVuSans-20" x="321.826172"/>
      <use xlink:href="#DejaVuSans-63" x="353.613281"/>
      <use xlink:href="#DejaVuSans-68" x="408.59375"/>
      <use xlink:href="#DejaVuSans-61" x="471.972656"/>
      <use xlink:href="#DejaVuSans-6e" x="533.251953"/>
      <use xlink:href="#DejaVuSans-6e" x="596.630859"/>
      <use xlink:href="#DejaVuSans-65" x="660.009766"/>
      <use xlink:href="#DejaVuSans-6c" x="721.533203"/>
      <use xlink:href="#DejaVuSans-20" x="749.316406"/>
      <use xlink:href="#DejaVuSans-31" x="781.103516"/>
     </g>
    </g>
    <g id="line2d_52">
     <path d="M 427.342187 210.114688 
L 437.342187 210.114688 
L 447.342187 210.114688 
" style="fill: none; stroke: #2ca02c; stroke-opacity: 0.6; stroke-width: 1.5; stroke-linecap: square"/>
    </g>
    <g id="text_16">
     <!-- dig. - channel 1 -->
     <g transform="translate(455.342187 213.614688) scale(0.1 -0.1)">
      <use xlink:href="#DejaVuSans-64"/>
      <use xlink:href="#DejaVuSans-69" x="63.476562"/>
      <use xlink:href="#DejaVuSans-67" x="91.259766"/>
      <use xlink:href="#DejaVuSans-2e" x="154.736328"/>
      <use xlink:href="#DejaVuSans-20" x="186.523438"/>
      <use xlink:href="#DejaVuSans-2d" x="218.310547"/>
      <use xlink:href="#DejaVuSans-20" x="254.394531"/>
      <use xlink:href="#DejaVuSans-63" x="286.181641"/>
      <use xlink:href="#DejaVuSans-68" x="341.162109"/>
      <use xlink:href="#DejaVuSans-61" x="404.541016"/>
      <use xlink:href="#DejaVuSans-6e" x="465.820312"/>
      <use xlink:href="#DejaVuSans-6e" x="529.199219"/>
      <use xlink:href="#DejaVuSans-65" x="592.578125"/>
      <use xlink:href="#DejaVuSans-6c" x="654.101562"/>
      <use xlink:href="#DejaVuSans-20" x="681.884766"/>
      <use xlink:href="#DejaVuSans-31" x="713.671875"/>
     </g>
    </g>
   </g>
  </g>
  <g id="axes_3">
   <g id="patch_14">
    <path d="M 67.7 389.32 
L 565.2 389.32 
L 565.2 285.64 
L 67.7 285.64 
z
" style="fill: #ffffff"/>
   </g>
   <g id="matplotlib.axis_5">
    <g id="xtick_13">
     <g id="line2d_53">
      <path d="M 90.313636 389.32 
L 90.313636 285.64 
" clip-path="url(#p11405bc48d)" style="fill: none; stroke: #b0b0b0; stroke-width: 0.8; stroke-linecap: square"/>
     </g>
     <g id="line2d_54">
      <g>
       <use xlink:href="#macce28d189" x="90.313636" y="389.32" style="stroke: #000000; stroke-width: 0.8"/>
      </g>
     </g>
     <g id="text_17">
      <!-- 0 -->
      <g transform="translate(87.132386 403.918437) scale(0.1 -0.1)">
       <use xlink:href="#DejaVuSans-30"/>
      </g>
     </g>
    </g>
    <g id="xtick_14">
     <g id="line2d_55">
      <path d="M 180.769991 389.32 
L 180.769991 285.64 
" clip-path="url(#p11405bc48d)" style="fill: none; stroke: #b0b0b0; stroke-width: 0.8; stroke-linecap: square"/>
     </g>
     <g id="line2d_56">
      <g>
       <use xlink:href="#macce28d189" x="180.769991" y="389.32" style="stroke: #000000; stroke-width: 0.8"/>
      </g>
     </g>
     <g id="text_18">
      <!-- 1 -->
      <g transform="translate(177.588741 403.918437) scale(0.1 -0.1)">
       <use xlink:href="#DejaVuSans-31"/>
      </g>
     </g>
    </g>
    <g id="xtick_15">
     <g id="line2d_57">
      <path d="M 271.226346 389.32 
L 271.226346 285.64 
" clip-path="url(#p11405bc48d)" style="fill: none; stroke: #b0b0b0; stroke-width: 0.8; stroke-linecap: square"/>
     </g>
     <g id="line2d_58">
      <g>
       <use xlink:href="#macce28d189" x="271.226346" y="389.32" style="stroke: #000000; stroke-width: 0.8"/>
      </g>
     </g>
     <g id="text_19">
      <!-- 2 -->
      <g transform="translate(268.045096 403.918437) scale(0.1 -0.1)">
       <use xlink:href="#DejaVuSans-32"/>
      </g>
     </g>
    </g>
    <g id="xtick_16">
     <g id="line2d_59">
      <path d="M 361.6827 389.32 
L 361.6827 285.64 
" clip-path="url(#p11405bc48d)" style="fill: none; stroke: #b0b0b0; stroke-width: 0.8; stroke-linecap: square"/>
     </g>
     <g id="line2d_60">
      <g>
       <use xlink:href="#macce28d189" x="361.6827" y="389.32" style="stroke: #000000; stroke-width: 0.8"/>
      </g>
     </g>
     <g id="text_20">
      <!-- 3 -->
      <g transform="translate(358.50145 403.918437) scale(0.1 -0.1)">
       <use xlink:href="#DejaVuSans-33"/>
      </g>
     </g>
    </g>
    <g id="xtick_17">
     <g id="line2d_61">
      <path d="M 452.139055 389.32 
L 452.139055 285.64 
" clip-path="url(#p11405bc48d)" style="fill: none; stroke: #b0b0b0; stroke-width: 0.8; stroke-linecap: square"/>
     </g>
     <g id="line2d_62">
      <g>
       <use xlink:href="#macce28d189" x="452.139055" y="389.32" style="stroke: #000000; stroke-width: 0.8"/>
      </g>
     </g>
     <g id="text_21">
      <!-- 4 -->
      <g transform="translate(448.957805 403.918437) scale(0.1 -0.1)">
       <use xlink:href="#DejaVuSans-34"/>
      </g>
     </g>
    </g>
    <g id="xtick_18">
     <g id="line2d_63">
      <path d="M 542.595409 389.32 
L 542.595409 285.64 
" clip-path="url(#p11405bc48d)" style="fill: none; stroke: #b0b0b0; stroke-width: 0.8; stroke-linecap: square"/>
     </g>
     <g id="line2d_64">
      <g>
       <use xlink:href="#macce28d189" x="542.595409" y="389.32" style="stroke: #000000; stroke-width: 0.8"/>
      </g>
     </g>
     <g id="text_22">
      <!-- 5 -->
      <g transform="translate(539.414159 403.918437) scale(0.1 -0.1)">
       <defs>
        <path id="DejaVuSans-35" d="M 691 4666 
L 3169 4666 
L 3169 4134 
L 1269 4134 
L 1269 2991 
Q 1406 3038 1543 3061 
Q 1681 3084 1819 3084 
Q 2600 3084 3056 2656 
Q 3513 2228 3513 1497 
Q 3513 744 3044 326 
Q 2575 -91 1722 -91 
Q 1428 -91 1123 -41 
Q 819 9 494 109 
L 494 744 
Q 775 591 1075 516 
Q 1375 441 1709 441 
Q 2250 441 2565 725 
Q 2881 1009 2881 1497 
Q 2881 1984 2565 2268 
Q 2250 2553 1709 2553 
Q 1456 2553 1204 2497 
Q 953 2441 691 2322 
L 691 4666 
z
" transform="scale(0.015625)"/>
       </defs>
       <use xlink:href="#DejaVuSans-35"/>
      </g>
     </g>
    </g>
    <g id="text_23">
     <!-- $t$ /s -->
     <g transform="translate(308.6 417.596563) scale(0.1 -0.1)">
      <defs>
       <path id="DejaVuSans-Oblique-74" d="M 2706 3500 
L 2619 3053 
L 1472 3053 
L 1100 1153 
Q 1081 1047 1072 975 
Q 1063 903 1063 863 
Q 1063 663 1183 572 
Q 1303 481 1569 481 
L 2150 481 
L 2053 0 
L 1503 0 
Q 991 0 739 200 
Q 488 400 488 806 
Q 488 878 497 964 
Q 506 1050 525 1153 
L 897 3053 
L 409 3053 
L 500 3500 
L 978 3500 
L 1172 4494 
L 1747 4494 
L 1556 3500 
L 2706 3500 
z
" transform="scale(0.015625)"/>
       <path id="DejaVuSans-73" d="M 2834 3397 
L 2834 2853 
Q 2591 2978 2328 3040 
Q 2066 3103 1784 3103 
Q 1356 3103 1142 2972 
Q 928 2841 928 2578 
Q 928 2378 1081 2264 
Q 1234 2150 1697 2047 
L 1894 2003 
Q 2506 1872 2764 1633 
Q 3022 1394 3022 966 
Q 3022 478 2636 193 
Q 2250 -91 1575 -91 
Q 1294 -91 989 -36 
Q 684 19 347 128 
L 347 722 
Q 666 556 975 473 
Q 1284 391 1588 391 
Q 1994 391 2212 530 
Q 2431 669 2431 922 
Q 2431 1156 2273 1281 
Q 2116 1406 1581 1522 
L 1381 1569 
Q 847 1681 609 1914 
Q 372 2147 372 2553 
Q 372 3047 722 3315 
Q 1072 3584 1716 3584 
Q 2034 3584 2315 3537 
Q 2597 3491 2834 3397 
z
" transform="scale(0.015625)"/>
      </defs>
      <use xlink:href="#DejaVuSans-Oblique-74" transform="translate(0 0.09375)"/>
      <use xlink:href="#DejaVuSans-20" transform="translate(39.208984 0.09375)"/>
      <use xlink:href="#DejaVuSans-2f" transform="translate(70.996094 0.09375)"/>
      <use xlink:href="#DejaVuSans-73" transform="translate(104.6875 0.09375)"/>
     </g>
    </g>
    <g id="text_24">
     <!-- 1e5 -->
     <g transform="translate(537.942187 416.596563) scale(0.1 -0.1)">
      <defs>
       <path id="DejaVuSans-2212" d="M 678 2272 
L 4684 2272 
L 4684 1741 
L 678 1741 
L 678 2272 
z
" transform="scale(0.015625)"/>
      </defs>
      <use xlink:href="#DejaVuSans-31"/>
      <use xlink:href="#DejaVuSans-65" x="63.623047"/>
      <use xlink:href="#DejaVuSans-2212" x="125.146484"/>
      <use xlink:href="#DejaVuSans-35" x="208.935547"/>
     </g>
    </g>
   </g>
   <g id="matplotlib.axis_6">
    <g id="ytick_9">
     <g id="line2d_65">
      <path d="M 67.7 379.18921 
L 565.2 379.18921 
" clip-path="url(#p11405bc48d)" style="fill: none; stroke: #b0b0b0; stroke-width: 0.8; stroke-linecap: square"/>
     </g>
     <g id="line2d_66">
      <g>
       <use xlink:href="#mf83e9b3401" x="67.7" y="379.18921" style="stroke: #000000; stroke-width: 0.8"/>
      </g>
     </g>
     <g id="text_25">
      <!-- 0.000 -->
      <g transform="translate(32.071875 382.988429) scale(0.1 -0.1)">
       <use xlink:href="#DejaVuSans-30"/>
       <use xlink:href="#DejaVuSans-2e" x="63.623047"/>
       <use xlink:href="#DejaVuSans-30" x="95.410156"/>
       <use xlink:href="#DejaVuSans-30" x="159.033203"/>
       <use xlink:href="#DejaVuSans-30" x="222.65625"/>
      </g>
     </g>
    </g>
    <g id="ytick_10">
     <g id="line2d_67">
      <path d="M 67.7 356.447071 
L 565.2 356.447071 
" clip-path="url(#p11405bc48d)" style="fill: none; stroke: #b0b0b0; stroke-width: 0.8; stroke-linecap: square"/>
     </g>
     <g id="line2d_68">
      <g>
       <use xlink:href="#mf83e9b3401" x="67.7" y="356.447071" style="stroke: #000000; stroke-width: 0.8"/>
      </g>
     </g>
     <g id="text_26">
      <!-- 0.002 -->
      <g transform="translate(32.071875 360.246289) scale(0.1 -0.1)">
       <use xlink:href="#DejaVuSans-30"/>
       <use xlink:href="#DejaVuSans-2e" x="63.623047"/>
       <use xlink:href="#DejaVuSans-30" x="95.410156"/>
       <use xlink:href="#DejaVuSans-30" x="159.033203"/>
       <use xlink:href="#DejaVuSans-32" x="222.65625"/>
      </g>
     </g>
    </g>
    <g id="ytick_11">
     <g id="line2d_69">
      <path d="M 67.7 333.704931 
L 565.2 333.704931 
" clip-path="url(#p11405bc48d)" style="fill: none; stroke: #b0b0b0; stroke-width: 0.8; stroke-linecap: square"/>
     </g>
     <g id="line2d_70">
      <g>
       <use xlink:href="#mf83e9b3401" x="67.7" y="333.704931" style="stroke: #000000; stroke-width: 0.8"/>
      </g>
     </g>
     <g id="text_27">
      <!-- 0.004 -->
      <g transform="translate(32.071875 337.50415) scale(0.1 -0.1)">
       <use xlink:href="#DejaVuSans-30"/>
       <use xlink:href="#DejaVuSans-2e" x="63.623047"/>
       <use xlink:href="#DejaVuSans-30" x="95.410156"/>
       <use xlink:href="#DejaVuSans-30" x="159.033203"/>
       <use xlink:href="#DejaVuSans-34" x="222.65625"/>
      </g>
     </g>
    </g>
    <g id="ytick_12">
     <g id="line2d_71">
      <path d="M 67.7 310.962791 
L 565.2 310.962791 
" clip-path="url(#p11405bc48d)" style="fill: none; stroke: #b0b0b0; stroke-width: 0.8; stroke-linecap: square"/>
     </g>
     <g id="line2d_72">
      <g>
       <use xlink:href="#mf83e9b3401" x="67.7" y="310.962791" style="stroke: #000000; stroke-width: 0.8"/>
      </g>
     </g>
     <g id="text_28">
      <!-- 0.006 -->
      <g transform="translate(32.071875 314.76201) scale(0.1 -0.1)">
       <defs>
        <path id="DejaVuSans-36" d="M 2113 2584 
Q 1688 2584 1439 2293 
Q 1191 2003 1191 1497 
Q 1191 994 1439 701 
Q 1688 409 2113 409 
Q 2538 409 2786 701 
Q 3034 994 3034 1497 
Q 3034 2003 2786 2293 
Q 2538 2584 2113 2584 
z
M 3366 4563 
L 3366 3988 
Q 3128 4100 2886 4159 
Q 2644 4219 2406 4219 
Q 1781 4219 1451 3797 
Q 1122 3375 1075 2522 
Q 1259 2794 1537 2939 
Q 1816 3084 2150 3084 
Q 2853 3084 3261 2657 
Q 3669 2231 3669 1497 
Q 3669 778 3244 343 
Q 2819 -91 2113 -91 
Q 1303 -91 875 529 
Q 447 1150 447 2328 
Q 447 3434 972 4092 
Q 1497 4750 2381 4750 
Q 2619 4750 2861 4703 
Q 3103 4656 3366 4563 
z
" transform="scale(0.015625)"/>
       </defs>
       <use xlink:href="#DejaVuSans-30"/>
       <use xlink:href="#DejaVuSans-2e" x="63.623047"/>
       <use xlink:href="#DejaVuSans-30" x="95.410156"/>
       <use xlink:href="#DejaVuSans-30" x="159.033203"/>
       <use xlink:href="#DejaVuSans-36" x="222.65625"/>
      </g>
     </g>
    </g>
    <g id="ytick_13">
     <g id="line2d_73">
      <path d="M 67.7 288.220652 
L 565.2 288.220652 
" clip-path="url(#p11405bc48d)" style="fill: none; stroke: #b0b0b0; stroke-width: 0.8; stroke-linecap: square"/>
     </g>
     <g id="line2d_74">
      <g>
       <use xlink:href="#mf83e9b3401" x="67.7" y="288.220652" style="stroke: #000000; stroke-width: 0.8"/>
      </g>
     </g>
     <g id="text_29">
      <!-- 0.008 -->
      <g transform="translate(32.071875 292.01987) scale(0.1 -0.1)">
       <defs>
        <path id="DejaVuSans-38" d="M 2034 2216 
Q 1584 2216 1326 1975 
Q 1069 1734 1069 1313 
Q 1069 891 1326 650 
Q 1584 409 2034 409 
Q 2484 409 2743 651 
Q 3003 894 3003 1313 
Q 3003 1734 2745 1975 
Q 2488 2216 2034 2216 
z
M 1403 2484 
Q 997 2584 770 2862 
Q 544 3141 544 3541 
Q 544 4100 942 4425 
Q 1341 4750 2034 4750 
Q 2731 4750 3128 4425 
Q 3525 4100 3525 3541 
Q 3525 3141 3298 2862 
Q 3072 2584 2669 2484 
Q 3125 2378 3379 2068 
Q 3634 1759 3634 1313 
Q 3634 634 3220 271 
Q 2806 -91 2034 -91 
Q 1263 -91 848 271 
Q 434 634 434 1313 
Q 434 1759 690 2068 
Q 947 2378 1403 2484 
z
M 1172 3481 
Q 1172 3119 1398 2916 
Q 1625 2713 2034 2713 
Q 2441 2713 2670 2916 
Q 2900 3119 2900 3481 
Q 2900 3844 2670 4047 
Q 2441 4250 2034 4250 
Q 1625 4250 1398 4047 
Q 1172 3844 1172 3481 
z
" transform="scale(0.015625)"/>
       </defs>
       <use xlink:href="#DejaVuSans-30"/>
       <use xlink:href="#DejaVuSans-2e" x="63.623047"/>
       <use xlink:href="#DejaVuSans-30" x="95.410156"/>
       <use xlink:href="#DejaVuSans-30" x="159.033203"/>
       <use xlink:href="#DejaVuSans-38" x="222.65625"/>
      </g>
     </g>
    </g>
    <g id="text_30">
     <!-- $v$ /V -->
     <g transform="translate(25.992188 347.18) rotate(-90) scale(0.1 -0.1)">
      <use xlink:href="#DejaVuSans-Oblique-76" transform="translate(0 0.09375)"/>
      <use xlink:href="#DejaVuSans-20" transform="translate(59.179688 0.09375)"/>
      <use xlink:href="#DejaVuSans-2f" transform="translate(90.966797 0.09375)"/>
      <use xlink:href="#DejaVuSans-56" transform="translate(124.658203 0.09375)"/>
     </g>
    </g>
   </g>
   <g id="line2d_75">
    <path d="M 90.313636 379.18921 
L 180.679535 379.098345 
L 180.779037 378.603281 
L 181.222273 374.034386 
L 181.692646 363.227056 
L 182.018289 355.57675 
L 182.778122 340.977043 
L 182.922852 340.174232 
L 183.402271 336.687445 
L 183.565092 336.599477 
L 183.646503 335.977806 
L 183.81837 332.106268 
L 184.02642 329.913335 
L 184.768162 326.0516 
L 184.804344 326.064239 
L 185.120942 326.134068 
L 185.129987 326.114149 
L 185.229489 325.568298 
L 185.491813 324.210532 
L 185.781273 324.37008 
L 188.820607 326.090447 
L 188.911063 325.719462 
L 189.752307 319.954685 
L 189.806581 319.976612 
L 191.516206 321.082679 
L 193.216785 322.073958 
L 193.225831 322.058281 
L 193.316287 321.641725 
L 193.596702 320.15142 
L 193.614793 320.156152 
L 194.103258 320.465036 
L 195.505331 321.276756 
L 195.514377 321.260879 
L 195.604833 320.824749 
L 196.029978 317.190139 
L 196.138526 317.243652 
L 198.418026 318.693866 
L 198.436117 318.659353 
L 198.535619 318.121697 
L 198.788897 316.784347 
L 198.797942 316.785494 
L 199.168813 316.784852 
L 199.304498 315.757503 
L 199.494456 315.000588 
L 199.729643 315.146068 
L 201.366903 316.203899 
L 201.375949 316.188809 
L 201.466405 315.77812 
L 201.737774 314.304568 
L 201.764911 314.311863 
L 202.090554 314.398497 
L 202.108645 314.347953 
L 202.226238 313.542022 
L 202.443334 312.540076 
L 202.67852 312.691944 
L 208.567229 316.882814 
L 214.582576 320.891232 
L 220.742654 324.728974 
L 221.656263 325.185362 
L 221.665309 325.169374 
L 221.755765 324.749708 
L 222.03618 323.249784 
L 222.054271 323.253896 
L 222.53369 323.540534 
L 228.802315 327.266215 
L 232.610528 329.333775 
L 232.691938 329.062951 
L 233.008536 327.369092 
L 233.071855 327.394451 
L 237.259984 329.736573 
L 243.809024 333.19024 
L 248.331842 335.375524 
L 248.413253 335.139357 
L 248.747941 333.375315 
L 248.829352 333.407845 
L 259.032829 338.290807 
L 266.106516 341.367059 
L 273.424435 344.306232 
L 281.004677 347.11016 
L 288.87438 349.782952 
L 297.06068 352.327227 
L 305.59976 354.746873 
L 314.518757 357.041775 
L 323.871944 359.217299 
L 333.70455 361.274319 
L 344.070848 363.214002 
L 355.043204 365.038793 
L 366.693982 366.748794 
L 379.122685 368.345802 
L 392.437861 369.829964 
L 406.784239 371.20255 
L 422.333686 372.463878 
L 439.312344 373.614777 
L 458.018718 374.656133 
L 478.832725 375.587847 
L 502.288058 376.410393 
L 529.144549 377.12419 
L 542.586364 377.409327 
L 542.586364 377.409327 
" clip-path="url(#p11405bc48d)" style="fill: none; stroke: #1f77b4; stroke-opacity: 0.6; stroke-width: 1.5; stroke-linecap: square"/>
   </g>
   <g id="line2d_76">
    <path d="M 90.313636 379.18921 
L 180.652398 379.098509 
L 180.733808 378.627332 
L 180.996132 374.588639 
L 181.158953 371.383371 
L 181.602189 355.454206 
L 182.054471 335.671575 
L 182.561027 317.700398 
L 182.696711 317.019447 
L 182.750985 317.198363 
L 182.877624 317.859799 
L 182.931898 317.692515 
L 183.239449 315.993861 
L 183.293723 316.170524 
L 183.456545 318.147523 
L 183.601275 319.522336 
L 183.637457 319.336755 
L 183.727914 317.169203 
L 183.935963 312.17077 
L 183.972146 312.283764 
L 184.062602 312.610661 
L 184.116876 312.479971 
L 184.198287 312.256237 
L 184.243515 312.423125 
L 184.469656 314.450229 
L 184.587249 314.079079 
L 184.60534 314.067038 
L 184.641523 314.167952 
L 184.759116 315.444898 
L 185.193307 320.842429 
L 185.229489 320.766778 
L 185.347082 320.268965 
L 185.401356 320.476105 
L 185.582269 322.669026 
L 186.640608 335.588176 
L 187.680856 345.64679 
L 188.721105 353.618142 
L 188.847743 354.148721 
L 188.892972 354.009477 
L 189.327162 350.409422 
L 189.652805 347.284752 
L 189.679942 347.333982 
L 189.815626 348.233401 
L 190.92824 356.257211 
L 191.968488 362.158194 
L 193.017781 366.870162 
L 193.216785 367.465376 
L 193.252968 367.384964 
L 193.343424 366.494641 
L 193.533383 364.612119 
L 193.569565 364.66542 
L 193.795706 365.592056 
L 194.845 369.616492 
L 195.48724 371.534532 
L 195.514377 371.505525 
L 195.586742 371.028227 
L 195.749563 367.713293 
L 195.975704 364.587834 
L 195.98475 364.593113 
L 196.075206 364.86958 
L 197.468234 370.283564 
L 198.381843 372.949724 
L 198.418026 372.937708 
L 198.445163 372.859669 
L 198.535619 371.965895 
L 198.743669 369.733109 
L 198.779851 369.768001 
L 199.005992 370.472803 
L 199.11454 370.687099 
L 199.150722 370.617181 
L 199.241179 369.771307 
L 199.449228 367.645113 
L 199.485411 367.698046 
L 199.747734 368.653344 
L 200.797028 372.149484 
L 201.348812 373.566173 
L 201.375949 373.529288 
L 201.448314 373.050388 
L 201.692546 370.318431 
L 201.773956 370.461316 
L 202.063417 371.245856 
L 202.108645 371.134429 
L 202.208147 370.042945 
L 202.398105 368.181628 
L 202.425242 368.213141 
L 202.615201 368.868853 
L 203.664494 372.372092 
L 204.722834 375.155905 
L 205.790219 377.360081 
L 206.884741 379.123946 
L 208.015445 380.532058 
L 209.200423 381.65654 
L 210.466812 382.55312 
L 211.85984 383.265015 
L 213.433781 383.816169 
L 215.288136 384.223789 
L 217.576682 384.490046 
L 220.597924 384.604727 
L 221.629126 384.515413 
L 221.710537 384.04376 
L 222.03618 380.318784 
L 222.153773 380.401837 
L 223.447299 381.478655 
L 224.777007 382.28721 
L 226.260492 382.925255 
L 227.970117 383.412958 
L 230.032522 383.761485 
L 232.520071 383.951938 
L 232.610528 383.821214 
L 232.700984 383.082505 
L 232.99949 379.697279 
L 233.044718 379.718711 
L 235.812683 381.80291 
L 237.278076 382.457814 
L 238.969609 382.964946 
L 240.995832 383.332526 
L 243.564792 383.561444 
L 247.09259 383.637088 
L 248.322797 383.536022 
L 248.404207 383.06371 
L 248.72985 379.336371 
L 248.847443 379.418675 
L 250.150015 380.49686 
L 251.488769 381.308126 
L 252.981299 381.950669 
L 254.709015 382.447792 
L 256.798557 382.809478 
L 259.467019 383.034138 
L 263.184776 383.107812 
L 269.390082 382.979463 
L 332.094427 381.108854 
L 364.722034 380.527587 
L 404.269552 380.05361 
L 454.364281 379.686048 
L 522.432688 379.423322 
L 542.586364 379.376566 
L 542.586364 379.376566 
" clip-path="url(#p11405bc48d)" style="fill: none; stroke: #ff7f0e; stroke-opacity: 0.6; stroke-width: 1.5; stroke-linecap: square"/>
   </g>
   <g id="line2d_77">
    <path d="M 90.313636 379.18921 
L 182.072562 379.18921 
L 182.190156 290.352727 
L 186.559198 290.352727 
L 186.676791 379.18921 
L 542.586364 379.18921 
L 542.586364 379.18921 
" clip-path="url(#p11405bc48d)" style="fill: none; stroke: #2ca02c; stroke-opacity: 0.6; stroke-width: 1.5; stroke-linecap: square"/>
   </g>
   <g id="patch_15">
    <path d="M 67.7 389.32 
L 67.7 285.64 
" style="fill: none; stroke: #000000; stroke-width: 0.8; stroke-linejoin: miter; stroke-linecap: square"/>
   </g>
   <g id="patch_16">
    <path d="M 565.2 389.32 
L 565.2 285.64 
" style="fill: none; stroke: #000000; stroke-width: 0.8; stroke-linejoin: miter; stroke-linecap: square"/>
   </g>
   <g id="patch_17">
    <path d="M 67.7 389.32 
L 565.2 389.32 
" style="fill: none; stroke: #000000; stroke-width: 0.8; stroke-linejoin: miter; stroke-linecap: square"/>
   </g>
   <g id="patch_18">
    <path d="M 67.7 285.64 
L 565.2 285.64 
" style="fill: none; stroke: #000000; stroke-width: 0.8; stroke-linejoin: miter; stroke-linecap: square"/>
   </g>
   <g id="legend_3">
    <g id="patch_19">
     <path d="M 425.342187 337.674375 
L 558.2 337.674375 
Q 560.2 337.674375 560.2 335.674375 
L 560.2 292.64 
Q 560.2 290.64 558.2 290.64 
L 425.342187 290.64 
Q 423.342187 290.64 423.342187 292.64 
L 423.342187 335.674375 
Q 423.342187 337.674375 425.342187 337.674375 
z
" style="fill: #ffffff; opacity: 0.8; stroke: #cccccc; stroke-linejoin: miter"/>
    </g>
    <g id="line2d_78">
     <path d="M 427.342187 298.738438 
L 437.342187 298.738438 
L 447.342187 298.738438 
" style="fill: none; stroke: #1f77b4; stroke-opacity: 0.6; stroke-width: 1.5; stroke-linecap: square"/>
    </g>
    <g id="text_31">
     <!-- preamp. - channel 2 -->
     <g transform="translate(455.342187 302.238438) scale(0.1 -0.1)">
      <use xlink:href="#DejaVuSans-70"/>
      <use xlink:href="#DejaVuSans-72" x="63.476562"/>
      <use xlink:href="#DejaVuSans-65" x="102.339844"/>
      <use xlink:href="#DejaVuSans-61" x="163.863281"/>
      <use xlink:href="#DejaVuSans-6d" x="225.142578"/>
      <use xlink:href="#DejaVuSans-70" x="322.554688"/>
      <use xlink:href="#DejaVuSans-2e" x="386.03125"/>
      <use xlink:href="#DejaVuSans-20" x="417.818359"/>
      <use xlink:href="#DejaVuSans-2d" x="449.605469"/>
      <use xlink:href="#DejaVuSans-20" x="485.689453"/>
      <use xlink:href="#DejaVuSans-63" x="517.476562"/>
      <use xlink:href="#DejaVuSans-68" x="572.457031"/>
      <use xlink:href="#DejaVuSans-61" x="635.835938"/>
      <use xlink:href="#DejaVuSans-6e" x="697.115234"/>
      <use xlink:href="#DejaVuSans-6e" x="760.494141"/>
      <use xlink:href="#DejaVuSans-65" x="823.873047"/>
      <use xlink:href="#DejaVuSans-6c" x="885.396484"/>
      <use xlink:href="#DejaVuSans-20" x="913.179688"/>
      <use xlink:href="#DejaVuSans-32" x="944.966797"/>
     </g>
    </g>
    <g id="line2d_79">
     <path d="M 427.342187 313.416563 
L 437.342187 313.416563 
L 447.342187 313.416563 
" style="fill: none; stroke: #ff7f0e; stroke-opacity: 0.6; stroke-width: 1.5; stroke-linecap: square"/>
    </g>
    <g id="text_32">
     <!-- amp. - channel 2 -->
     <g transform="translate(455.342187 316.916563) scale(0.1 -0.1)">
      <use xlink:href="#DejaVuSans-61"/>
      <use xlink:href="#DejaVuSans-6d" x="61.279297"/>
      <use xlink:href="#DejaVuSans-70" x="158.691406"/>
      <use xlink:href="#DejaVuSans-2e" x="222.167969"/>
      <use xlink:href="#DejaVuSans-20" x="253.955078"/>
      <use xlink:href="#DejaVuSans-2d" x="285.742188"/>
      <use xlink:href="#DejaVuSans-20" x="321.826172"/>
      <use xlink:href="#DejaVuSans-63" x="353.613281"/>
      <use xlink:href="#DejaVuSans-68" x="408.59375"/>
      <use xlink:href="#DejaVuSans-61" x="471.972656"/>
      <use xlink:href="#DejaVuSans-6e" x="533.251953"/>
      <use xlink:href="#DejaVuSans-6e" x="596.630859"/>
      <use xlink:href="#DejaVuSans-65" x="660.009766"/>
      <use xlink:href="#DejaVuSans-6c" x="721.533203"/>
      <use xlink:href="#DejaVuSans-20" x="749.316406"/>
      <use xlink:href="#DejaVuSans-32" x="781.103516"/>
     </g>
    </g>
    <g id="line2d_80">
     <path d="M 427.342187 328.094688 
L 437.342187 328.094688 
L 447.342187 328.094688 
" style="fill: none; stroke: #2ca02c; stroke-opacity: 0.6; stroke-width: 1.5; stroke-linecap: square"/>
    </g>
    <g id="text_33">
     <!-- dig. - channel 2 -->
     <g transform="translate(455.342187 331.594688) scale(0.1 -0.1)">
      <use xlink:href="#DejaVuSans-64"/>
      <use xlink:href="#DejaVuSans-69" x="63.476562"/>
      <use xlink:href="#DejaVuSans-67" x="91.259766"/>
      <use xlink:href="#DejaVuSans-2e" x="154.736328"/>
      <use xlink:href="#DejaVuSans-20" x="186.523438"/>
      <use xlink:href="#DejaVuSans-2d" x="218.310547"/>
      <use xlink:href="#DejaVuSans-20" x="254.394531"/>
      <use xlink:href="#DejaVuSans-63" x="286.181641"/>
      <use xlink:href="#DejaVuSans-68" x="341.162109"/>
      <use xlink:href="#DejaVuSans-61" x="404.541016"/>
      <use xlink:href="#DejaVuSans-6e" x="465.820312"/>
      <use xlink:href="#DejaVuSans-6e" x="529.199219"/>
      <use xlink:href="#DejaVuSans-65" x="592.578125"/>
      <use xlink:href="#DejaVuSans-6c" x="654.101562"/>
      <use xlink:href="#DejaVuSans-20" x="681.884766"/>
      <use xlink:href="#DejaVuSans-32" x="713.671875"/>
     </g>
    </g>
   </g>
  </g>
  <g id="text_34">
   <!-- Signal per Channel -->
   <g transform="translate(231.154687 17.758125) scale(0.12 -0.12)">
    <defs>
     <path id="DejaVuSans-53" d="M 3425 4513 
L 3425 3897 
Q 3066 4069 2747 4153 
Q 2428 4238 2131 4238 
Q 1616 4238 1336 4038 
Q 1056 3838 1056 3469 
Q 1056 3159 1242 3001 
Q 1428 2844 1947 2747 
L 2328 2669 
Q 3034 2534 3370 2195 
Q 3706 1856 3706 1288 
Q 3706 609 3251 259 
Q 2797 -91 1919 -91 
Q 1588 -91 1214 -16 
Q 841 59 441 206 
L 441 856 
Q 825 641 1194 531 
Q 1563 422 1919 422 
Q 2459 422 2753 634 
Q 3047 847 3047 1241 
Q 3047 1584 2836 1778 
Q 2625 1972 2144 2069 
L 1759 2144 
Q 1053 2284 737 2584 
Q 422 2884 422 3419 
Q 422 4038 858 4394 
Q 1294 4750 2059 4750 
Q 2388 4750 2728 4690 
Q 3069 4631 3425 4513 
z
" transform="scale(0.015625)"/>
     <path id="DejaVuSans-43" d="M 4122 4306 
L 4122 3641 
Q 3803 3938 3442 4084 
Q 3081 4231 2675 4231 
Q 1875 4231 1450 3742 
Q 1025 3253 1025 2328 
Q 1025 1406 1450 917 
Q 1875 428 2675 428 
Q 3081 428 3442 575 
Q 3803 722 4122 1019 
L 4122 359 
Q 3791 134 3420 21 
Q 3050 -91 2638 -91 
Q 1578 -91 968 557 
Q 359 1206 359 2328 
Q 359 3453 968 4101 
Q 1578 4750 2638 4750 
Q 3056 4750 3426 4639 
Q 3797 4528 4122 4306 
z
" transform="scale(0.015625)"/>
    </defs>
    <use xlink:href="#DejaVuSans-53"/>
    <use xlink:href="#DejaVuSans-69" x="63.476562"/>
    <use xlink:href="#DejaVuSans-67" x="91.259766"/>
    <use xlink:href="#DejaVuSans-6e" x="154.736328"/>
    <use xlink:href="#DejaVuSans-61" x="218.115234"/>
    <use xlink:href="#DejaVuSans-6c" x="279.394531"/>
    <use xlink:href="#DejaVuSans-20" x="307.177734"/>
    <use xlink:href="#DejaVuSans-70" x="338.964844"/>
    <use xlink:href="#DejaVuSans-65" x="402.441406"/>
    <use xlink:href="#DejaVuSans-72" x="463.964844"/>
    <use xlink:href="#DejaVuSans-20" x="505.078125"/>
    <use xlink:href="#DejaVuSans-43" x="536.865234"/>
    <use xlink:href="#DejaVuSans-68" x="606.689453"/>
    <use xlink:href="#DejaVuSans-61" x="670.068359"/>
    <use xlink:href="#DejaVuSans-6e" x="731.347656"/>
    <use xlink:href="#DejaVuSans-6e" x="794.726562"/>
    <use xlink:href="#DejaVuSans-65" x="858.105469"/>
    <use xlink:href="#DejaVuSans-6c" x="919.628906"/>
   </g>
  </g>
 </g>
 <defs>
  <clipPath id="p0007da2e3a">
   <rect x="67.7" y="49.68" width="497.5" height="103.68"/>
  </clipPath>
  <clipPath id="p13293effa5">
   <rect x="67.7" y="167.66" width="497.5" height="103.68"/>
  </clipPath>
  <clipPath id="p11405bc48d">
   <rect x="67.7" y="285.64" width="497.5" height="103.68"/>
  </clipPath>
 </defs>
</svg>
