<?xml version="1.0" encoding="utf-8" standalone="no"?>
<!DOCTYPE svg PUBLIC "-//W3C//DTD SVG 1.1//EN"
  "http://www.w3.org/Graphics/SVG/1.1/DTD/svg11.dtd">
<svg xmlns:xlink="http://www.w3.org/1999/xlink" width="460.8pt" height="345.6pt" viewBox="0 0 460.8 345.6" xmlns="http://www.w3.org/2000/svg" version="1.1">
 <metadata>
  <rdf:RDF xmlns:dc="http://purl.org/dc/elements/1.1/" xmlns:cc="http://creativecommons.org/ns#" xmlns:rdf="http://www.w3.org/1999/02/22-rdf-syntax-ns#">
   <cc:Work>
    <dc:type rdf:resource="http://purl.org/dc/dcmitype/StillImage"/>
    <dc:date>2025-05-27T15:42:31.294212</dc:date>
    <dc:format>image/svg+xml</dc:format>
    <dc:creator>
     <cc:Agent>
      <dc:title>Matplotlib v3.9.2, https://matplotlib.org/</dc:title>
     </cc:Agent>
    </dc:creator>
   </cc:Work>
  </rdf:RDF>
 </metadata>
 <defs>
  <style type="text/css">*{stroke-linejoin: round; stroke-linecap: butt}</style>
 </defs>
 <g id="figure_1">
  <g id="patch_1">
   <path d="M 0 345.6 
L 460.8 345.6 
L 460.8 0 
L 0 0 
z
" style="fill: #ffffff"/>
  </g>
  <g id="axes_1">
   <g id="patch_2">
    <path d="M 57.6 307.584 
L 414.72 307.584 
L 414.72 41.472 
L 57.6 41.472 
z
" style="fill: #ffffff"/>
   </g>
   <g id="matplotlib.axis_1">
    <g id="xtick_1">
     <g id="line2d_1">
      <defs>
       <path id="m33f97e1bcd" d="M 0 0 
L 0 3.5 
" style="stroke: #000000; stroke-width: 0.8"/>
      </defs>
      <g>
       <use xlink:href="#m33f97e1bcd" x="73.832727" y="307.584" style="stroke: #000000; stroke-width: 0.8"/>
      </g>
     </g>
     <g id="text_1">
      <!-- 0 -->
      <g transform="translate(70.651477 322.182437) scale(0.1 -0.1)">
       <defs>
        <path id="DejaVuSans-30" d="M 2034 4250 
Q 1547 4250 1301 3770 
Q 1056 3291 1056 2328 
Q 1056 1369 1301 889 
Q 1547 409 2034 409 
Q 2525 409 2770 889 
Q 3016 1369 3016 2328 
Q 3016 3291 2770 3770 
Q 2525 4250 2034 4250 
z
M 2034 4750 
Q 2819 4750 3233 4129 
Q 3647 3509 3647 2328 
Q 3647 1150 3233 529 
Q 2819 -91 2034 -91 
Q 1250 -91 836 529 
Q 422 1150 422 2328 
Q 422 3509 836 4129 
Q 1250 4750 2034 4750 
z
" transform="scale(0.015625)"/>
       </defs>
       <use xlink:href="#DejaVuSans-30"/>
      </g>
     </g>
    </g>
    <g id="xtick_2">
     <g id="line2d_2">
      <g>
       <use xlink:href="#m33f97e1bcd" x="138.764935" y="307.584" style="stroke: #000000; stroke-width: 0.8"/>
      </g>
     </g>
     <g id="text_2">
      <!-- 20 -->
      <g transform="translate(132.402435 322.182437) scale(0.1 -0.1)">
       <defs>
        <path id="DejaVuSans-32" d="M 1228 531 
L 3431 531 
L 3431 0 
L 469 0 
L 469 531 
Q 828 903 1448 1529 
Q 2069 2156 2228 2338 
Q 2531 2678 2651 2914 
Q 2772 3150 2772 3378 
Q 2772 3750 2511 3984 
Q 2250 4219 1831 4219 
Q 1534 4219 1204 4116 
Q 875 4013 500 3803 
L 500 4441 
Q 881 4594 1212 4672 
Q 1544 4750 1819 4750 
Q 2544 4750 2975 4387 
Q 3406 4025 3406 3419 
Q 3406 3131 3298 2873 
Q 3191 2616 2906 2266 
Q 2828 2175 2409 1742 
Q 1991 1309 1228 531 
z
" transform="scale(0.015625)"/>
       </defs>
       <use xlink:href="#DejaVuSans-32"/>
       <use xlink:href="#DejaVuSans-30" x="63.623047"/>
      </g>
     </g>
    </g>
    <g id="xtick_3">
     <g id="line2d_3">
      <g>
       <use xlink:href="#m33f97e1bcd" x="203.697143" y="307.584" style="stroke: #000000; stroke-width: 0.8"/>
      </g>
     </g>
     <g id="text_3">
      <!-- 40 -->
      <g transform="translate(197.334643 322.182437) scale(0.1 -0.1)">
       <defs>
        <path id="DejaVuSans-34" d="M 2419 4116 
L 825 1625 
L 2419 1625 
L 2419 4116 
z
M 2253 4666 
L 3047 4666 
L 3047 1625 
L 3713 1625 
L 3713 1100 
L 3047 1100 
L 3047 0 
L 2419 0 
L 2419 1100 
L 313 1100 
L 313 1709 
L 2253 4666 
z
" transform="scale(0.015625)"/>
       </defs>
       <use xlink:href="#DejaVuSans-34"/>
       <use xlink:href="#DejaVuSans-30" x="63.623047"/>
      </g>
     </g>
    </g>
    <g id="xtick_4">
     <g id="line2d_4">
      <g>
       <use xlink:href="#m33f97e1bcd" x="268.62935" y="307.584" style="stroke: #000000; stroke-width: 0.8"/>
      </g>
     </g>
     <g id="text_4">
      <!-- 60 -->
      <g transform="translate(262.26685 322.182437) scale(0.1 -0.1)">
       <defs>
        <path id="DejaVuSans-36" d="M 2113 2584 
Q 1688 2584 1439 2293 
Q 1191 2003 1191 1497 
Q 1191 994 1439 701 
Q 1688 409 2113 409 
Q 2538 409 2786 701 
Q 3034 994 3034 1497 
Q 3034 2003 2786 2293 
Q 2538 2584 2113 2584 
z
M 3366 4563 
L 3366 3988 
Q 3128 4100 2886 4159 
Q 2644 4219 2406 4219 
Q 1781 4219 1451 3797 
Q 1122 3375 1075 2522 
Q 1259 2794 1537 2939 
Q 1816 3084 2150 3084 
Q 2853 3084 3261 2657 
Q 3669 2231 3669 1497 
Q 3669 778 3244 343 
Q 2819 -91 2113 -91 
Q 1303 -91 875 529 
Q 447 1150 447 2328 
Q 447 3434 972 4092 
Q 1497 4750 2381 4750 
Q 2619 4750 2861 4703 
Q 3103 4656 3366 4563 
z
" transform="scale(0.015625)"/>
       </defs>
       <use xlink:href="#DejaVuSans-36"/>
       <use xlink:href="#DejaVuSans-30" x="63.623047"/>
      </g>
     </g>
    </g>
    <g id="xtick_5">
     <g id="line2d_5">
      <g>
       <use xlink:href="#m33f97e1bcd" x="333.561558" y="307.584" style="stroke: #000000; stroke-width: 0.8"/>
      </g>
     </g>
     <g id="text_5">
      <!-- 80 -->
      <g transform="translate(327.199058 322.182437) scale(0.1 -0.1)">
       <defs>
        <path id="DejaVuSans-38" d="M 2034 2216 
Q 1584 2216 1326 1975 
Q 1069 1734 1069 1313 
Q 1069 891 1326 650 
Q 1584 409 2034 409 
Q 2484 409 2743 651 
Q 3003 894 3003 1313 
Q 3003 1734 2745 1975 
Q 2488 2216 2034 2216 
z
M 1403 2484 
Q 997 2584 770 2862 
Q 544 3141 544 3541 
Q 544 4100 942 4425 
Q 1341 4750 2034 4750 
Q 2731 4750 3128 4425 
Q 3525 4100 3525 3541 
Q 3525 3141 3298 2862 
Q 3072 2584 2669 2484 
Q 3125 2378 3379 2068 
Q 3634 1759 3634 1313 
Q 3634 634 3220 271 
Q 2806 -91 2034 -91 
Q 1263 -91 848 271 
Q 434 634 434 1313 
Q 434 1759 690 2068 
Q 947 2378 1403 2484 
z
M 1172 3481 
Q 1172 3119 1398 2916 
Q 1625 2713 2034 2713 
Q 2441 2713 2670 2916 
Q 2900 3119 2900 3481 
Q 2900 3844 2670 4047 
Q 2441 4250 2034 4250 
Q 1625 4250 1398 4047 
Q 1172 3844 1172 3481 
z
" transform="scale(0.015625)"/>
       </defs>
       <use xlink:href="#DejaVuSans-38"/>
       <use xlink:href="#DejaVuSans-30" x="63.623047"/>
      </g>
     </g>
    </g>
    <g id="xtick_6">
     <g id="line2d_6">
      <g>
       <use xlink:href="#m33f97e1bcd" x="398.493766" y="307.584" style="stroke: #000000; stroke-width: 0.8"/>
      </g>
     </g>
     <g id="text_6">
      <!-- 100 -->
      <g transform="translate(388.950016 322.182437) scale(0.1 -0.1)">
       <defs>
        <path id="DejaVuSans-31" d="M 794 531 
L 1825 531 
L 1825 4091 
L 703 3866 
L 703 4441 
L 1819 4666 
L 2450 4666 
L 2450 531 
L 3481 531 
L 3481 0 
L 794 0 
L 794 531 
z
" transform="scale(0.015625)"/>
       </defs>
       <use xlink:href="#DejaVuSans-31"/>
       <use xlink:href="#DejaVuSans-30" x="63.623047"/>
       <use xlink:href="#DejaVuSans-30" x="127.246094"/>
      </g>
     </g>
    </g>
    <g id="text_7">
     <!-- $t$ /µs -->
     <g transform="translate(225.21 335.84025) scale(0.1 -0.1)">
      <defs>
       <path id="DejaVuSans-Oblique-74" d="M 2706 3500 
L 2619 3053 
L 1472 3053 
L 1100 1153 
Q 1081 1047 1072 975 
Q 1063 903 1063 863 
Q 1063 663 1183 572 
Q 1303 481 1569 481 
L 2150 481 
L 2053 0 
L 1503 0 
Q 991 0 739 200 
Q 488 400 488 806 
Q 488 878 497 964 
Q 506 1050 525 1153 
L 897 3053 
L 409 3053 
L 500 3500 
L 978 3500 
L 1172 4494 
L 1747 4494 
L 1556 3500 
L 2706 3500 
z
" transform="scale(0.015625)"/>
       <path id="DejaVuSans-20" transform="scale(0.015625)"/>
       <path id="DejaVuSans-2f" d="M 1625 4666 
L 2156 4666 
L 531 -594 
L 0 -594 
L 1625 4666 
z
" transform="scale(0.015625)"/>
       <path id="DejaVuSans-b5" d="M 544 -1331 
L 544 3500 
L 1119 3500 
L 1119 1325 
Q 1119 872 1334 640 
Q 1550 409 1972 409 
Q 2434 409 2667 671 
Q 2900 934 2900 1459 
L 2900 3500 
L 3475 3500 
L 3475 806 
Q 3475 619 3529 530 
Q 3584 441 3700 441 
Q 3728 441 3778 458 
Q 3828 475 3916 513 
L 3916 50 
Q 3788 -22 3673 -56 
Q 3559 -91 3450 -91 
Q 3234 -91 3106 31 
Q 2978 153 2931 403 
Q 2775 156 2548 32 
Q 2322 -91 2016 -91 
Q 1697 -91 1473 31 
Q 1250 153 1119 397 
L 1119 -1331 
L 544 -1331 
z
" transform="scale(0.015625)"/>
       <path id="DejaVuSans-73" d="M 2834 3397 
L 2834 2853 
Q 2591 2978 2328 3040 
Q 2066 3103 1784 3103 
Q 1356 3103 1142 2972 
Q 928 2841 928 2578 
Q 928 2378 1081 2264 
Q 1234 2150 1697 2047 
L 1894 2003 
Q 2506 1872 2764 1633 
Q 3022 1394 3022 966 
Q 3022 478 2636 193 
Q 2250 -91 1575 -91 
Q 1294 -91 989 -36 
Q 684 19 347 128 
L 347 722 
Q 666 556 975 473 
Q 1284 391 1588 391 
Q 1994 391 2212 530 
Q 2431 669 2431 922 
Q 2431 1156 2273 1281 
Q 2116 1406 1581 1522 
L 1381 1569 
Q 847 1681 609 1914 
Q 372 2147 372 2553 
Q 372 3047 722 3315 
Q 1072 3584 1716 3584 
Q 2034 3584 2315 3537 
Q 2597 3491 2834 3397 
z
" transform="scale(0.015625)"/>
      </defs>
      <use xlink:href="#DejaVuSans-Oblique-74" transform="translate(0 0.09375)"/>
      <use xlink:href="#DejaVuSans-20" transform="translate(39.208984 0.09375)"/>
      <use xlink:href="#DejaVuSans-2f" transform="translate(70.996094 0.09375)"/>
      <use xlink:href="#DejaVuSans-b5" transform="translate(102.9375 0.09375)"/>
      <use xlink:href="#DejaVuSans-73" transform="translate(166.560547 0.09375)"/>
     </g>
    </g>
   </g>
   <g id="matplotlib.axis_2">
    <g id="ytick_1">
     <g id="line2d_7">
      <defs>
       <path id="m04ed2d91a9" d="M 0 0 
L -3.5 0 
" style="stroke: #000000; stroke-width: 0.8"/>
      </defs>
      <g>
       <use xlink:href="#m04ed2d91a9" x="57.6" y="295.488" style="stroke: #000000; stroke-width: 0.8"/>
      </g>
     </g>
     <g id="text_8">
      <!-- 0.0 -->
      <g transform="translate(34.696875 299.287219) scale(0.1 -0.1)">
       <defs>
        <path id="DejaVuSans-2e" d="M 684 794 
L 1344 794 
L 1344 0 
L 684 0 
L 684 794 
z
" transform="scale(0.015625)"/>
       </defs>
       <use xlink:href="#DejaVuSans-30"/>
       <use xlink:href="#DejaVuSans-2e" x="63.623047"/>
       <use xlink:href="#DejaVuSans-30" x="95.410156"/>
      </g>
     </g>
    </g>
    <g id="ytick_2">
     <g id="line2d_8">
      <g>
       <use xlink:href="#m04ed2d91a9" x="57.6" y="265.248" style="stroke: #000000; stroke-width: 0.8"/>
      </g>
     </g>
     <g id="text_9">
      <!-- 0.5 -->
      <g transform="translate(34.696875 269.047219) scale(0.1 -0.1)">
       <defs>
        <path id="DejaVuSans-35" d="M 691 4666 
L 3169 4666 
L 3169 4134 
L 1269 4134 
L 1269 2991 
Q 1406 3038 1543 3061 
Q 1681 3084 1819 3084 
Q 2600 3084 3056 2656 
Q 3513 2228 3513 1497 
Q 3513 744 3044 326 
Q 2575 -91 1722 -91 
Q 1428 -91 1123 -41 
Q 819 9 494 109 
L 494 744 
Q 775 591 1075 516 
Q 1375 441 1709 441 
Q 2250 441 2565 725 
Q 2881 1009 2881 1497 
Q 2881 1984 2565 2268 
Q 2250 2553 1709 2553 
Q 1456 2553 1204 2497 
Q 953 2441 691 2322 
L 691 4666 
z
" transform="scale(0.015625)"/>
       </defs>
       <use xlink:href="#DejaVuSans-30"/>
       <use xlink:href="#DejaVuSans-2e" x="63.623047"/>
       <use xlink:href="#DejaVuSans-35" x="95.410156"/>
      </g>
     </g>
    </g>
    <g id="ytick_3">
     <g id="line2d_9">
      <g>
       <use xlink:href="#m04ed2d91a9" x="57.6" y="235.008" style="stroke: #000000; stroke-width: 0.8"/>
      </g>
     </g>
     <g id="text_10">
      <!-- 1.0 -->
      <g transform="translate(34.696875 238.807219) scale(0.1 -0.1)">
       <use xlink:href="#DejaVuSans-31"/>
       <use xlink:href="#DejaVuSans-2e" x="63.623047"/>
       <use xlink:href="#DejaVuSans-30" x="95.410156"/>
      </g>
     </g>
    </g>
    <g id="ytick_4">
     <g id="line2d_10">
      <g>
       <use xlink:href="#m04ed2d91a9" x="57.6" y="204.768" style="stroke: #000000; stroke-width: 0.8"/>
      </g>
     </g>
     <g id="text_11">
      <!-- 1.5 -->
      <g transform="translate(34.696875 208.567219) scale(0.1 -0.1)">
       <use xlink:href="#DejaVuSans-31"/>
       <use xlink:href="#DejaVuSans-2e" x="63.623047"/>
       <use xlink:href="#DejaVuSans-35" x="95.410156"/>
      </g>
     </g>
    </g>
    <g id="ytick_5">
     <g id="line2d_11">
      <g>
       <use xlink:href="#m04ed2d91a9" x="57.6" y="174.528" style="stroke: #000000; stroke-width: 0.8"/>
      </g>
     </g>
     <g id="text_12">
      <!-- 2.0 -->
      <g transform="translate(34.696875 178.327219) scale(0.1 -0.1)">
       <use xlink:href="#DejaVuSans-32"/>
       <use xlink:href="#DejaVuSans-2e" x="63.623047"/>
       <use xlink:href="#DejaVuSans-30" x="95.410156"/>
      </g>
     </g>
    </g>
    <g id="ytick_6">
     <g id="line2d_12">
      <g>
       <use xlink:href="#m04ed2d91a9" x="57.6" y="144.288" style="stroke: #000000; stroke-width: 0.8"/>
      </g>
     </g>
     <g id="text_13">
      <!-- 2.5 -->
      <g transform="translate(34.696875 148.087219) scale(0.1 -0.1)">
       <use xlink:href="#DejaVuSans-32"/>
       <use xlink:href="#DejaVuSans-2e" x="63.623047"/>
       <use xlink:href="#DejaVuSans-35" x="95.410156"/>
      </g>
     </g>
    </g>
    <g id="ytick_7">
     <g id="line2d_13">
      <g>
       <use xlink:href="#m04ed2d91a9" x="57.6" y="114.048" style="stroke: #000000; stroke-width: 0.8"/>
      </g>
     </g>
     <g id="text_14">
      <!-- 3.0 -->
      <g transform="translate(34.696875 117.847219) scale(0.1 -0.1)">
       <defs>
        <path id="DejaVuSans-33" d="M 2597 2516 
Q 3050 2419 3304 2112 
Q 3559 1806 3559 1356 
Q 3559 666 3084 287 
Q 2609 -91 1734 -91 
Q 1441 -91 1130 -33 
Q 819 25 488 141 
L 488 750 
Q 750 597 1062 519 
Q 1375 441 1716 441 
Q 2309 441 2620 675 
Q 2931 909 2931 1356 
Q 2931 1769 2642 2001 
Q 2353 2234 1838 2234 
L 1294 2234 
L 1294 2753 
L 1863 2753 
Q 2328 2753 2575 2939 
Q 2822 3125 2822 3475 
Q 2822 3834 2567 4026 
Q 2313 4219 1838 4219 
Q 1578 4219 1281 4162 
Q 984 4106 628 3988 
L 628 4550 
Q 988 4650 1302 4700 
Q 1616 4750 1894 4750 
Q 2613 4750 3031 4423 
Q 3450 4097 3450 3541 
Q 3450 3153 3228 2886 
Q 3006 2619 2597 2516 
z
" transform="scale(0.015625)"/>
       </defs>
       <use xlink:href="#DejaVuSans-33"/>
       <use xlink:href="#DejaVuSans-2e" x="63.623047"/>
       <use xlink:href="#DejaVuSans-30" x="95.410156"/>
      </g>
     </g>
    </g>
    <g id="ytick_8">
     <g id="line2d_14">
      <g>
       <use xlink:href="#m04ed2d91a9" x="57.6" y="83.808" style="stroke: #000000; stroke-width: 0.8"/>
      </g>
     </g>
     <g id="text_15">
      <!-- 3.5 -->
      <g transform="translate(34.696875 87.607219) scale(0.1 -0.1)">
       <use xlink:href="#DejaVuSans-33"/>
       <use xlink:href="#DejaVuSans-2e" x="63.623047"/>
       <use xlink:href="#DejaVuSans-35" x="95.410156"/>
      </g>
     </g>
    </g>
    <g id="ytick_9">
     <g id="line2d_15">
      <g>
       <use xlink:href="#m04ed2d91a9" x="57.6" y="53.568" style="stroke: #000000; stroke-width: 0.8"/>
      </g>
     </g>
     <g id="text_16">
      <!-- 4.0 -->
      <g transform="translate(34.696875 57.367219) scale(0.1 -0.1)">
       <use xlink:href="#DejaVuSans-34"/>
       <use xlink:href="#DejaVuSans-2e" x="63.623047"/>
       <use xlink:href="#DejaVuSans-30" x="95.410156"/>
      </g>
     </g>
    </g>
    <g id="text_17">
     <!-- $v$ /s$^{-1}$ -->
     <g transform="translate(28.617188 188.728) rotate(-90) scale(0.1 -0.1)">
      <defs>
       <path id="DejaVuSans-Oblique-76" d="M 459 3500 
L 1069 3500 
L 1581 525 
L 3256 3500 
L 3866 3500 
L 1875 0 
L 1100 0 
L 459 3500 
z
" transform="scale(0.015625)"/>
       <path id="DejaVuSans-2212" d="M 678 2272 
L 4684 2272 
L 4684 1741 
L 678 1741 
L 678 2272 
z
" transform="scale(0.015625)"/>
      </defs>
      <use xlink:href="#DejaVuSans-Oblique-76" transform="translate(0 0.684375)"/>
      <use xlink:href="#DejaVuSans-20" transform="translate(59.179688 0.684375)"/>
      <use xlink:href="#DejaVuSans-2f" transform="translate(90.966797 0.684375)"/>
      <use xlink:href="#DejaVuSans-73" transform="translate(124.658203 0.684375)"/>
      <use xlink:href="#DejaVuSans-2212" transform="translate(177.714844 38.965625) scale(0.7)"/>
      <use xlink:href="#DejaVuSans-31" transform="translate(236.367188 38.965625) scale(0.7)"/>
     </g>
    </g>
   </g>
   <g id="line2d_16">
    <path d="M 73.832727 295.488 
L 98.604365 295.488 
L 98.682283 174.528 
L 98.714749 235.008 
L 98.818641 295.488 
L 98.740722 114.048 
L 98.825134 235.008 
L 98.831627 235.008 
L 98.948505 295.488 
L 99.006944 174.528 
L 99.05889 295.488 
L 99.084863 295.488 
L 99.182261 235.008 
L 99.195248 295.488 
L 99.201741 295.488 
L 99.312126 174.528 
L 99.318619 235.008 
L 99.429004 295.488 
L 99.435497 174.528 
L 99.539388 295.488 
L 99.552375 295.488 
L 99.66276 235.008 
L 99.779637 295.488 
L 99.792624 295.488 
L 99.870543 235.008 
L 99.903009 295.488 
L 99.909502 295.488 
L 99.980927 235.008 
L 100.019887 295.488 
L 100.04586 295.488 
L 100.123778 235.008 
L 100.156244 295.488 
L 100.20819 295.488 
L 100.214683 174.528 
L 100.318575 295.488 
L 100.377014 295.488 
L 100.461426 235.008 
L 100.487399 295.488 
L 100.519865 295.488 
L 100.526358 235.008 
L 100.630249 295.488 
L 100.81206 295.488 
L 100.818553 235.008 
L 100.922444 295.488 
L 101.045816 295.488 
L 101.052309 235.008 
L 101.1562 295.488 
L 101.786043 295.488 
L 101.792536 235.008 
L 101.896427 295.488 
L 102.006812 295.488 
L 102.013305 235.008 
L 102.117197 295.488 
L 102.630161 295.488 
L 102.636655 235.008 
L 102.740546 295.488 
L 103.188578 295.488 
L 103.27299 235.008 
L 103.298963 295.488 
L 109.22078 295.488 
L 109.233767 174.528 
L 109.337658 235.008 
L 109.454536 295.488 
L 109.474016 295.488 
L 109.519469 114.048 
L 109.584401 295.488 
L 109.610374 295.488 
L 109.64284 174.528 
L 109.727252 235.008 
L 109.733745 235.008 
L 109.759718 174.528 
L 109.84413 295.488 
L 109.870103 174.528 
L 109.954514 295.488 
L 109.967501 295.488 
L 110.032433 53.568 
L 110.084379 174.528 
L 110.201257 295.488 
L 110.233723 114.048 
L 110.311642 295.488 
L 110.350601 295.488 
L 110.441506 235.008 
L 110.460986 295.488 
L 110.525918 295.488 
L 110.59085 235.008 
L 110.636303 295.488 
L 110.642796 295.488 
L 110.720714 235.008 
L 110.753181 295.488 
L 110.766167 295.488 
L 110.863565 235.008 
L 110.876552 295.488 
L 110.889538 295.488 
L 110.941484 235.008 
L 110.999923 295.488 
L 111.071348 295.488 
L 111.110308 174.528 
L 111.181733 295.488 
L 111.188226 295.488 
L 111.279131 235.008 
L 111.298611 295.488 
L 111.408996 295.488 
L 111.415489 235.008 
L 111.519381 295.488 
L 111.564833 295.488 
L 111.610286 235.008 
L 111.675218 295.488 
L 112.116757 295.488 
L 112.12325 235.008 
L 112.227142 295.488 
L 112.240128 295.488 
L 112.246621 235.008 
L 112.350513 295.488 
L 112.597255 295.488 
L 112.603749 235.008 
L 112.70764 295.488 
L 113.123206 295.488 
L 113.129699 235.008 
L 113.233591 295.488 
L 113.389428 295.488 
L 113.395921 235.008 
L 113.499813 295.488 
L 114.149135 295.488 
L 114.155628 235.008 
L 114.25952 295.488 
L 115.623096 295.488 
L 115.675042 174.528 
L 115.733481 295.488 
L 115.739974 295.488 
L 115.8114 174.528 
L 115.850359 235.008 
L 115.941264 295.488 
L 115.876332 114.048 
L 115.960744 235.008 
L 115.967237 235.008 
L 115.986717 174.528 
L 116.084115 295.488 
L 116.200993 235.008 
L 116.207486 235.008 
L 116.291898 174.528 
L 116.226966 295.488 
L 116.311378 235.008 
L 116.35683 174.528 
L 116.428256 295.488 
L 116.441242 174.528 
L 116.545134 235.008 
L 116.662011 295.488 
L 116.752917 235.008 
L 116.772396 295.488 
L 116.798369 295.488 
L 116.902261 235.008 
L 116.908754 295.488 
L 116.954206 295.488 
L 116.9607 174.528 
L 117.064591 295.488 
L 117.097057 295.488 
L 117.194456 235.008 
L 117.207442 295.488 
L 117.213935 295.488 
L 117.30484 235.008 
L 117.32432 295.488 
L 117.467171 295.488 
L 117.473664 235.008 
L 117.577556 295.488 
L 117.7269 295.488 
L 117.804818 235.008 
L 117.837284 295.488 
L 117.843778 295.488 
L 117.850271 235.008 
L 117.954162 295.488 
L 118.051561 295.488 
L 118.058054 174.528 
L 118.161945 295.488 
L 118.207398 295.488 
L 118.213891 174.528 
L 118.317783 235.008 
L 118.434661 295.488 
L 118.441154 295.488 
L 118.525566 235.008 
L 118.551539 295.488 
L 118.571018 295.488 
L 118.577512 235.008 
L 118.681403 295.488 
L 118.746335 295.488 
L 118.752829 235.008 
L 118.85672 295.488 
L 118.960612 295.488 
L 118.967105 235.008 
L 119.070996 295.488 
L 119.467083 295.488 
L 119.473576 235.008 
L 119.577468 295.488 
L 119.967061 295.488 
L 119.973554 235.008 
L 120.077446 295.488 
L 218.319876 295.488 
L 218.391301 174.528 
L 218.430261 235.008 
L 218.436754 235.008 
L 218.521166 295.488 
L 218.508179 114.048 
L 218.547139 235.008 
L 218.553632 235.008 
L 218.657523 295.488 
L 218.715962 114.048 
L 218.767908 295.488 
L 218.793881 295.488 
L 218.891279 235.008 
L 218.904266 295.488 
L 218.962705 295.488 
L 218.975691 174.528 
L 219.079583 235.008 
L 219.105556 174.528 
L 219.189968 295.488 
L 219.306845 235.008 
L 219.423723 295.488 
L 219.573068 295.488 
L 219.657479 235.008 
L 219.683452 295.488 
L 219.702932 295.488 
L 219.709425 174.528 
L 219.813317 235.008 
L 219.81981 235.008 
L 219.936688 295.488 
L 220.053566 295.488 
L 220.092525 235.008 
L 220.163951 295.488 
L 220.196417 295.488 
L 220.306801 235.008 
L 220.423679 295.488 
L 220.514585 295.488 
L 220.521078 235.008 
L 220.624969 295.488 
L 220.728861 295.488 
L 220.839246 235.008 
L 220.956124 295.488 
L 221.358703 295.488 
L 221.397663 235.008 
L 221.469088 295.488 
L 222.969022 295.488 
L 222.975515 235.008 
L 223.079407 295.488 
L 224.871536 295.488 
L 224.878029 235.008 
L 224.98192 295.488 
L 292.894517 295.488 
L 292.946462 174.528 
L 293.004901 235.008 
L 293.069833 114.048 
L 293.108793 295.488 
L 293.141259 174.528 
L 293.219178 295.488 
L 293.251644 295.488 
L 293.349042 235.008 
L 293.362028 295.488 
L 293.375015 295.488 
L 293.452933 235.008 
L 293.4854 295.488 
L 293.491893 295.488 
L 293.511372 174.528 
L 293.602278 295.488 
L 293.615264 295.488 
L 293.660717 174.528 
L 293.732142 235.008 
L 293.745128 114.048 
L 293.84902 295.488 
L 293.881486 295.488 
L 293.939925 114.048 
L 293.991871 295.488 
L 294.024337 295.488 
L 294.063296 174.528 
L 294.134722 295.488 
L 294.173681 295.488 
L 294.2516 235.008 
L 294.284066 295.488 
L 294.297052 295.488 
L 294.41393 235.008 
L 294.530808 295.488 
L 294.99832 295.488 
L 295.095718 235.008 
L 295.108705 295.488 
L 295.115198 295.488 
L 295.121691 235.008 
L 295.225583 295.488 
L 295.407393 295.488 
L 295.420379 235.008 
L 295.517778 295.488 
L 296.426829 295.488 
L 296.433322 235.008 
L 296.537213 295.488 
L 297.563142 295.488 
L 297.569635 235.008 
L 297.673527 295.488 
L 298.257917 295.488 
L 298.26441 235.008 
L 298.368302 295.488 
L 298.64751 295.488 
L 298.654003 235.008 
L 298.757895 295.488 
L 317.484344 295.488 
L 317.588235 174.528 
L 317.601222 235.008 
L 317.627194 174.528 
L 317.711606 295.488 
L 317.744072 174.528 
L 317.821991 295.488 
L 317.841471 295.488 
L 317.893416 174.528 
L 317.951855 235.008 
L 318.055747 295.488 
L 318.06224 235.008 
L 318.075227 235.008 
L 318.192105 295.488 
L 318.308983 174.528 
L 318.425861 295.488 
L 318.438847 295.488 
L 318.529752 235.008 
L 318.549232 295.488 
L 318.562218 295.488 
L 318.594684 174.528 
L 318.679096 235.008 
L 318.795974 295.488 
L 318.899866 295.488 
L 318.977784 235.008 
L 319.01025 295.488 
L 319.068689 295.488 
L 319.081676 235.008 
L 319.179074 295.488 
L 319.276473 295.488 
L 319.308939 174.528 
L 319.386857 295.488 
L 319.529708 295.488 
L 319.627106 235.008 
L 319.640093 295.488 
L 319.984234 295.488 
L 320.101112 235.008 
L 320.19851 295.488 
L 320.159551 174.528 
L 320.211496 235.008 
L 320.21799 235.008 
L 320.250456 174.528 
L 320.328374 295.488 
L 320.438759 114.048 
L 320.445252 235.008 
L 320.451745 235.008 
L 320.471225 174.528 
L 320.568623 295.488 
L 320.588103 295.488 
L 320.685501 235.008 
L 320.698488 295.488 
L 320.717968 295.488 
L 320.841339 174.528 
L 320.951723 295.488 
L 321.029642 235.008 
L 321.062108 295.488 
L 321.068601 295.488 
L 321.075095 174.528 
L 321.178986 295.488 
L 321.185479 295.488 
L 321.204959 174.528 
L 321.295864 295.488 
L 321.302357 295.488 
L 321.412742 235.008 
L 321.52962 295.488 
L 321.5491 295.488 
L 321.652991 174.528 
L 321.659485 295.488 
L 321.665978 295.488 
L 321.724417 174.528 
L 321.776363 295.488 
L 321.867268 295.488 
L 321.964666 53.568 
L 321.977652 235.008 
L 322.081544 295.488 
L 322.010118 174.528 
L 322.088037 235.008 
L 322.09453 235.008 
L 322.11401 174.528 
L 322.211408 295.488 
L 322.224395 295.488 
L 322.308807 174.528 
L 322.341273 235.008 
L 322.367246 174.528 
L 322.451657 295.488 
L 322.542563 235.008 
L 322.562042 295.488 
L 322.601002 295.488 
L 322.67892 174.528 
L 322.711386 295.488 
L 322.737359 295.488 
L 322.750346 174.528 
L 322.847744 295.488 
L 322.893196 295.488 
L 322.984102 235.008 
L 323.003581 295.488 
L 323.042541 295.488 
L 323.113966 235.008 
L 323.152925 295.488 
L 323.165912 295.488 
L 323.172405 235.008 
L 323.276297 295.488 
L 323.386681 295.488 
L 323.393174 174.528 
L 323.497066 295.488 
L 323.536025 295.488 
L 323.549012 174.528 
L 323.64641 295.488 
L 323.66589 295.488 
L 323.776275 235.008 
L 323.893152 295.488 
L 323.906139 295.488 
L 323.932112 235.008 
L 324.016524 295.488 
L 324.178854 295.488 
L 324.25028 235.008 
L 324.289239 295.488 
L 324.438583 295.488 
L 324.445076 174.528 
L 324.548968 295.488 
L 324.574941 295.488 
L 324.581434 235.008 
L 324.685325 295.488 
L 325.048946 295.488 
L 325.055439 235.008 
L 325.159331 295.488 
L 325.17881 295.488 
L 325.185303 235.008 
L 325.289195 295.488 
L 325.58139 295.488 
L 325.587883 235.008 
L 325.691775 295.488 
L 325.808653 295.488 
L 325.815146 235.008 
L 325.919037 295.488 
L 326.542387 295.488 
L 326.54888 235.008 
L 326.652771 295.488 
L 326.71121 295.488 
L 326.717704 235.008 
L 326.821595 295.488 
L 329.386417 295.488 
L 329.39291 235.008 
L 329.496802 295.488 
L 341.236545 295.488 
L 341.262518 114.048 
L 341.34693 295.488 
L 341.359916 295.488 
L 341.450821 114.048 
L 341.470301 295.488 
L 341.483288 295.488 
L 341.593672 114.048 
L 341.71055 295.488 
L 341.814442 235.008 
L 341.820935 295.488 
L 341.846908 295.488 
L 341.853401 53.568 
L 341.957293 295.488 
L 342.074171 235.008 
L 342.158583 174.528 
L 342.191049 295.488 
L 342.197542 295.488 
L 342.236501 235.008 
L 342.307927 295.488 
L 342.333899 295.488 
L 342.431298 174.528 
L 342.444284 295.488 
L 342.619601 295.488 
L 342.736479 235.008 
L 342.853357 295.488 
L 342.885823 295.488 
L 342.983222 174.528 
L 342.996208 295.488 
L 343.178018 295.488 
L 343.288403 235.008 
L 343.405281 295.488 
L 343.411774 295.488 
L 343.470213 235.008 
L 343.522159 295.488 
L 343.619557 295.488 
L 343.736435 235.008 
L 343.853313 295.488 
L 343.950711 295.488 
L 343.957205 235.008 
L 344.061096 295.488 
L 344.177974 295.488 
L 344.242906 235.008 
L 344.288359 295.488 
L 344.418223 295.488 
L 344.509128 235.008 
L 344.528608 295.488 
L 344.898722 295.488 
L 344.957161 235.008 
L 345.009106 295.488 
L 347.437571 295.488 
L 347.502503 174.528 
L 347.547956 295.488 
L 347.554449 295.488 
L 347.651847 174.528 
L 347.664834 235.008 
L 347.775218 295.488 
L 347.788205 174.528 
L 347.885603 295.488 
L 347.89859 295.488 
L 347.918069 174.528 
L 348.008974 235.008 
L 348.125852 295.488 
L 348.203771 235.008 
L 348.236237 295.488 
L 348.249224 295.488 
L 348.26221 235.008 
L 348.359608 295.488 
L 348.372595 295.488 
L 348.418047 174.528 
L 348.489473 235.008 
L 348.599858 295.488 
L 348.697256 235.008 
L 348.710242 295.488 
L 348.723229 295.488 
L 348.755695 174.528 
L 348.840107 235.008 
L 348.86608 174.528 
L 348.956985 295.488 
L 348.982958 295.488 
L 349.086849 235.008 
L 349.093342 295.488 
L 349.145288 295.488 
L 349.262166 235.008 
L 349.379044 295.488 
L 349.625786 295.488 
L 349.684225 174.528 
L 349.736171 295.488 
L 349.807597 295.488 
L 349.81409 235.008 
L 349.917981 295.488 
L 350.073819 295.488 
L 350.171217 235.008 
L 350.184203 295.488 
L 350.190697 295.488 
L 350.242642 235.008 
L 350.301081 295.488 
L 350.314068 295.488 
L 350.320561 235.008 
L 350.424453 295.488 
L 350.528344 295.488 
L 350.534837 235.008 
L 350.638729 295.488 
L 351.976332 295.488 
L 351.982826 235.008 
L 352.086717 295.488 
L 358.566951 295.488 
L 358.592924 53.568 
L 358.683829 114.048 
L 358.690323 114.048 
L 358.800707 295.488 
L 358.807201 53.568 
L 358.911092 295.488 
L 358.989011 174.528 
L 359.021477 235.008 
L 359.112382 295.488 
L 359.092902 53.568 
L 359.131862 235.008 
L 359.138355 235.008 
L 359.157835 174.528 
L 359.255233 295.488 
L 359.346138 174.528 
L 359.365618 295.488 
L 359.378604 295.488 
L 359.443536 114.048 
L 359.495482 174.528 
L 359.61236 295.488 
L 359.618853 295.488 
L 359.625346 114.048 
L 359.729238 295.488 
L 359.755211 174.528 
L 359.839623 235.008 
L 359.852609 174.528 
L 359.950007 295.488 
L 360.060392 174.528 
L 360.066885 235.008 
L 360.17727 295.488 
L 360.287655 235.008 
L 360.404533 295.488 
L 360.449985 295.488 
L 360.469465 174.528 
L 360.56037 235.008 
L 360.670755 295.488 
L 360.722701 235.008 
L 360.78114 295.488 
L 360.794126 295.488 
L 360.846072 235.008 
L 360.904511 295.488 
L 361.034375 295.488 
L 361.131774 235.008 
L 361.14476 295.488 
L 361.157747 295.488 
L 361.248652 235.008 
L 361.268131 295.488 
L 361.281118 295.488 
L 361.287611 235.008 
L 361.391502 295.488 
L 361.651231 295.488 
L 361.657724 235.008 
L 361.761616 295.488 
L 364.352411 295.488 
L 364.358904 235.008 
L 364.462796 295.488 
L 398.487273 295.488 
L 398.487273 295.488 
" clip-path="url(#p806eaf16c9)" style="fill: none; stroke: #1f77b4; stroke-width: 1.5; stroke-linecap: square"/>
   </g>
   <g id="line2d_17">
    <path d="M 73.832727 295.488 
L 98.604365 295.488 
L 98.682283 174.528 
L 98.714749 235.008 
L 98.818641 295.488 
L 98.740722 114.048 
L 98.825134 235.008 
L 98.831627 235.008 
L 98.948505 295.488 
L 99.006944 174.528 
L 99.05889 295.488 
L 99.084863 295.488 
L 99.182261 235.008 
L 99.195248 295.488 
L 99.201741 295.488 
L 99.312126 174.528 
L 99.318619 235.008 
L 99.429004 295.488 
L 99.435497 174.528 
L 99.539388 295.488 
L 99.552375 295.488 
L 99.66276 235.008 
L 99.779637 295.488 
L 99.792624 295.488 
L 99.870543 235.008 
L 99.903009 295.488 
L 99.909502 295.488 
L 99.980927 235.008 
L 100.019887 295.488 
L 100.04586 295.488 
L 100.123778 235.008 
L 100.156244 295.488 
L 100.20819 295.488 
L 100.214683 174.528 
L 100.318575 295.488 
L 100.377014 295.488 
L 100.461426 235.008 
L 100.487399 295.488 
L 100.519865 295.488 
L 100.526358 235.008 
L 100.630249 295.488 
L 100.81206 295.488 
L 100.818553 235.008 
L 100.922444 295.488 
L 101.045816 295.488 
L 101.052309 235.008 
L 101.1562 295.488 
L 101.786043 295.488 
L 101.792536 235.008 
L 101.896427 295.488 
L 102.006812 295.488 
L 102.013305 235.008 
L 102.117197 295.488 
L 102.630161 295.488 
L 102.636655 235.008 
L 102.740546 295.488 
L 103.188578 295.488 
L 103.27299 235.008 
L 103.298963 295.488 
L 109.22078 295.488 
L 109.233767 174.528 
L 109.337658 235.008 
L 109.454536 295.488 
L 109.474016 295.488 
L 109.519469 114.048 
L 109.584401 295.488 
L 109.610374 295.488 
L 109.64284 174.528 
L 109.727252 235.008 
L 109.733745 235.008 
L 109.759718 174.528 
L 109.84413 295.488 
L 109.870103 174.528 
L 109.954514 295.488 
L 109.967501 295.488 
L 110.032433 53.568 
L 110.084379 174.528 
L 110.201257 295.488 
L 110.233723 114.048 
L 110.311642 295.488 
L 110.350601 295.488 
L 110.441506 235.008 
L 110.460986 295.488 
L 110.525918 295.488 
L 110.59085 235.008 
L 110.636303 295.488 
L 110.642796 295.488 
L 110.720714 235.008 
L 110.753181 295.488 
L 110.766167 295.488 
L 110.863565 235.008 
L 110.876552 295.488 
L 110.889538 295.488 
L 110.941484 235.008 
L 110.999923 295.488 
L 111.071348 295.488 
L 111.110308 174.528 
L 111.181733 295.488 
L 111.188226 295.488 
L 111.279131 235.008 
L 111.298611 295.488 
L 111.408996 295.488 
L 111.415489 235.008 
L 111.519381 295.488 
L 111.564833 295.488 
L 111.610286 235.008 
L 111.675218 295.488 
L 112.116757 295.488 
L 112.12325 235.008 
L 112.227142 295.488 
L 112.240128 295.488 
L 112.246621 235.008 
L 112.350513 295.488 
L 112.597255 295.488 
L 112.603749 235.008 
L 112.70764 295.488 
L 113.123206 295.488 
L 113.129699 235.008 
L 113.233591 295.488 
L 113.389428 295.488 
L 113.395921 235.008 
L 113.499813 295.488 
L 114.149135 295.488 
L 114.155628 235.008 
L 114.25952 295.488 
L 115.623096 295.488 
L 115.675042 174.528 
L 115.733481 295.488 
L 115.739974 295.488 
L 115.8114 174.528 
L 115.850359 235.008 
L 115.941264 295.488 
L 115.876332 114.048 
L 115.960744 235.008 
L 115.967237 235.008 
L 115.986717 174.528 
L 116.084115 295.488 
L 116.200993 235.008 
L 116.207486 235.008 
L 116.291898 174.528 
L 116.226966 295.488 
L 116.311378 235.008 
L 116.35683 174.528 
L 116.428256 295.488 
L 116.441242 174.528 
L 116.545134 235.008 
L 116.662011 295.488 
L 116.752917 235.008 
L 116.772396 295.488 
L 116.798369 295.488 
L 116.902261 235.008 
L 116.908754 295.488 
L 116.954206 295.488 
L 116.9607 174.528 
L 117.064591 295.488 
L 117.097057 295.488 
L 117.194456 235.008 
L 117.207442 295.488 
L 117.213935 295.488 
L 117.30484 235.008 
L 117.32432 295.488 
L 117.467171 295.488 
L 117.473664 235.008 
L 117.577556 295.488 
L 117.7269 295.488 
L 117.804818 235.008 
L 117.837284 295.488 
L 117.843778 295.488 
L 117.850271 235.008 
L 117.954162 295.488 
L 118.051561 295.488 
L 118.058054 174.528 
L 118.161945 295.488 
L 118.207398 295.488 
L 118.213891 174.528 
L 118.317783 235.008 
L 118.434661 295.488 
L 118.441154 295.488 
L 118.525566 235.008 
L 118.551539 295.488 
L 118.571018 295.488 
L 118.577512 235.008 
L 118.681403 295.488 
L 118.746335 295.488 
L 118.752829 235.008 
L 118.85672 295.488 
L 118.960612 295.488 
L 118.967105 235.008 
L 119.070996 295.488 
L 119.467083 295.488 
L 119.473576 235.008 
L 119.577468 295.488 
L 119.967061 295.488 
L 119.973554 235.008 
L 120.077446 295.488 
L 218.319876 295.488 
L 218.391301 174.528 
L 218.430261 235.008 
L 218.436754 235.008 
L 218.521166 295.488 
L 218.508179 114.048 
L 218.547139 235.008 
L 218.553632 235.008 
L 218.657523 295.488 
L 218.715962 114.048 
L 218.767908 295.488 
L 218.793881 295.488 
L 218.891279 235.008 
L 218.904266 295.488 
L 218.962705 295.488 
L 218.975691 174.528 
L 219.079583 235.008 
L 219.105556 174.528 
L 219.189968 295.488 
L 219.306845 235.008 
L 219.423723 295.488 
L 219.573068 295.488 
L 219.657479 235.008 
L 219.683452 295.488 
L 219.702932 295.488 
L 219.709425 174.528 
L 219.813317 235.008 
L 219.81981 235.008 
L 219.936688 295.488 
L 220.053566 295.488 
L 220.092525 235.008 
L 220.163951 295.488 
L 220.196417 295.488 
L 220.306801 235.008 
L 220.423679 295.488 
L 220.514585 295.488 
L 220.521078 235.008 
L 220.624969 295.488 
L 220.728861 295.488 
L 220.839246 235.008 
L 220.956124 295.488 
L 221.358703 295.488 
L 221.397663 235.008 
L 221.469088 295.488 
L 222.969022 295.488 
L 222.975515 235.008 
L 223.079407 295.488 
L 224.871536 295.488 
L 224.878029 235.008 
L 224.98192 295.488 
L 292.894517 295.488 
L 292.946462 174.528 
L 293.004901 235.008 
L 293.069833 114.048 
L 293.108793 295.488 
L 293.141259 174.528 
L 293.219178 295.488 
L 293.251644 295.488 
L 293.349042 235.008 
L 293.362028 295.488 
L 293.375015 295.488 
L 293.452933 235.008 
L 293.4854 295.488 
L 293.491893 295.488 
L 293.511372 174.528 
L 293.602278 295.488 
L 293.615264 295.488 
L 293.660717 174.528 
L 293.732142 235.008 
L 293.745128 114.048 
L 293.84902 295.488 
L 293.881486 295.488 
L 293.939925 114.048 
L 293.991871 295.488 
L 294.024337 295.488 
L 294.063296 174.528 
L 294.134722 295.488 
L 294.173681 295.488 
L 294.2516 235.008 
L 294.284066 295.488 
L 294.297052 295.488 
L 294.41393 235.008 
L 294.530808 295.488 
L 294.99832 295.488 
L 295.095718 235.008 
L 295.108705 295.488 
L 295.115198 295.488 
L 295.121691 235.008 
L 295.225583 295.488 
L 295.407393 295.488 
L 295.420379 235.008 
L 295.517778 295.488 
L 296.426829 295.488 
L 296.433322 235.008 
L 296.537213 295.488 
L 297.563142 295.488 
L 297.569635 235.008 
L 297.673527 295.488 
L 298.257917 295.488 
L 298.26441 235.008 
L 298.368302 295.488 
L 298.64751 295.488 
L 298.654003 235.008 
L 298.757895 295.488 
L 317.484344 295.488 
L 317.588235 174.528 
L 317.601222 235.008 
L 317.627194 174.528 
L 317.711606 295.488 
L 317.744072 174.528 
L 317.821991 295.488 
L 317.841471 295.488 
L 317.893416 174.528 
L 317.951855 235.008 
L 318.055747 295.488 
L 318.06224 235.008 
L 318.075227 235.008 
L 318.192105 295.488 
L 318.308983 174.528 
L 318.425861 295.488 
L 318.438847 295.488 
L 318.529752 235.008 
L 318.549232 295.488 
L 318.562218 295.488 
L 318.594684 174.528 
L 318.679096 235.008 
L 318.795974 295.488 
L 318.899866 295.488 
L 318.977784 235.008 
L 319.01025 295.488 
L 319.068689 295.488 
L 319.081676 235.008 
L 319.179074 295.488 
L 319.276473 295.488 
L 319.308939 174.528 
L 319.386857 295.488 
L 319.529708 295.488 
L 319.627106 235.008 
L 319.640093 295.488 
L 319.984234 295.488 
L 320.101112 235.008 
L 320.19851 295.488 
L 320.159551 174.528 
L 320.211496 235.008 
L 320.21799 235.008 
L 320.250456 174.528 
L 320.328374 295.488 
L 320.438759 114.048 
L 320.445252 235.008 
L 320.451745 235.008 
L 320.471225 174.528 
L 320.568623 295.488 
L 320.588103 295.488 
L 320.685501 235.008 
L 320.698488 295.488 
L 320.717968 295.488 
L 320.841339 174.528 
L 320.951723 295.488 
L 321.029642 235.008 
L 321.062108 295.488 
L 321.068601 295.488 
L 321.075095 174.528 
L 321.178986 295.488 
L 321.185479 295.488 
L 321.204959 174.528 
L 321.295864 295.488 
L 321.302357 295.488 
L 321.412742 235.008 
L 321.52962 295.488 
L 321.5491 295.488 
L 321.652991 174.528 
L 321.659485 295.488 
L 321.665978 295.488 
L 321.724417 174.528 
L 321.776363 295.488 
L 321.867268 295.488 
L 321.964666 53.568 
L 321.977652 235.008 
L 322.081544 295.488 
L 322.010118 174.528 
L 322.088037 235.008 
L 322.09453 235.008 
L 322.11401 174.528 
L 322.211408 295.488 
L 322.224395 295.488 
L 322.308807 174.528 
L 322.341273 235.008 
L 322.367246 174.528 
L 322.451657 295.488 
L 322.542563 235.008 
L 322.562042 295.488 
L 322.601002 295.488 
L 322.67892 174.528 
L 322.711386 295.488 
L 322.737359 295.488 
L 322.750346 174.528 
L 322.847744 295.488 
L 322.893196 295.488 
L 322.984102 235.008 
L 323.003581 295.488 
L 323.042541 295.488 
L 323.113966 235.008 
L 323.152925 295.488 
L 323.165912 295.488 
L 323.172405 235.008 
L 323.276297 295.488 
L 323.386681 295.488 
L 323.393174 174.528 
L 323.497066 295.488 
L 323.536025 295.488 
L 323.549012 174.528 
L 323.64641 295.488 
L 323.66589 295.488 
L 323.776275 235.008 
L 323.893152 295.488 
L 323.906139 295.488 
L 323.932112 235.008 
L 324.016524 295.488 
L 324.178854 295.488 
L 324.25028 235.008 
L 324.289239 295.488 
L 324.438583 295.488 
L 324.445076 174.528 
L 324.548968 295.488 
L 324.574941 295.488 
L 324.581434 235.008 
L 324.685325 295.488 
L 325.048946 295.488 
L 325.055439 235.008 
L 325.159331 295.488 
L 325.17881 295.488 
L 325.185303 235.008 
L 325.289195 295.488 
L 325.58139 295.488 
L 325.587883 235.008 
L 325.691775 295.488 
L 325.808653 295.488 
L 325.815146 235.008 
L 325.919037 295.488 
L 326.542387 295.488 
L 326.54888 235.008 
L 326.652771 295.488 
L 326.71121 295.488 
L 326.717704 235.008 
L 326.821595 295.488 
L 329.386417 295.488 
L 329.39291 235.008 
L 329.496802 295.488 
L 341.236545 295.488 
L 341.262518 114.048 
L 341.34693 295.488 
L 341.359916 295.488 
L 341.450821 114.048 
L 341.470301 295.488 
L 341.483288 295.488 
L 341.593672 114.048 
L 341.71055 295.488 
L 341.814442 235.008 
L 341.820935 295.488 
L 341.846908 295.488 
L 341.853401 53.568 
L 341.957293 295.488 
L 342.074171 235.008 
L 342.158583 174.528 
L 342.191049 295.488 
L 342.197542 295.488 
L 342.236501 235.008 
L 342.307927 295.488 
L 342.333899 295.488 
L 342.431298 174.528 
L 342.444284 295.488 
L 342.619601 295.488 
L 342.736479 235.008 
L 342.853357 295.488 
L 342.885823 295.488 
L 342.983222 174.528 
L 342.996208 295.488 
L 343.178018 295.488 
L 343.288403 235.008 
L 343.405281 295.488 
L 343.411774 295.488 
L 343.470213 235.008 
L 343.522159 295.488 
L 343.619557 295.488 
L 343.736435 235.008 
L 343.853313 295.488 
L 343.950711 295.488 
L 343.957205 235.008 
L 344.061096 295.488 
L 344.177974 295.488 
L 344.242906 235.008 
L 344.288359 295.488 
L 344.418223 295.488 
L 344.509128 235.008 
L 344.528608 295.488 
L 344.898722 295.488 
L 344.957161 235.008 
L 345.009106 295.488 
L 347.437571 295.488 
L 347.502503 174.528 
L 347.547956 295.488 
L 347.554449 295.488 
L 347.651847 174.528 
L 347.664834 235.008 
L 347.775218 295.488 
L 347.788205 174.528 
L 347.885603 295.488 
L 347.89859 295.488 
L 347.918069 174.528 
L 348.008974 235.008 
L 348.125852 295.488 
L 348.203771 235.008 
L 348.236237 295.488 
L 348.249224 295.488 
L 348.26221 235.008 
L 348.359608 295.488 
L 348.372595 295.488 
L 348.418047 174.528 
L 348.489473 235.008 
L 348.599858 295.488 
L 348.697256 235.008 
L 348.710242 295.488 
L 348.723229 295.488 
L 348.755695 174.528 
L 348.840107 235.008 
L 348.86608 174.528 
L 348.956985 295.488 
L 348.982958 295.488 
L 349.086849 235.008 
L 349.093342 295.488 
L 349.145288 295.488 
L 349.262166 235.008 
L 349.379044 295.488 
L 349.625786 295.488 
L 349.684225 174.528 
L 349.736171 295.488 
L 349.807597 295.488 
L 349.81409 235.008 
L 349.917981 295.488 
L 350.073819 295.488 
L 350.171217 235.008 
L 350.184203 295.488 
L 350.190697 295.488 
L 350.242642 235.008 
L 350.301081 295.488 
L 350.314068 295.488 
L 350.320561 235.008 
L 350.424453 295.488 
L 350.528344 295.488 
L 350.534837 235.008 
L 350.638729 295.488 
L 351.976332 295.488 
L 351.982826 235.008 
L 352.086717 295.488 
L 358.566951 295.488 
L 358.592924 53.568 
L 358.683829 114.048 
L 358.690323 114.048 
L 358.800707 295.488 
L 358.807201 53.568 
L 358.911092 295.488 
L 358.989011 174.528 
L 359.021477 235.008 
L 359.112382 295.488 
L 359.092902 53.568 
L 359.131862 235.008 
L 359.138355 235.008 
L 359.157835 174.528 
L 359.255233 295.488 
L 359.346138 174.528 
L 359.365618 295.488 
L 359.378604 295.488 
L 359.443536 114.048 
L 359.495482 174.528 
L 359.61236 295.488 
L 359.618853 295.488 
L 359.625346 114.048 
L 359.729238 295.488 
L 359.755211 174.528 
L 359.839623 235.008 
L 359.852609 174.528 
L 359.950007 295.488 
L 360.060392 174.528 
L 360.066885 235.008 
L 360.17727 295.488 
L 360.287655 235.008 
L 360.404533 295.488 
L 360.449985 295.488 
L 360.469465 174.528 
L 360.56037 235.008 
L 360.670755 295.488 
L 360.722701 235.008 
L 360.78114 295.488 
L 360.794126 295.488 
L 360.846072 235.008 
L 360.904511 295.488 
L 361.034375 295.488 
L 361.131774 235.008 
L 361.14476 295.488 
L 361.157747 295.488 
L 361.248652 235.008 
L 361.268131 295.488 
L 361.281118 295.488 
L 361.287611 235.008 
L 361.391502 295.488 
L 361.651231 295.488 
L 361.657724 235.008 
L 361.761616 295.488 
L 364.352411 295.488 
L 364.358904 235.008 
L 364.462796 295.488 
L 398.487273 295.488 
L 398.487273 295.488 
" clip-path="url(#p806eaf16c9)" style="fill: none; stroke: #ff7f0e; stroke-opacity: 0.7; stroke-width: 1.5; stroke-linecap: square"/>
   </g>
   <g id="patch_3">
    <path d="M 57.6 307.584 
L 57.6 41.472 
" style="fill: none; stroke: #000000; stroke-width: 0.8; stroke-linejoin: miter; stroke-linecap: square"/>
   </g>
   <g id="patch_4">
    <path d="M 414.72 307.584 
L 414.72 41.472 
" style="fill: none; stroke: #000000; stroke-width: 0.8; stroke-linejoin: miter; stroke-linecap: square"/>
   </g>
   <g id="patch_5">
    <path d="M 57.6 307.584 
L 414.72 307.584 
" style="fill: none; stroke: #000000; stroke-width: 0.8; stroke-linejoin: miter; stroke-linecap: square"/>
   </g>
   <g id="patch_6">
    <path d="M 57.6 41.472 
L 414.72 41.472 
" style="fill: none; stroke: #000000; stroke-width: 0.8; stroke-linejoin: miter; stroke-linecap: square"/>
   </g>
   <g id="legend_1">
    <g id="patch_7">
     <path d="M 211.86 78.82825 
L 260.46 78.82825 
Q 262.46 78.82825 262.46 76.82825 
L 262.46 48.472 
Q 262.46 46.472 260.46 46.472 
L 211.86 46.472 
Q 209.86 46.472 209.86 48.472 
L 209.86 76.82825 
Q 209.86 78.82825 211.86 78.82825 
z
" style="fill: #ffffff; opacity: 0.8; stroke: #cccccc; stroke-linejoin: miter"/>
    </g>
    <g id="line2d_18">
     <path d="M 213.86 54.570437 
L 223.86 54.570437 
L 233.86 54.570437 
" style="fill: none; stroke: #1f77b4; stroke-width: 1.5; stroke-linecap: square"/>
    </g>
    <g id="text_18">
     <!-- $v^{(1)}$ -->
     <g transform="translate(241.86 58.070437) scale(0.1 -0.1)">
      <defs>
       <path id="DejaVuSans-28" d="M 1984 4856 
Q 1566 4138 1362 3434 
Q 1159 2731 1159 2009 
Q 1159 1288 1364 580 
Q 1569 -128 1984 -844 
L 1484 -844 
Q 1016 -109 783 600 
Q 550 1309 550 2009 
Q 550 2706 781 3412 
Q 1013 4119 1484 4856 
L 1984 4856 
z
" transform="scale(0.015625)"/>
       <path id="DejaVuSans-29" d="M 513 4856 
L 1013 4856 
Q 1481 4119 1714 3412 
Q 1947 2706 1947 2009 
Q 1947 1309 1714 600 
Q 1481 -109 1013 -844 
L 513 -844 
Q 928 -128 1133 580 
Q 1338 1288 1338 2009 
Q 1338 2731 1133 3434 
Q 928 4138 513 4856 
z
" transform="scale(0.015625)"/>
      </defs>
      <use xlink:href="#DejaVuSans-Oblique-76" transform="translate(0 0.60625)"/>
      <use xlink:href="#DejaVuSans-28" transform="translate(63.645833 38.8875) scale(0.7)"/>
      <use xlink:href="#DejaVuSans-31" transform="translate(90.955404 38.8875) scale(0.7)"/>
      <use xlink:href="#DejaVuSans-29" transform="translate(135.491536 38.8875) scale(0.7)"/>
     </g>
    </g>
    <g id="line2d_19">
     <path d="M 213.86 69.248562 
L 223.86 69.248562 
L 233.86 69.248562 
" style="fill: none; stroke: #ff7f0e; stroke-opacity: 0.7; stroke-width: 1.5; stroke-linecap: square"/>
    </g>
    <g id="text_19">
     <!-- $v^{(2)}$ -->
     <g transform="translate(241.86 72.748562) scale(0.1 -0.1)">
      <use xlink:href="#DejaVuSans-Oblique-76" transform="translate(0 0.60625)"/>
      <use xlink:href="#DejaVuSans-28" transform="translate(63.645833 38.8875) scale(0.7)"/>
      <use xlink:href="#DejaVuSans-32" transform="translate(90.955404 38.8875) scale(0.7)"/>
      <use xlink:href="#DejaVuSans-29" transform="translate(135.491536 38.8875) scale(0.7)"/>
     </g>
    </g>
   </g>
  </g>
 </g>
 <defs>
  <clipPath id="p806eaf16c9">
   <rect x="57.6" y="41.472" width="357.12" height="266.112"/>
  </clipPath>
 </defs>
</svg>
