<?xml version="1.0" encoding="utf-8" standalone="no"?>
<!DOCTYPE svg PUBLIC "-//W3C//DTD SVG 1.1//EN"
  "http://www.w3.org/Graphics/SVG/1.1/DTD/svg11.dtd">
<svg xmlns:xlink="http://www.w3.org/1999/xlink" width="460.8pt" height="345.6pt" viewBox="0 0 460.8 345.6" xmlns="http://www.w3.org/2000/svg" version="1.1">
 <metadata>
  <rdf:RDF xmlns:dc="http://purl.org/dc/elements/1.1/" xmlns:cc="http://creativecommons.org/ns#" xmlns:rdf="http://www.w3.org/1999/02/22-rdf-syntax-ns#">
   <cc:Work>
    <dc:type rdf:resource="http://purl.org/dc/dcmitype/StillImage"/>
    <dc:date>2025-05-27T15:42:31.545809</dc:date>
    <dc:format>image/svg+xml</dc:format>
    <dc:creator>
     <cc:Agent>
      <dc:title>Matplotlib v3.9.2, https://matplotlib.org/</dc:title>
     </cc:Agent>
    </dc:creator>
   </cc:Work>
  </rdf:RDF>
 </metadata>
 <defs>
  <style type="text/css">*{stroke-linejoin: round; stroke-linecap: butt}</style>
 </defs>
 <g id="figure_1">
  <g id="patch_1">
   <path d="M 0 345.6 
L 460.8 345.6 
L 460.8 0 
L 0 0 
z
" style="fill: #ffffff"/>
  </g>
  <g id="axes_1">
   <g id="patch_2">
    <path d="M 57.6 307.584 
L 414.72 307.584 
L 414.72 41.472 
L 57.6 41.472 
z
" style="fill: #ffffff"/>
   </g>
   <g id="matplotlib.axis_1">
    <g id="xtick_1">
     <g id="line2d_1">
      <defs>
       <path id="m2a927ea34a" d="M 0 0 
L 0 3.5 
" style="stroke: #000000; stroke-width: 0.8"/>
      </defs>
      <g>
       <use xlink:href="#m2a927ea34a" x="73.832727" y="307.584" style="stroke: #000000; stroke-width: 0.8"/>
      </g>
     </g>
     <g id="text_1">
      <!-- 0.00000 -->
      <g transform="translate(53.156165 322.182437) scale(0.1 -0.1)">
       <defs>
        <path id="DejaVuSans-30" d="M 2034 4250 
Q 1547 4250 1301 3770 
Q 1056 3291 1056 2328 
Q 1056 1369 1301 889 
Q 1547 409 2034 409 
Q 2525 409 2770 889 
Q 3016 1369 3016 2328 
Q 3016 3291 2770 3770 
Q 2525 4250 2034 4250 
z
M 2034 4750 
Q 2819 4750 3233 4129 
Q 3647 3509 3647 2328 
Q 3647 1150 3233 529 
Q 2819 -91 2034 -91 
Q 1250 -91 836 529 
Q 422 1150 422 2328 
Q 422 3509 836 4129 
Q 1250 4750 2034 4750 
z
" transform="scale(0.015625)"/>
        <path id="DejaVuSans-2e" d="M 684 794 
L 1344 794 
L 1344 0 
L 684 0 
L 684 794 
z
" transform="scale(0.015625)"/>
       </defs>
       <use xlink:href="#DejaVuSans-30"/>
       <use xlink:href="#DejaVuSans-2e" x="63.623047"/>
       <use xlink:href="#DejaVuSans-30" x="95.410156"/>
       <use xlink:href="#DejaVuSans-30" x="159.033203"/>
       <use xlink:href="#DejaVuSans-30" x="222.65625"/>
       <use xlink:href="#DejaVuSans-30" x="286.279297"/>
       <use xlink:href="#DejaVuSans-30" x="349.902344"/>
      </g>
     </g>
    </g>
    <g id="xtick_2">
     <g id="line2d_2">
      <g>
       <use xlink:href="#m2a927ea34a" x="138.764935" y="307.584" style="stroke: #000000; stroke-width: 0.8"/>
      </g>
     </g>
     <g id="text_2">
      <!-- 0.00002 -->
      <g transform="translate(118.088373 322.182437) scale(0.1 -0.1)">
       <defs>
        <path id="DejaVuSans-32" d="M 1228 531 
L 3431 531 
L 3431 0 
L 469 0 
L 469 531 
Q 828 903 1448 1529 
Q 2069 2156 2228 2338 
Q 2531 2678 2651 2914 
Q 2772 3150 2772 3378 
Q 2772 3750 2511 3984 
Q 2250 4219 1831 4219 
Q 1534 4219 1204 4116 
Q 875 4013 500 3803 
L 500 4441 
Q 881 4594 1212 4672 
Q 1544 4750 1819 4750 
Q 2544 4750 2975 4387 
Q 3406 4025 3406 3419 
Q 3406 3131 3298 2873 
Q 3191 2616 2906 2266 
Q 2828 2175 2409 1742 
Q 1991 1309 1228 531 
z
" transform="scale(0.015625)"/>
       </defs>
       <use xlink:href="#DejaVuSans-30"/>
       <use xlink:href="#DejaVuSans-2e" x="63.623047"/>
       <use xlink:href="#DejaVuSans-30" x="95.410156"/>
       <use xlink:href="#DejaVuSans-30" x="159.033203"/>
       <use xlink:href="#DejaVuSans-30" x="222.65625"/>
       <use xlink:href="#DejaVuSans-30" x="286.279297"/>
       <use xlink:href="#DejaVuSans-32" x="349.902344"/>
      </g>
     </g>
    </g>
    <g id="xtick_3">
     <g id="line2d_3">
      <g>
       <use xlink:href="#m2a927ea34a" x="203.697143" y="307.584" style="stroke: #000000; stroke-width: 0.8"/>
      </g>
     </g>
     <g id="text_3">
      <!-- 0.00004 -->
      <g transform="translate(183.02058 322.182437) scale(0.1 -0.1)">
       <defs>
        <path id="DejaVuSans-34" d="M 2419 4116 
L 825 1625 
L 2419 1625 
L 2419 4116 
z
M 2253 4666 
L 3047 4666 
L 3047 1625 
L 3713 1625 
L 3713 1100 
L 3047 1100 
L 3047 0 
L 2419 0 
L 2419 1100 
L 313 1100 
L 313 1709 
L 2253 4666 
z
" transform="scale(0.015625)"/>
       </defs>
       <use xlink:href="#DejaVuSans-30"/>
       <use xlink:href="#DejaVuSans-2e" x="63.623047"/>
       <use xlink:href="#DejaVuSans-30" x="95.410156"/>
       <use xlink:href="#DejaVuSans-30" x="159.033203"/>
       <use xlink:href="#DejaVuSans-30" x="222.65625"/>
       <use xlink:href="#DejaVuSans-30" x="286.279297"/>
       <use xlink:href="#DejaVuSans-34" x="349.902344"/>
      </g>
     </g>
    </g>
    <g id="xtick_4">
     <g id="line2d_4">
      <g>
       <use xlink:href="#m2a927ea34a" x="268.62935" y="307.584" style="stroke: #000000; stroke-width: 0.8"/>
      </g>
     </g>
     <g id="text_4">
      <!-- 0.00006 -->
      <g transform="translate(247.952788 322.182437) scale(0.1 -0.1)">
       <defs>
        <path id="DejaVuSans-36" d="M 2113 2584 
Q 1688 2584 1439 2293 
Q 1191 2003 1191 1497 
Q 1191 994 1439 701 
Q 1688 409 2113 409 
Q 2538 409 2786 701 
Q 3034 994 3034 1497 
Q 3034 2003 2786 2293 
Q 2538 2584 2113 2584 
z
M 3366 4563 
L 3366 3988 
Q 3128 4100 2886 4159 
Q 2644 4219 2406 4219 
Q 1781 4219 1451 3797 
Q 1122 3375 1075 2522 
Q 1259 2794 1537 2939 
Q 1816 3084 2150 3084 
Q 2853 3084 3261 2657 
Q 3669 2231 3669 1497 
Q 3669 778 3244 343 
Q 2819 -91 2113 -91 
Q 1303 -91 875 529 
Q 447 1150 447 2328 
Q 447 3434 972 4092 
Q 1497 4750 2381 4750 
Q 2619 4750 2861 4703 
Q 3103 4656 3366 4563 
z
" transform="scale(0.015625)"/>
       </defs>
       <use xlink:href="#DejaVuSans-30"/>
       <use xlink:href="#DejaVuSans-2e" x="63.623047"/>
       <use xlink:href="#DejaVuSans-30" x="95.410156"/>
       <use xlink:href="#DejaVuSans-30" x="159.033203"/>
       <use xlink:href="#DejaVuSans-30" x="222.65625"/>
       <use xlink:href="#DejaVuSans-30" x="286.279297"/>
       <use xlink:href="#DejaVuSans-36" x="349.902344"/>
      </g>
     </g>
    </g>
    <g id="xtick_5">
     <g id="line2d_5">
      <g>
       <use xlink:href="#m2a927ea34a" x="333.561558" y="307.584" style="stroke: #000000; stroke-width: 0.8"/>
      </g>
     </g>
     <g id="text_5">
      <!-- 0.00008 -->
      <g transform="translate(312.884996 322.182437) scale(0.1 -0.1)">
       <defs>
        <path id="DejaVuSans-38" d="M 2034 2216 
Q 1584 2216 1326 1975 
Q 1069 1734 1069 1313 
Q 1069 891 1326 650 
Q 1584 409 2034 409 
Q 2484 409 2743 651 
Q 3003 894 3003 1313 
Q 3003 1734 2745 1975 
Q 2488 2216 2034 2216 
z
M 1403 2484 
Q 997 2584 770 2862 
Q 544 3141 544 3541 
Q 544 4100 942 4425 
Q 1341 4750 2034 4750 
Q 2731 4750 3128 4425 
Q 3525 4100 3525 3541 
Q 3525 3141 3298 2862 
Q 3072 2584 2669 2484 
Q 3125 2378 3379 2068 
Q 3634 1759 3634 1313 
Q 3634 634 3220 271 
Q 2806 -91 2034 -91 
Q 1263 -91 848 271 
Q 434 634 434 1313 
Q 434 1759 690 2068 
Q 947 2378 1403 2484 
z
M 1172 3481 
Q 1172 3119 1398 2916 
Q 1625 2713 2034 2713 
Q 2441 2713 2670 2916 
Q 2900 3119 2900 3481 
Q 2900 3844 2670 4047 
Q 2441 4250 2034 4250 
Q 1625 4250 1398 4047 
Q 1172 3844 1172 3481 
z
" transform="scale(0.015625)"/>
       </defs>
       <use xlink:href="#DejaVuSans-30"/>
       <use xlink:href="#DejaVuSans-2e" x="63.623047"/>
       <use xlink:href="#DejaVuSans-30" x="95.410156"/>
       <use xlink:href="#DejaVuSans-30" x="159.033203"/>
       <use xlink:href="#DejaVuSans-30" x="222.65625"/>
       <use xlink:href="#DejaVuSans-30" x="286.279297"/>
       <use xlink:href="#DejaVuSans-38" x="349.902344"/>
      </g>
     </g>
    </g>
    <g id="xtick_6">
     <g id="line2d_6">
      <g>
       <use xlink:href="#m2a927ea34a" x="398.493766" y="307.584" style="stroke: #000000; stroke-width: 0.8"/>
      </g>
     </g>
     <g id="text_6">
      <!-- 0.00010 -->
      <g transform="translate(377.817203 322.182437) scale(0.1 -0.1)">
       <defs>
        <path id="DejaVuSans-31" d="M 794 531 
L 1825 531 
L 1825 4091 
L 703 3866 
L 703 4441 
L 1819 4666 
L 2450 4666 
L 2450 531 
L 3481 531 
L 3481 0 
L 794 0 
L 794 531 
z
" transform="scale(0.015625)"/>
       </defs>
       <use xlink:href="#DejaVuSans-30"/>
       <use xlink:href="#DejaVuSans-2e" x="63.623047"/>
       <use xlink:href="#DejaVuSans-30" x="95.410156"/>
       <use xlink:href="#DejaVuSans-30" x="159.033203"/>
       <use xlink:href="#DejaVuSans-30" x="222.65625"/>
       <use xlink:href="#DejaVuSans-31" x="286.279297"/>
       <use xlink:href="#DejaVuSans-30" x="349.902344"/>
      </g>
     </g>
    </g>
    <g id="text_7">
     <!-- $t$ /s -->
     <g transform="translate(228.31 335.860562) scale(0.1 -0.1)">
      <defs>
       <path id="DejaVuSans-Oblique-74" d="M 2706 3500 
L 2619 3053 
L 1472 3053 
L 1100 1153 
Q 1081 1047 1072 975 
Q 1063 903 1063 863 
Q 1063 663 1183 572 
Q 1303 481 1569 481 
L 2150 481 
L 2053 0 
L 1503 0 
Q 991 0 739 200 
Q 488 400 488 806 
Q 488 878 497 964 
Q 506 1050 525 1153 
L 897 3053 
L 409 3053 
L 500 3500 
L 978 3500 
L 1172 4494 
L 1747 4494 
L 1556 3500 
L 2706 3500 
z
" transform="scale(0.015625)"/>
       <path id="DejaVuSans-20" transform="scale(0.015625)"/>
       <path id="DejaVuSans-2f" d="M 1625 4666 
L 2156 4666 
L 531 -594 
L 0 -594 
L 1625 4666 
z
" transform="scale(0.015625)"/>
       <path id="DejaVuSans-73" d="M 2834 3397 
L 2834 2853 
Q 2591 2978 2328 3040 
Q 2066 3103 1784 3103 
Q 1356 3103 1142 2972 
Q 928 2841 928 2578 
Q 928 2378 1081 2264 
Q 1234 2150 1697 2047 
L 1894 2003 
Q 2506 1872 2764 1633 
Q 3022 1394 3022 966 
Q 3022 478 2636 193 
Q 2250 -91 1575 -91 
Q 1294 -91 989 -36 
Q 684 19 347 128 
L 347 722 
Q 666 556 975 473 
Q 1284 391 1588 391 
Q 1994 391 2212 530 
Q 2431 669 2431 922 
Q 2431 1156 2273 1281 
Q 2116 1406 1581 1522 
L 1381 1569 
Q 847 1681 609 1914 
Q 372 2147 372 2553 
Q 372 3047 722 3315 
Q 1072 3584 1716 3584 
Q 2034 3584 2315 3537 
Q 2597 3491 2834 3397 
z
" transform="scale(0.015625)"/>
      </defs>
      <use xlink:href="#DejaVuSans-Oblique-74" transform="translate(0 0.09375)"/>
      <use xlink:href="#DejaVuSans-20" transform="translate(39.208984 0.09375)"/>
      <use xlink:href="#DejaVuSans-2f" transform="translate(70.996094 0.09375)"/>
      <use xlink:href="#DejaVuSans-73" transform="translate(104.6875 0.09375)"/>
     </g>
    </g>
   </g>
   <g id="matplotlib.axis_2">
    <g id="ytick_1">
     <g id="line2d_7">
      <defs>
       <path id="m41374f8ea1" d="M 0 0 
L -3.5 0 
" style="stroke: #000000; stroke-width: 0.8"/>
      </defs>
      <g>
       <use xlink:href="#m41374f8ea1" x="57.6" y="295.488" style="stroke: #000000; stroke-width: 0.8"/>
      </g>
     </g>
     <g id="text_8">
      <!-- 0.0 -->
      <g transform="translate(34.696875 299.287219) scale(0.1 -0.1)">
       <use xlink:href="#DejaVuSans-30"/>
       <use xlink:href="#DejaVuSans-2e" x="63.623047"/>
       <use xlink:href="#DejaVuSans-30" x="95.410156"/>
      </g>
     </g>
    </g>
    <g id="ytick_2">
     <g id="line2d_8">
      <g>
       <use xlink:href="#m41374f8ea1" x="57.6" y="241.428026" style="stroke: #000000; stroke-width: 0.8"/>
      </g>
     </g>
     <g id="text_9">
      <!-- 0.2 -->
      <g transform="translate(34.696875 245.227245) scale(0.1 -0.1)">
       <use xlink:href="#DejaVuSans-30"/>
       <use xlink:href="#DejaVuSans-2e" x="63.623047"/>
       <use xlink:href="#DejaVuSans-32" x="95.410156"/>
      </g>
     </g>
    </g>
    <g id="ytick_3">
     <g id="line2d_9">
      <g>
       <use xlink:href="#m41374f8ea1" x="57.6" y="187.368052" style="stroke: #000000; stroke-width: 0.8"/>
      </g>
     </g>
     <g id="text_10">
      <!-- 0.4 -->
      <g transform="translate(34.696875 191.167271) scale(0.1 -0.1)">
       <use xlink:href="#DejaVuSans-30"/>
       <use xlink:href="#DejaVuSans-2e" x="63.623047"/>
       <use xlink:href="#DejaVuSans-34" x="95.410156"/>
      </g>
     </g>
    </g>
    <g id="ytick_4">
     <g id="line2d_10">
      <g>
       <use xlink:href="#m41374f8ea1" x="57.6" y="133.308078" style="stroke: #000000; stroke-width: 0.8"/>
      </g>
     </g>
     <g id="text_11">
      <!-- 0.6 -->
      <g transform="translate(34.696875 137.107297) scale(0.1 -0.1)">
       <use xlink:href="#DejaVuSans-30"/>
       <use xlink:href="#DejaVuSans-2e" x="63.623047"/>
       <use xlink:href="#DejaVuSans-36" x="95.410156"/>
      </g>
     </g>
    </g>
    <g id="ytick_5">
     <g id="line2d_11">
      <g>
       <use xlink:href="#m41374f8ea1" x="57.6" y="79.248104" style="stroke: #000000; stroke-width: 0.8"/>
      </g>
     </g>
     <g id="text_12">
      <!-- 0.8 -->
      <g transform="translate(34.696875 83.047322) scale(0.1 -0.1)">
       <use xlink:href="#DejaVuSans-30"/>
       <use xlink:href="#DejaVuSans-2e" x="63.623047"/>
       <use xlink:href="#DejaVuSans-38" x="95.410156"/>
      </g>
     </g>
    </g>
    <g id="text_13">
     <!-- $v$ /V -->
     <g transform="translate(28.617188 184.228) rotate(-90) scale(0.1 -0.1)">
      <defs>
       <path id="DejaVuSans-Oblique-76" d="M 459 3500 
L 1069 3500 
L 1581 525 
L 3256 3500 
L 3866 3500 
L 1875 0 
L 1100 0 
L 459 3500 
z
" transform="scale(0.015625)"/>
       <path id="DejaVuSans-56" d="M 1831 0 
L 50 4666 
L 709 4666 
L 2188 738 
L 3669 4666 
L 4325 4666 
L 2547 0 
L 1831 0 
z
" transform="scale(0.015625)"/>
      </defs>
      <use xlink:href="#DejaVuSans-Oblique-76" transform="translate(0 0.09375)"/>
      <use xlink:href="#DejaVuSans-20" transform="translate(59.179688 0.09375)"/>
      <use xlink:href="#DejaVuSans-2f" transform="translate(90.966797 0.09375)"/>
      <use xlink:href="#DejaVuSans-56" transform="translate(124.658203 0.09375)"/>
     </g>
    </g>
   </g>
   <g id="line2d_12">
    <path d="M 73.832727 295.488 
L 76.228726 295.377433 
L 76.33911 294.945156 
L 76.494948 293.147081 
L 76.683251 291.320435 
L 76.715717 291.378935 
L 76.878048 292.041523 
L 76.949473 291.816952 
L 77.066351 291.320435 
L 77.118297 291.476733 
L 77.248161 293.048988 
L 77.50789 295.351432 
L 77.6897 295.484035 
L 78.637711 295.457135 
L 78.754589 295.262837 
L 78.87796 294.442738 
L 79.144182 291.476893 
L 79.222101 291.91335 
L 79.657146 295.460778 
L 79.955834 295.488 
L 80.241536 295.377433 
L 80.351921 294.945156 
L 80.514251 293.055141 
L 80.676582 291.476893 
L 80.715541 291.590765 
L 80.838912 293.055141 
L 81.098641 295.351432 
L 81.280451 295.484035 
L 82.637535 295.488 
L 98.07192 295.389421 
L 98.156332 294.899074 
L 98.247237 292.6496 
L 98.357622 282.461711 
L 98.506966 241.696164 
L 98.792668 159.604027 
L 98.825134 160.478175 
L 98.929026 173.988393 
L 99.253687 213.076175 
L 99.292646 212.798755 
L 99.351085 212.345488 
L 99.390044 212.804705 
L 99.480949 217.799935 
L 99.974434 250.24968 
L 100.221176 260.135012 
L 100.351041 261.253696 
L 100.461426 266.533916 
L 100.870499 288.667424 
L 101.078282 290.395768 
L 101.422422 294.882396 
L 101.467875 294.778213 
L 101.571766 293.773933 
L 101.902921 289.121725 
L 101.974346 289.448492 
L 102.136677 292.024138 
L 102.32498 294.199506 
L 102.357446 294.140829 
L 102.454844 293.246479 
L 102.636655 291.461721 
L 102.682107 291.598542 
L 102.88989 293.367214 
L 102.967809 292.79674 
L 103.234031 287.688932 
L 103.331429 288.909894 
L 103.714529 295.364781 
L 103.896339 295.485481 
L 104.500209 295.408415 
L 104.610594 295.064047 
L 104.753445 293.628575 
L 104.954734 291.476893 
L 105.000187 291.631086 
L 105.136545 293.345727 
L 105.383287 295.36502 
L 105.565097 295.484586 
L 107.116977 295.488 
L 108.714309 295.38394 
L 108.798721 294.960967 
L 108.896119 293.006422 
L 109.012997 284.935955 
L 109.181821 252.959477 
L 109.564921 176.334926 
L 109.577908 176.399671 
L 109.636347 178.561156 
L 110.285669 224.075944 
L 110.649289 258.442635 
L 110.655782 258.448121 
L 110.681755 258.352118 
L 110.844086 257.162615 
L 110.915511 257.491651 
L 111.058362 259.450354 
L 111.19472 265.240173 
L 111.616779 284.945108 
L 111.889494 292.147762 
L 111.934947 291.913041 
L 112.084291 289.050248 
L 112.194676 287.852682 
L 112.240128 288.037832 
L 112.441418 290.014431 
L 112.52583 289.546863 
L 112.68816 288.272361 
L 112.740106 288.470055 
L 112.986849 290.670935 
L 113.09074 290.27348 
L 113.253071 289.708123 
L 113.285537 289.747519 
L 113.376442 290.238227 
L 113.558252 292.927562 
L 113.779021 294.967052 
L 113.785515 294.96468 
L 113.850447 294.723276 
L 113.999791 292.953913 
L 114.155628 291.476893 
L 114.194588 291.590765 
L 114.317959 293.055141 
L 114.577688 295.351432 
L 114.759498 295.484035 
L 115.103639 295.405753 
L 115.18805 295.014084 
L 115.278955 293.253104 
L 115.38934 285.430688 
L 115.538684 253.980989 
L 115.902305 171.635789 
L 115.915291 171.690233 
L 115.99321 173.997148 
L 116.1945 177.698765 
L 116.246445 178.206922 
L 116.330857 182.041405 
L 116.480201 202.133644 
L 116.830835 245.718739 
L 117.363279 271.458085 
L 117.577556 280.18563 
L 117.590542 280.162811 
L 117.655474 279.30879 
L 117.856764 276.291526 
L 117.902217 276.393578 
L 117.960656 276.514113 
L 117.999615 276.376812 
L 118.09052 274.987288 
L 118.408688 266.69615 
L 118.486607 267.974571 
L 118.65543 277.298874 
L 118.941132 288.743085 
L 119.226834 293.051475 
L 119.252807 293.009841 
L 119.350205 292.228262 
L 119.473576 291.411088 
L 119.519029 291.539112 
L 119.726812 293.036528 
L 119.80473 292.651696 
L 119.967061 291.440611 
L 120.0255 291.664704 
L 120.200817 293.982587 
L 120.421586 295.399055 
L 120.616383 295.486422 
L 122.739666 295.452599 
L 122.850051 295.23167 
L 122.960436 294.305035 
L 123.129259 290.340758 
L 123.285097 287.596226 
L 123.324056 287.848675 
L 123.45392 290.905213 
L 123.713649 295.23167 
L 123.888966 295.479053 
L 124.272066 295.443441 
L 124.382451 295.216049 
L 124.505822 294.300005 
L 124.759058 291.476893 
L 124.82399 291.785281 
L 125.323968 295.478591 
L 125.966797 295.488 
L 127.895283 295.377433 
L 128.005668 294.945156 
L 128.167999 293.055141 
L 128.330329 291.476893 
L 128.369289 291.590765 
L 128.49266 293.055141 
L 128.752389 295.351432 
L 128.934199 295.484035 
L 129.317299 295.408415 
L 129.427684 295.064047 
L 129.570534 293.628575 
L 129.771824 291.476893 
L 129.817277 291.631086 
L 129.953634 293.345727 
L 130.200377 295.36502 
L 130.382187 295.47378 
L 130.518545 295.351432 
L 130.628929 294.853002 
L 130.804246 292.669324 
L 130.940604 291.476893 
L 130.986057 291.631086 
L 131.122414 293.345727 
L 131.369157 295.36502 
L 131.550967 295.484586 
L 132.70676 295.460778 
L 132.823638 295.283612 
L 132.940516 294.57419 
L 133.219724 291.476893 
L 133.304136 291.984133 
L 133.713209 295.448511 
L 133.959952 295.488 
L 138.115613 295.377433 
L 138.225998 294.945156 
L 138.388328 293.055141 
L 138.550659 291.476893 
L 138.589618 291.590765 
L 138.712989 293.055141 
L 138.972718 295.351432 
L 139.154528 295.484035 
L 140.511611 295.488 
L 143.680303 295.377433 
L 143.790688 294.942997 
L 143.946525 293.095938 
L 144.225734 290.352447 
L 144.310146 290.352447 
L 144.336118 290.393285 
L 144.427024 290.845102 
L 144.608834 293.401732 
L 144.84259 295.351432 
L 145.0244 295.484035 
L 146.381483 295.488 
L 159.478309 295.37755 
L 159.582201 294.913593 
L 159.712065 292.919041 
L 159.958808 287.567816 
L 160.017247 288.052451 
L 160.536704 295.450572 
L 160.562677 295.443802 
L 160.666569 295.283612 
L 160.783447 294.57419 
L 161.062655 291.476893 
L 161.147067 291.984133 
L 161.55614 295.448511 
L 161.802882 295.488 
L 163.595011 295.377433 
L 163.705396 294.945156 
L 163.867727 293.055141 
L 164.030057 291.476893 
L 164.069016 291.590765 
L 164.192388 293.055141 
L 164.452116 295.351432 
L 164.633927 295.484035 
L 165.99101 295.488 
L 176.536 295.377433 
L 176.646385 294.945156 
L 176.808716 293.055141 
L 176.971046 291.476893 
L 177.010005 291.590765 
L 177.133377 293.055141 
L 177.386612 295.200017 
L 177.445051 295.105168 
L 177.555436 294.293852 
L 177.808672 291.476893 
L 177.873604 291.785281 
L 178.373582 295.478591 
L 179.016411 295.488 
L 180.711141 295.377433 
L 180.821526 294.94119 
L 180.97087 293.169778 
L 181.276051 289.948273 
L 181.33449 290.012226 
L 181.340984 290.031717 
L 181.444875 290.767611 
L 181.95784 295.469503 
L 182.34094 295.488 
L 189.996447 295.377433 
L 190.106832 294.945156 
L 190.269162 293.055141 
L 190.431493 291.476893 
L 190.470452 291.590765 
L 190.593823 293.055141 
L 190.853552 295.351432 
L 191.035362 295.484035 
L 192.197649 295.47179 
L 192.327513 295.320393 
L 192.444391 294.694207 
L 192.736586 291.476893 
L 192.833984 292.137642 
L 193.204098 295.42459 
L 193.411881 295.488 
L 200.560917 295.377433 
L 200.671302 294.942997 
L 200.827139 293.095938 
L 201.106348 290.352447 
L 201.19076 290.352447 
L 201.216732 290.393285 
L 201.307637 290.845102 
L 201.489448 293.401732 
L 201.723204 295.340627 
L 201.814109 295.397368 
L 201.853068 295.352631 
L 201.95696 294.945156 
L 202.11929 293.055141 
L 202.281621 291.476893 
L 202.32058 291.588246 
L 202.443951 293.020201 
L 202.612775 294.486585 
L 202.645241 294.423575 
L 202.742639 293.55748 
L 202.943929 291.476893 
L 202.995875 291.677093 
L 203.164699 293.897152 
L 203.385468 295.388752 
L 203.573772 295.484495 
L 203.788048 295.377433 
L 203.898433 294.945156 
L 204.060763 293.055141 
L 204.223094 291.476893 
L 204.262053 291.590765 
L 204.385424 293.055141 
L 204.645153 295.351432 
L 204.826963 295.484035 
L 206.184046 295.488 
L 208.028121 295.377433 
L 208.138506 294.945156 
L 208.300836 293.055141 
L 208.463167 291.476893 
L 208.502126 291.590765 
L 208.625497 293.055141 
L 208.885226 295.351432 
L 209.067036 295.484035 
L 210.424119 295.488 
L 210.904618 295.377433 
L 211.015003 294.945156 
L 211.177333 293.055141 
L 211.339664 291.476893 
L 211.378623 291.590765 
L 211.501994 293.055141 
L 211.761723 295.351432 
L 211.943533 295.484035 
L 212.443511 295.416905 
L 212.553896 295.098828 
L 212.690254 293.809556 
L 212.90453 291.476893 
L 212.949982 291.631086 
L 213.08634 293.345727 
L 213.333082 295.36502 
L 213.514893 295.484586 
L 215.066772 295.488 
L 217.780939 295.383043 
L 217.86535 294.87255 
L 217.956256 292.51954 
L 218.06664 281.894118 
L 218.215984 239.213134 
L 218.508179 149.519486 
L 218.540645 150.750427 
L 218.644537 167.145761 
L 219.047117 231.628701 
L 219.280873 248.229395 
L 219.469176 259.205509 
L 219.501642 258.793508 
L 219.61852 252.838471 
L 219.741891 248.278044 
L 219.787344 249.074764 
L 220.034086 260.68417 
L 220.144471 258.055811 
L 220.261349 254.993403 
L 220.306801 255.679705 
L 220.417186 262.804834 
L 220.722368 280.90516 
L 220.891191 285.434252 
L 221.085988 290.853936 
L 221.124947 290.547594 
L 221.241825 286.942352 
L 221.384676 283.476776 
L 221.423635 283.863513 
L 221.547007 288.285803 
L 221.806735 295.084577 
L 221.982052 295.474314 
L 222.397619 295.480901 
L 222.553456 295.351432 
L 222.663841 294.853002 
L 222.839158 292.669324 
L 222.975515 291.476893 
L 223.020968 291.631086 
L 223.157325 293.345727 
L 223.404068 295.36502 
L 223.585878 295.484586 
L 224.397531 295.4378 
L 224.507915 295.189842 
L 224.63778 294.146394 
L 224.878029 291.476893 
L 224.936468 291.72857 
L 225.475405 295.473993 
L 225.618256 295.351432 
L 225.728641 294.853002 
L 225.903958 292.669324 
L 226.040315 291.476893 
L 226.085768 291.631086 
L 226.222126 293.345727 
L 226.468868 295.36502 
L 226.650678 295.484586 
L 227.423371 295.431535 
L 227.533756 295.161633 
L 227.663621 294.065711 
L 227.897377 291.476893 
L 227.955816 291.72857 
L 228.494753 295.483402 
L 229.683012 295.488 
L 229.9817 295.377433 
L 230.092085 294.945156 
L 230.254416 293.055141 
L 230.416746 291.476893 
L 230.455706 291.590765 
L 230.579077 293.055141 
L 230.838806 295.351432 
L 231.020616 295.484035 
L 232.377699 295.488 
L 232.838718 295.377433 
L 232.949102 294.945156 
L 233.111433 293.055141 
L 233.273763 291.476893 
L 233.312723 291.590765 
L 233.436094 293.055141 
L 233.695823 295.351432 
L 233.877633 295.484035 
L 235.234716 295.488 
L 238.169652 295.385337 
L 238.280037 294.952353 
L 238.416394 293.209218 
L 238.695603 288.480266 
L 238.754042 288.804546 
L 238.909879 291.83728 
L 239.169608 295.252032 
L 239.351418 295.479821 
L 239.59816 295.408415 
L 239.708545 295.064047 
L 239.851396 293.628575 
L 240.052686 291.476893 
L 240.098138 291.631086 
L 240.234496 293.345727 
L 240.481238 295.36502 
L 240.663049 295.484586 
L 241.052642 295.408415 
L 241.163027 295.064047 
L 241.305877 293.628575 
L 241.507167 291.476893 
L 241.55262 291.631086 
L 241.688977 293.345727 
L 241.93572 295.36502 
L 242.11753 295.484586 
L 243.66941 295.488 
L 243.922645 295.377433 
L 244.03303 294.945156 
L 244.195361 293.055141 
L 244.357691 291.476893 
L 244.396651 291.590765 
L 244.520022 293.055141 
L 244.779751 295.351432 
L 244.961561 295.484035 
L 246.188779 295.477195 
L 246.33163 295.336585 
L 246.448508 294.749942 
L 246.747196 291.476893 
L 246.851088 292.219709 
L 247.201722 295.408415 
L 247.396519 295.486654 
L 247.948442 295.488 
L 249.299032 295.384872 
L 249.402924 294.964799 
L 249.532788 293.174557 
L 249.79901 287.820179 
L 249.863942 288.410423 
L 250.376907 295.467344 
L 250.721048 295.488 
L 252.733946 295.377433 
L 252.844331 294.945156 
L 253.006661 293.055141 
L 253.168992 291.476893 
L 253.207951 291.590765 
L 253.331322 293.055141 
L 253.591051 295.351432 
L 253.772861 295.484035 
L 254.240373 295.416905 
L 254.350758 295.098828 
L 254.487116 293.809556 
L 254.701392 291.476893 
L 254.746844 291.631086 
L 254.889695 293.420147 
L 255.058519 294.774652 
L 255.090985 294.719993 
L 255.188383 293.938028 
L 255.415646 291.476893 
L 255.474085 291.72857 
L 256.013023 295.483402 
L 257.201282 295.488 
L 260.668662 295.377433 
L 260.779047 294.945156 
L 260.941377 293.055141 
L 261.103708 291.476893 
L 261.142667 291.590765 
L 261.266038 293.055141 
L 261.525767 295.348913 
L 261.655631 295.436122 
L 261.681604 295.41749 
L 261.785496 295.161633 
L 261.91536 294.065711 
L 262.149116 291.476893 
L 262.207555 291.72857 
L 262.668574 295.433165 
L 262.733506 295.3826 
L 262.837398 295.026896 
L 262.986742 293.441221 
L 263.175045 291.476893 
L 263.220498 291.631086 
L 263.356855 293.345727 
L 263.603598 295.36502 
L 263.785408 295.484586 
L 264.084096 295.399055 
L 264.194481 295.026896 
L 264.343825 293.441221 
L 264.532128 291.476893 
L 264.577581 291.631086 
L 264.713938 293.345727 
L 264.960681 295.36502 
L 265.142491 295.484586 
L 266.694371 295.488 
L 267.687833 295.377433 
L 267.798218 294.945156 
L 267.960549 293.055141 
L 268.122879 291.476893 
L 268.161839 291.590765 
L 268.28521 293.055141 
L 268.544939 295.351432 
L 268.726749 295.484035 
L 269.642293 295.45306 
L 269.759171 295.240348 
L 269.882542 294.372763 
L 270.142271 291.476893 
L 270.213696 291.846968 
L 270.674715 295.467344 
L 270.850032 295.408415 
L 270.960417 295.064047 
L 271.103268 293.628575 
L 271.304557 291.476893 
L 271.35001 291.631086 
L 271.486368 293.345727 
L 271.73311 295.36502 
L 271.91492 295.484586 
L 273.4668 295.488 
L 283.784528 295.377433 
L 283.894913 294.945156 
L 284.057243 293.055141 
L 284.219574 291.476893 
L 284.258533 291.590765 
L 284.381904 293.055141 
L 284.641633 295.351432 
L 284.823443 295.484035 
L 286.180526 295.488 
L 292.368566 295.384505 
L 292.452977 294.894465 
L 292.543883 292.68594 
L 292.654267 282.923566 
L 292.803611 244.468264 
L 293.08282 168.917825 
L 293.115286 169.809896 
L 293.238657 184.385023 
L 293.504879 206.213559 
L 293.543839 206.589735 
L 293.595784 206.064667 
L 293.719156 203.813142 
L 293.771101 204.559157 
L 293.887979 211.580946 
L 294.348998 258.164631 
L 294.706125 291.356507 
L 294.751578 291.82111 
L 294.803523 291.299784 
L 294.939881 286.160197 
L 295.225583 277.399078 
L 295.271035 277.261547 
L 295.316488 277.475406 
L 295.407393 279.378052 
L 295.900878 295.20731 
L 295.96581 295.033165 
L 296.076195 293.867849 
L 296.394363 287.623366 
L 296.498254 288.431407 
L 297.108617 295.011522 
L 297.154069 295.092708 
L 297.206015 294.97344 
L 297.309907 293.89927 
L 297.608595 287.69353 
L 297.705993 288.899089 
L 297.978708 293.967314 
L 298.024161 293.792699 
L 298.212464 291.566858 
L 298.296876 291.198298 
L 298.348822 291.298993 
L 298.4657 291.581796 
L 298.517646 291.481329 
L 298.62803 291.201541 
L 298.673483 291.338062 
L 298.790361 292.64825 
L 299.076063 295.351432 
L 299.257873 295.484035 
L 300.614956 295.488 
L 309.530148 295.377433 
L 309.640533 294.945156 
L 309.802863 293.055141 
L 309.965194 291.476893 
L 310.004153 291.590765 
L 310.127524 293.055141 
L 310.387253 295.351432 
L 310.569063 295.484035 
L 311.926147 295.488 
L 314.737711 295.377433 
L 314.848096 294.945156 
L 315.003933 293.148989 
L 315.185743 291.366728 
L 315.224703 291.45193 
L 315.393526 292.306304 
L 315.464952 292.067142 
L 315.60131 291.366728 
L 315.653255 291.540565 
L 315.796106 293.343208 
L 316.042849 295.36502 
L 316.224659 295.484586 
L 316.938913 295.433578 
L 317.029818 295.10229 
L 317.120723 293.602066 
L 317.224615 287.332862 
L 317.367466 261.441717 
L 317.705113 192.921653 
L 317.731086 193.174647 
L 317.834977 198.008279 
L 318.179118 212.519538 
L 318.28301 215.909594 
L 318.44534 231.643135 
L 318.834933 265.583471 
L 319.003757 269.01043 
L 319.023237 268.972059 
L 319.094662 268.128505 
L 319.341405 262.597366 
L 319.425817 263.646688 
L 319.588147 269.914535 
L 319.802423 280.900305 
L 319.860862 279.177439 
L 319.964754 264.676873 
L 320.393306 159.190428 
L 320.497198 168.67359 
L 320.873805 233.674298 
L 320.951723 231.851237 
L 321.094574 228.111247 
L 321.14652 228.699119 
L 321.263398 234.528778 
L 321.52962 252.052851 
L 321.588059 250.306371 
L 321.698444 235.70117 
L 322.029598 159.909709 
L 322.126996 168.173331 
L 322.51659 212.338722 
L 322.529576 212.303901 
L 322.588015 210.842695 
L 322.711386 206.933343 
L 322.763332 208.139298 
L 322.88021 219.901715 
L 323.230844 261.768986 
L 323.269803 261.100829 
L 323.419147 251.904592 
L 323.529532 248.493098 
L 323.574985 249.029513 
L 323.704849 254.760213 
L 324.094442 278.814055 
L 324.178854 277.623531 
L 324.41261 271.930984 
L 324.471049 272.584072 
L 324.587927 278.187389 
L 324.867136 291.113485 
L 324.886615 291.06435 
L 324.971027 289.915633 
L 325.126864 287.998294 
L 325.165824 288.176888 
L 325.321661 290.539312 
L 325.412566 291.202041 
L 325.464512 291.012441 
L 325.698268 289.180817 
L 325.776187 289.538663 
L 325.938517 292.090444 
L 326.178766 294.841942 
L 326.191753 294.834336 
L 326.256685 294.523864 
L 326.393042 292.407935 
L 326.633292 288.480266 
L 326.672251 288.626117 
L 326.782636 290.362993 
L 327.11379 295.274203 
L 327.2956 295.480901 
L 328.113746 295.488 
L 328.944878 295.384872 
L 329.04877 294.964799 
L 329.178634 293.174557 
L 329.444856 287.820179 
L 329.509788 288.408265 
L 329.827956 294.281331 
L 329.925355 293.680491 
L 330.139631 291.475547 
L 330.19807 291.72857 
L 330.646102 295.422195 
L 330.717528 295.35792 
L 330.821419 294.939003 
L 330.970763 293.138796 
L 331.275945 289.662677 
L 331.282438 289.664355 
L 331.340877 289.832866 
L 331.464248 291.140984 
L 331.847348 295.388752 
L 332.035651 295.485841 
L 334.39269 295.488 
L 336.814662 295.377433 
L 336.925047 294.945156 
L 337.087377 293.055141 
L 337.249708 291.476893 
L 337.288667 291.590765 
L 337.412038 293.055141 
L 337.671767 295.351432 
L 337.853577 295.484035 
L 339.022357 295.47179 
L 339.152221 295.320393 
L 339.269099 294.694207 
L 339.561294 291.475547 
L 339.658693 292.125253 
L 339.885955 294.402311 
L 339.937901 294.237938 
L 340.074259 292.642102 
L 340.210616 291.475547 
L 340.256069 291.631086 
L 340.392426 293.345727 
L 340.632676 295.325112 
L 340.678128 295.343801 
L 340.717088 295.261943 
L 340.795006 294.583078 
L 340.892404 291.052336 
L 341.009282 276.164117 
L 341.197586 213.788751 
L 341.457315 151.880331 
L 341.470301 151.793272 
L 341.502767 152.620021 
L 341.613152 163.642343 
L 342.424805 261.981216 
L 342.483244 262.544001 
L 342.535189 262.115258 
L 342.717 259.60185 
L 342.775438 260.019162 
L 342.937769 263.857883 
L 343.119579 266.814063 
L 343.152045 266.698625 
L 343.275416 265.791656 
L 343.333855 266.200318 
L 343.450733 269.836283 
L 343.885779 283.767941 
L 344.022137 285.399901 
L 344.061096 285.289469 
L 344.190961 283.825013 
L 344.522115 280.613504 
L 344.535101 280.624954 
L 344.600034 280.992697 
L 344.911708 285.037775 
L 345.119491 291.200794 
L 345.353247 295.193321 
L 345.528564 295.477301 
L 346.086981 295.488 
L 346.606439 295.377433 
L 346.716824 294.945156 
L 346.872661 293.102826 
L 347.11291 287.405851 
L 347.229788 274.844122 
L 347.411598 222.292451 
L 347.638861 175.097562 
L 347.651847 175.168512 
L 347.710286 178.446565 
L 348.307663 224.210483 
L 348.359608 224.69403 
L 348.411554 224.262307 
L 348.541419 222.684395 
L 348.593364 223.1329 
L 348.703749 227.134523 
L 348.885559 243.627758 
L 349.340085 285.385242 
L 349.405017 286.416075 
L 349.456963 285.740495 
L 349.619293 278.408722 
L 349.716691 276.199775 
L 349.762144 276.718329 
L 349.956941 281.549302 
L 350.034859 280.48464 
L 350.203683 276.712513 
L 350.262122 277.370342 
L 350.424453 283.773523 
L 350.7621 293.844637 
L 350.969883 295.376087 
L 351.1452 295.484586 
L 351.5283 295.408415 
L 351.638685 295.064047 
L 351.781536 293.628575 
L 351.982826 291.476893 
L 352.028278 291.631086 
L 352.164636 293.345727 
L 352.411378 295.354215 
L 352.502283 295.400619 
L 352.534749 295.365044 
L 352.638641 294.987292 
L 352.794478 293.249363 
L 352.969795 291.476893 
L 353.008754 291.590765 
L 353.132126 293.055141 
L 353.391854 295.347467 
L 353.508732 295.427231 
L 353.541199 295.400236 
L 353.64509 295.098828 
L 353.781448 293.809556 
L 353.995724 291.476893 
L 354.041177 291.631086 
L 354.177534 293.345727 
L 354.424277 295.36502 
L 354.606087 295.484586 
L 356.157967 295.488 
L 356.450161 295.377433 
L 356.560546 294.945156 
L 356.722877 293.055141 
L 356.885207 291.476893 
L 356.924167 291.590765 
L 357.047538 293.055141 
L 357.307267 295.351432 
L 357.489077 295.484035 
L 357.989055 295.425253 
L 358.066973 295.102882 
L 358.151385 293.56364 
L 358.248784 286.509441 
L 358.372155 255.846778 
L 358.592924 121.253136 
L 358.800707 53.568 
L 358.807201 53.613939 
L 358.859146 56.934842 
L 359.482496 136.13611 
L 359.865596 196.357708 
L 360.008446 204.147428 
L 360.391546 229.566527 
L 360.495438 231.924024 
L 360.631796 242.372123 
L 360.988923 271.579015 
L 361.001909 271.563774 
L 361.099308 270.654507 
L 361.131774 270.539309 
L 361.170733 270.849204 
L 361.261638 274.049128 
L 361.677204 291.003708 
L 362.099264 295.278185 
L 362.157702 295.181109 
L 362.268087 294.439324 
L 362.534309 291.476893 
L 362.612228 291.91335 
L 363.047274 295.460778 
L 363.345962 295.488 
L 363.923859 295.377433 
L 364.034243 294.945156 
L 364.196574 293.055141 
L 364.358904 291.476893 
L 364.397864 291.590765 
L 364.521235 293.055141 
L 364.780964 295.351432 
L 364.962774 295.484035 
L 366.16402 295.475611 
L 366.300377 295.336585 
L 366.417255 294.749942 
L 366.715943 291.476893 
L 366.819835 292.219709 
L 367.170469 295.408415 
L 367.365266 295.486654 
L 367.917189 295.488 
L 371.261198 295.377433 
L 371.371583 294.945156 
L 371.533913 293.055141 
L 371.696244 291.476893 
L 371.735203 291.590765 
L 371.858574 293.055141 
L 372.118303 295.351432 
L 372.300113 295.484035 
L 373.657196 295.488 
L 381.975012 295.377433 
L 382.085397 294.945156 
L 382.247728 293.055141 
L 382.410058 291.476893 
L 382.449017 291.590765 
L 382.572389 293.055141 
L 382.832117 295.351432 
L 383.013928 295.484035 
L 383.994404 295.457135 
L 384.111282 295.262837 
L 384.234653 294.442738 
L 384.500875 291.476893 
L 384.578794 291.912004 
L 384.864496 294.835266 
L 384.935921 294.58364 
L 385.091758 292.664001 
L 385.228116 291.476893 
L 385.273568 291.631086 
L 385.409926 293.345727 
L 385.656668 295.36502 
L 385.838479 295.484586 
L 387.390358 295.488 
L 389.098075 295.377433 
L 389.20846 294.945156 
L 389.370791 293.055141 
L 389.533121 291.476893 
L 389.572081 291.590765 
L 389.695452 293.055141 
L 389.955181 295.351432 
L 390.136991 295.484035 
L 391.494074 295.488 
L 393.227764 295.377433 
L 393.338149 294.945156 
L 393.500479 293.055141 
L 393.66281 291.476893 
L 393.701769 291.590765 
L 393.82514 293.044335 
L 394.02643 294.804959 
L 394.052403 294.76213 
L 394.143308 294.096194 
L 394.383557 291.476893 
L 394.448489 291.785281 
L 394.948467 295.478591 
L 395.591296 295.488 
L 396.974352 295.377433 
L 397.084737 294.945156 
L 397.247068 293.055141 
L 397.409398 291.476893 
L 397.448357 291.590765 
L 397.571729 293.055141 
L 397.831457 295.351432 
L 398.013268 295.484035 
L 398.487273 295.488 
L 398.487273 295.488 
" clip-path="url(#p6e02e6850c)" style="fill: none; stroke: #1f77b4; stroke-opacity: 0.7; stroke-width: 1.5; stroke-linecap: square"/>
   </g>
   <g id="patch_3">
    <path d="M 57.6 307.584 
L 57.6 41.472 
" style="fill: none; stroke: #000000; stroke-width: 0.8; stroke-linejoin: miter; stroke-linecap: square"/>
   </g>
   <g id="patch_4">
    <path d="M 414.72 307.584 
L 414.72 41.472 
" style="fill: none; stroke: #000000; stroke-width: 0.8; stroke-linejoin: miter; stroke-linecap: square"/>
   </g>
   <g id="patch_5">
    <path d="M 57.6 307.584 
L 414.72 307.584 
" style="fill: none; stroke: #000000; stroke-width: 0.8; stroke-linejoin: miter; stroke-linecap: square"/>
   </g>
   <g id="patch_6">
    <path d="M 57.6 41.472 
L 414.72 41.472 
" style="fill: none; stroke: #000000; stroke-width: 0.8; stroke-linejoin: miter; stroke-linecap: square"/>
   </g>
   <g id="legend_1">
    <g id="patch_7">
     <path d="M 64.6 64.150125 
L 113.2 64.150125 
Q 115.2 64.150125 115.2 62.150125 
L 115.2 48.472 
Q 115.2 46.472 113.2 46.472 
L 64.6 46.472 
Q 62.6 46.472 62.6 48.472 
L 62.6 62.150125 
Q 62.6 64.150125 64.6 64.150125 
z
" style="fill: #ffffff; opacity: 0.8; stroke: #cccccc; stroke-linejoin: miter"/>
    </g>
    <g id="line2d_13">
     <path d="M 66.6 54.570438 
L 76.6 54.570438 
L 86.6 54.570438 
" style="fill: none; stroke: #1f77b4; stroke-opacity: 0.7; stroke-width: 1.5; stroke-linecap: square"/>
    </g>
    <g id="text_14">
     <!-- $v^{(4)}$ -->
     <g transform="translate(94.6 58.070438) scale(0.1 -0.1)">
      <defs>
       <path id="DejaVuSans-28" d="M 1984 4856 
Q 1566 4138 1362 3434 
Q 1159 2731 1159 2009 
Q 1159 1288 1364 580 
Q 1569 -128 1984 -844 
L 1484 -844 
Q 1016 -109 783 600 
Q 550 1309 550 2009 
Q 550 2706 781 3412 
Q 1013 4119 1484 4856 
L 1984 4856 
z
" transform="scale(0.015625)"/>
       <path id="DejaVuSans-29" d="M 513 4856 
L 1013 4856 
Q 1481 4119 1714 3412 
Q 1947 2706 1947 2009 
Q 1947 1309 1714 600 
Q 1481 -109 1013 -844 
L 513 -844 
Q 928 -128 1133 580 
Q 1338 1288 1338 2009 
Q 1338 2731 1133 3434 
Q 928 4138 513 4856 
z
" transform="scale(0.015625)"/>
      </defs>
      <use xlink:href="#DejaVuSans-Oblique-76" transform="translate(0 0.60625)"/>
      <use xlink:href="#DejaVuSans-28" transform="translate(63.645833 38.8875) scale(0.7)"/>
      <use xlink:href="#DejaVuSans-34" transform="translate(90.955404 38.8875) scale(0.7)"/>
      <use xlink:href="#DejaVuSans-29" transform="translate(135.491536 38.8875) scale(0.7)"/>
     </g>
    </g>
   </g>
  </g>
 </g>
 <defs>
  <clipPath id="p6e02e6850c">
   <rect x="57.6" y="41.472" width="357.12" height="266.112"/>
  </clipPath>
 </defs>
</svg>
