<?xml version="1.0" encoding="utf-8" standalone="no"?>
<!DOCTYPE svg PUBLIC "-//W3C//DTD SVG 1.1//EN"
  "http://www.w3.org/Graphics/SVG/1.1/DTD/svg11.dtd">
<svg xmlns:xlink="http://www.w3.org/1999/xlink" width="460.8pt" height="345.6pt" viewBox="0 0 460.8 345.6" xmlns="http://www.w3.org/2000/svg" version="1.1">
 <metadata>
  <rdf:RDF xmlns:dc="http://purl.org/dc/elements/1.1/" xmlns:cc="http://creativecommons.org/ns#" xmlns:rdf="http://www.w3.org/1999/02/22-rdf-syntax-ns#">
   <cc:Work>
    <dc:type rdf:resource="http://purl.org/dc/dcmitype/StillImage"/>
    <dc:date>2025-06-11T11:01:02.887532</dc:date>
    <dc:format>image/svg+xml</dc:format>
    <dc:creator>
     <cc:Agent>
      <dc:title>Matplotlib v3.9.2, https://matplotlib.org/</dc:title>
     </cc:Agent>
    </dc:creator>
   </cc:Work>
  </rdf:RDF>
 </metadata>
 <defs>
  <style type="text/css">*{stroke-linejoin: round; stroke-linecap: butt}</style>
 </defs>
 <g id="figure_1">
  <g id="patch_1">
   <path d="M 0 345.6 
L 460.8 345.6 
L 460.8 0 
L 0 0 
z
" style="fill: #ffffff"/>
  </g>
  <g id="axes_1">
   <g id="patch_2">
    <path d="M 57.6 307.584 
L 414.72 307.584 
L 414.72 41.472 
L 57.6 41.472 
z
" style="fill: #ffffff"/>
   </g>
   <g id="matplotlib.axis_1">
    <g id="xtick_1">
     <g id="line2d_1">
      <defs>
       <path id="m9de21b3973" d="M 0 0 
L 0 3.5 
" style="stroke: #000000; stroke-width: 0.8"/>
      </defs>
      <g>
       <use xlink:href="#m9de21b3973" x="73.832727" y="307.584" style="stroke: #000000; stroke-width: 0.8"/>
      </g>
     </g>
     <g id="text_1">
      <!-- 0.00000 -->
      <g transform="translate(53.156165 322.182437) scale(0.1 -0.1)">
       <defs>
        <path id="DejaVuSans-30" d="M 2034 4250 
Q 1547 4250 1301 3770 
Q 1056 3291 1056 2328 
Q 1056 1369 1301 889 
Q 1547 409 2034 409 
Q 2525 409 2770 889 
Q 3016 1369 3016 2328 
Q 3016 3291 2770 3770 
Q 2525 4250 2034 4250 
z
M 2034 4750 
Q 2819 4750 3233 4129 
Q 3647 3509 3647 2328 
Q 3647 1150 3233 529 
Q 2819 -91 2034 -91 
Q 1250 -91 836 529 
Q 422 1150 422 2328 
Q 422 3509 836 4129 
Q 1250 4750 2034 4750 
z
" transform="scale(0.015625)"/>
        <path id="DejaVuSans-2e" d="M 684 794 
L 1344 794 
L 1344 0 
L 684 0 
L 684 794 
z
" transform="scale(0.015625)"/>
       </defs>
       <use xlink:href="#DejaVuSans-30"/>
       <use xlink:href="#DejaVuSans-2e" x="63.623047"/>
       <use xlink:href="#DejaVuSans-30" x="95.410156"/>
       <use xlink:href="#DejaVuSans-30" x="159.033203"/>
       <use xlink:href="#DejaVuSans-30" x="222.65625"/>
       <use xlink:href="#DejaVuSans-30" x="286.279297"/>
       <use xlink:href="#DejaVuSans-30" x="349.902344"/>
      </g>
     </g>
    </g>
    <g id="xtick_2">
     <g id="line2d_2">
      <g>
       <use xlink:href="#m9de21b3973" x="138.764935" y="307.584" style="stroke: #000000; stroke-width: 0.8"/>
      </g>
     </g>
     <g id="text_2">
      <!-- 0.00002 -->
      <g transform="translate(118.088373 322.182437) scale(0.1 -0.1)">
       <defs>
        <path id="DejaVuSans-32" d="M 1228 531 
L 3431 531 
L 3431 0 
L 469 0 
L 469 531 
Q 828 903 1448 1529 
Q 2069 2156 2228 2338 
Q 2531 2678 2651 2914 
Q 2772 3150 2772 3378 
Q 2772 3750 2511 3984 
Q 2250 4219 1831 4219 
Q 1534 4219 1204 4116 
Q 875 4013 500 3803 
L 500 4441 
Q 881 4594 1212 4672 
Q 1544 4750 1819 4750 
Q 2544 4750 2975 4387 
Q 3406 4025 3406 3419 
Q 3406 3131 3298 2873 
Q 3191 2616 2906 2266 
Q 2828 2175 2409 1742 
Q 1991 1309 1228 531 
z
" transform="scale(0.015625)"/>
       </defs>
       <use xlink:href="#DejaVuSans-30"/>
       <use xlink:href="#DejaVuSans-2e" x="63.623047"/>
       <use xlink:href="#DejaVuSans-30" x="95.410156"/>
       <use xlink:href="#DejaVuSans-30" x="159.033203"/>
       <use xlink:href="#DejaVuSans-30" x="222.65625"/>
       <use xlink:href="#DejaVuSans-30" x="286.279297"/>
       <use xlink:href="#DejaVuSans-32" x="349.902344"/>
      </g>
     </g>
    </g>
    <g id="xtick_3">
     <g id="line2d_3">
      <g>
       <use xlink:href="#m9de21b3973" x="203.697143" y="307.584" style="stroke: #000000; stroke-width: 0.8"/>
      </g>
     </g>
     <g id="text_3">
      <!-- 0.00004 -->
      <g transform="translate(183.02058 322.182437) scale(0.1 -0.1)">
       <defs>
        <path id="DejaVuSans-34" d="M 2419 4116 
L 825 1625 
L 2419 1625 
L 2419 4116 
z
M 2253 4666 
L 3047 4666 
L 3047 1625 
L 3713 1625 
L 3713 1100 
L 3047 1100 
L 3047 0 
L 2419 0 
L 2419 1100 
L 313 1100 
L 313 1709 
L 2253 4666 
z
" transform="scale(0.015625)"/>
       </defs>
       <use xlink:href="#DejaVuSans-30"/>
       <use xlink:href="#DejaVuSans-2e" x="63.623047"/>
       <use xlink:href="#DejaVuSans-30" x="95.410156"/>
       <use xlink:href="#DejaVuSans-30" x="159.033203"/>
       <use xlink:href="#DejaVuSans-30" x="222.65625"/>
       <use xlink:href="#DejaVuSans-30" x="286.279297"/>
       <use xlink:href="#DejaVuSans-34" x="349.902344"/>
      </g>
     </g>
    </g>
    <g id="xtick_4">
     <g id="line2d_4">
      <g>
       <use xlink:href="#m9de21b3973" x="268.62935" y="307.584" style="stroke: #000000; stroke-width: 0.8"/>
      </g>
     </g>
     <g id="text_4">
      <!-- 0.00006 -->
      <g transform="translate(247.952788 322.182437) scale(0.1 -0.1)">
       <defs>
        <path id="DejaVuSans-36" d="M 2113 2584 
Q 1688 2584 1439 2293 
Q 1191 2003 1191 1497 
Q 1191 994 1439 701 
Q 1688 409 2113 409 
Q 2538 409 2786 701 
Q 3034 994 3034 1497 
Q 3034 2003 2786 2293 
Q 2538 2584 2113 2584 
z
M 3366 4563 
L 3366 3988 
Q 3128 4100 2886 4159 
Q 2644 4219 2406 4219 
Q 1781 4219 1451 3797 
Q 1122 3375 1075 2522 
Q 1259 2794 1537 2939 
Q 1816 3084 2150 3084 
Q 2853 3084 3261 2657 
Q 3669 2231 3669 1497 
Q 3669 778 3244 343 
Q 2819 -91 2113 -91 
Q 1303 -91 875 529 
Q 447 1150 447 2328 
Q 447 3434 972 4092 
Q 1497 4750 2381 4750 
Q 2619 4750 2861 4703 
Q 3103 4656 3366 4563 
z
" transform="scale(0.015625)"/>
       </defs>
       <use xlink:href="#DejaVuSans-30"/>
       <use xlink:href="#DejaVuSans-2e" x="63.623047"/>
       <use xlink:href="#DejaVuSans-30" x="95.410156"/>
       <use xlink:href="#DejaVuSans-30" x="159.033203"/>
       <use xlink:href="#DejaVuSans-30" x="222.65625"/>
       <use xlink:href="#DejaVuSans-30" x="286.279297"/>
       <use xlink:href="#DejaVuSans-36" x="349.902344"/>
      </g>
     </g>
    </g>
    <g id="xtick_5">
     <g id="line2d_5">
      <g>
       <use xlink:href="#m9de21b3973" x="333.561558" y="307.584" style="stroke: #000000; stroke-width: 0.8"/>
      </g>
     </g>
     <g id="text_5">
      <!-- 0.00008 -->
      <g transform="translate(312.884996 322.182437) scale(0.1 -0.1)">
       <defs>
        <path id="DejaVuSans-38" d="M 2034 2216 
Q 1584 2216 1326 1975 
Q 1069 1734 1069 1313 
Q 1069 891 1326 650 
Q 1584 409 2034 409 
Q 2484 409 2743 651 
Q 3003 894 3003 1313 
Q 3003 1734 2745 1975 
Q 2488 2216 2034 2216 
z
M 1403 2484 
Q 997 2584 770 2862 
Q 544 3141 544 3541 
Q 544 4100 942 4425 
Q 1341 4750 2034 4750 
Q 2731 4750 3128 4425 
Q 3525 4100 3525 3541 
Q 3525 3141 3298 2862 
Q 3072 2584 2669 2484 
Q 3125 2378 3379 2068 
Q 3634 1759 3634 1313 
Q 3634 634 3220 271 
Q 2806 -91 2034 -91 
Q 1263 -91 848 271 
Q 434 634 434 1313 
Q 434 1759 690 2068 
Q 947 2378 1403 2484 
z
M 1172 3481 
Q 1172 3119 1398 2916 
Q 1625 2713 2034 2713 
Q 2441 2713 2670 2916 
Q 2900 3119 2900 3481 
Q 2900 3844 2670 4047 
Q 2441 4250 2034 4250 
Q 1625 4250 1398 4047 
Q 1172 3844 1172 3481 
z
" transform="scale(0.015625)"/>
       </defs>
       <use xlink:href="#DejaVuSans-30"/>
       <use xlink:href="#DejaVuSans-2e" x="63.623047"/>
       <use xlink:href="#DejaVuSans-30" x="95.410156"/>
       <use xlink:href="#DejaVuSans-30" x="159.033203"/>
       <use xlink:href="#DejaVuSans-30" x="222.65625"/>
       <use xlink:href="#DejaVuSans-30" x="286.279297"/>
       <use xlink:href="#DejaVuSans-38" x="349.902344"/>
      </g>
     </g>
    </g>
    <g id="xtick_6">
     <g id="line2d_6">
      <g>
       <use xlink:href="#m9de21b3973" x="398.493766" y="307.584" style="stroke: #000000; stroke-width: 0.8"/>
      </g>
     </g>
     <g id="text_6">
      <!-- 0.00010 -->
      <g transform="translate(377.817203 322.182437) scale(0.1 -0.1)">
       <defs>
        <path id="DejaVuSans-31" d="M 794 531 
L 1825 531 
L 1825 4091 
L 703 3866 
L 703 4441 
L 1819 4666 
L 2450 4666 
L 2450 531 
L 3481 531 
L 3481 0 
L 794 0 
L 794 531 
z
" transform="scale(0.015625)"/>
       </defs>
       <use xlink:href="#DejaVuSans-30"/>
       <use xlink:href="#DejaVuSans-2e" x="63.623047"/>
       <use xlink:href="#DejaVuSans-30" x="95.410156"/>
       <use xlink:href="#DejaVuSans-30" x="159.033203"/>
       <use xlink:href="#DejaVuSans-30" x="222.65625"/>
       <use xlink:href="#DejaVuSans-31" x="286.279297"/>
       <use xlink:href="#DejaVuSans-30" x="349.902344"/>
      </g>
     </g>
    </g>
    <g id="text_7">
     <!-- $t$ /s -->
     <g transform="translate(228.31 335.860562) scale(0.1 -0.1)">
      <defs>
       <path id="DejaVuSans-Oblique-74" d="M 2706 3500 
L 2619 3053 
L 1472 3053 
L 1100 1153 
Q 1081 1047 1072 975 
Q 1063 903 1063 863 
Q 1063 663 1183 572 
Q 1303 481 1569 481 
L 2150 481 
L 2053 0 
L 1503 0 
Q 991 0 739 200 
Q 488 400 488 806 
Q 488 878 497 964 
Q 506 1050 525 1153 
L 897 3053 
L 409 3053 
L 500 3500 
L 978 3500 
L 1172 4494 
L 1747 4494 
L 1556 3500 
L 2706 3500 
z
" transform="scale(0.015625)"/>
       <path id="DejaVuSans-20" transform="scale(0.015625)"/>
       <path id="DejaVuSans-2f" d="M 1625 4666 
L 2156 4666 
L 531 -594 
L 0 -594 
L 1625 4666 
z
" transform="scale(0.015625)"/>
       <path id="DejaVuSans-73" d="M 2834 3397 
L 2834 2853 
Q 2591 2978 2328 3040 
Q 2066 3103 1784 3103 
Q 1356 3103 1142 2972 
Q 928 2841 928 2578 
Q 928 2378 1081 2264 
Q 1234 2150 1697 2047 
L 1894 2003 
Q 2506 1872 2764 1633 
Q 3022 1394 3022 966 
Q 3022 478 2636 193 
Q 2250 -91 1575 -91 
Q 1294 -91 989 -36 
Q 684 19 347 128 
L 347 722 
Q 666 556 975 473 
Q 1284 391 1588 391 
Q 1994 391 2212 530 
Q 2431 669 2431 922 
Q 2431 1156 2273 1281 
Q 2116 1406 1581 1522 
L 1381 1569 
Q 847 1681 609 1914 
Q 372 2147 372 2553 
Q 372 3047 722 3315 
Q 1072 3584 1716 3584 
Q 2034 3584 2315 3537 
Q 2597 3491 2834 3397 
z
" transform="scale(0.015625)"/>
      </defs>
      <use xlink:href="#DejaVuSans-Oblique-74" transform="translate(0 0.09375)"/>
      <use xlink:href="#DejaVuSans-20" transform="translate(39.208984 0.09375)"/>
      <use xlink:href="#DejaVuSans-2f" transform="translate(70.996094 0.09375)"/>
      <use xlink:href="#DejaVuSans-73" transform="translate(104.6875 0.09375)"/>
     </g>
    </g>
   </g>
   <g id="matplotlib.axis_2">
    <g id="ytick_1">
     <g id="line2d_7">
      <defs>
       <path id="m67d0b265e5" d="M 0 0 
L -3.5 0 
" style="stroke: #000000; stroke-width: 0.8"/>
      </defs>
      <g>
       <use xlink:href="#m67d0b265e5" x="57.6" y="295.488" style="stroke: #000000; stroke-width: 0.8"/>
      </g>
     </g>
     <g id="text_8">
      <!-- 0.00 -->
      <g transform="translate(28.334375 299.287219) scale(0.1 -0.1)">
       <use xlink:href="#DejaVuSans-30"/>
       <use xlink:href="#DejaVuSans-2e" x="63.623047"/>
       <use xlink:href="#DejaVuSans-30" x="95.410156"/>
       <use xlink:href="#DejaVuSans-30" x="159.033203"/>
      </g>
     </g>
    </g>
    <g id="ytick_2">
     <g id="line2d_8">
      <g>
       <use xlink:href="#m67d0b265e5" x="57.6" y="261.248723" style="stroke: #000000; stroke-width: 0.8"/>
      </g>
     </g>
     <g id="text_9">
      <!-- 0.05 -->
      <g transform="translate(28.334375 265.047942) scale(0.1 -0.1)">
       <defs>
        <path id="DejaVuSans-35" d="M 691 4666 
L 3169 4666 
L 3169 4134 
L 1269 4134 
L 1269 2991 
Q 1406 3038 1543 3061 
Q 1681 3084 1819 3084 
Q 2600 3084 3056 2656 
Q 3513 2228 3513 1497 
Q 3513 744 3044 326 
Q 2575 -91 1722 -91 
Q 1428 -91 1123 -41 
Q 819 9 494 109 
L 494 744 
Q 775 591 1075 516 
Q 1375 441 1709 441 
Q 2250 441 2565 725 
Q 2881 1009 2881 1497 
Q 2881 1984 2565 2268 
Q 2250 2553 1709 2553 
Q 1456 2553 1204 2497 
Q 953 2441 691 2322 
L 691 4666 
z
" transform="scale(0.015625)"/>
       </defs>
       <use xlink:href="#DejaVuSans-30"/>
       <use xlink:href="#DejaVuSans-2e" x="63.623047"/>
       <use xlink:href="#DejaVuSans-30" x="95.410156"/>
       <use xlink:href="#DejaVuSans-35" x="159.033203"/>
      </g>
     </g>
    </g>
    <g id="ytick_3">
     <g id="line2d_9">
      <g>
       <use xlink:href="#m67d0b265e5" x="57.6" y="227.009447" style="stroke: #000000; stroke-width: 0.8"/>
      </g>
     </g>
     <g id="text_10">
      <!-- 0.10 -->
      <g transform="translate(28.334375 230.808665) scale(0.1 -0.1)">
       <use xlink:href="#DejaVuSans-30"/>
       <use xlink:href="#DejaVuSans-2e" x="63.623047"/>
       <use xlink:href="#DejaVuSans-31" x="95.410156"/>
       <use xlink:href="#DejaVuSans-30" x="159.033203"/>
      </g>
     </g>
    </g>
    <g id="ytick_4">
     <g id="line2d_10">
      <g>
       <use xlink:href="#m67d0b265e5" x="57.6" y="192.77017" style="stroke: #000000; stroke-width: 0.8"/>
      </g>
     </g>
     <g id="text_11">
      <!-- 0.15 -->
      <g transform="translate(28.334375 196.569389) scale(0.1 -0.1)">
       <use xlink:href="#DejaVuSans-30"/>
       <use xlink:href="#DejaVuSans-2e" x="63.623047"/>
       <use xlink:href="#DejaVuSans-31" x="95.410156"/>
       <use xlink:href="#DejaVuSans-35" x="159.033203"/>
      </g>
     </g>
    </g>
    <g id="ytick_5">
     <g id="line2d_11">
      <g>
       <use xlink:href="#m67d0b265e5" x="57.6" y="158.530893" style="stroke: #000000; stroke-width: 0.8"/>
      </g>
     </g>
     <g id="text_12">
      <!-- 0.20 -->
      <g transform="translate(28.334375 162.330112) scale(0.1 -0.1)">
       <use xlink:href="#DejaVuSans-30"/>
       <use xlink:href="#DejaVuSans-2e" x="63.623047"/>
       <use xlink:href="#DejaVuSans-32" x="95.410156"/>
       <use xlink:href="#DejaVuSans-30" x="159.033203"/>
      </g>
     </g>
    </g>
    <g id="ytick_6">
     <g id="line2d_12">
      <g>
       <use xlink:href="#m67d0b265e5" x="57.6" y="124.291616" style="stroke: #000000; stroke-width: 0.8"/>
      </g>
     </g>
     <g id="text_13">
      <!-- 0.25 -->
      <g transform="translate(28.334375 128.090835) scale(0.1 -0.1)">
       <use xlink:href="#DejaVuSans-30"/>
       <use xlink:href="#DejaVuSans-2e" x="63.623047"/>
       <use xlink:href="#DejaVuSans-32" x="95.410156"/>
       <use xlink:href="#DejaVuSans-35" x="159.033203"/>
      </g>
     </g>
    </g>
    <g id="ytick_7">
     <g id="line2d_13">
      <g>
       <use xlink:href="#m67d0b265e5" x="57.6" y="90.05234" style="stroke: #000000; stroke-width: 0.8"/>
      </g>
     </g>
     <g id="text_14">
      <!-- 0.30 -->
      <g transform="translate(28.334375 93.851559) scale(0.1 -0.1)">
       <defs>
        <path id="DejaVuSans-33" d="M 2597 2516 
Q 3050 2419 3304 2112 
Q 3559 1806 3559 1356 
Q 3559 666 3084 287 
Q 2609 -91 1734 -91 
Q 1441 -91 1130 -33 
Q 819 25 488 141 
L 488 750 
Q 750 597 1062 519 
Q 1375 441 1716 441 
Q 2309 441 2620 675 
Q 2931 909 2931 1356 
Q 2931 1769 2642 2001 
Q 2353 2234 1838 2234 
L 1294 2234 
L 1294 2753 
L 1863 2753 
Q 2328 2753 2575 2939 
Q 2822 3125 2822 3475 
Q 2822 3834 2567 4026 
Q 2313 4219 1838 4219 
Q 1578 4219 1281 4162 
Q 984 4106 628 3988 
L 628 4550 
Q 988 4650 1302 4700 
Q 1616 4750 1894 4750 
Q 2613 4750 3031 4423 
Q 3450 4097 3450 3541 
Q 3450 3153 3228 2886 
Q 3006 2619 2597 2516 
z
" transform="scale(0.015625)"/>
       </defs>
       <use xlink:href="#DejaVuSans-30"/>
       <use xlink:href="#DejaVuSans-2e" x="63.623047"/>
       <use xlink:href="#DejaVuSans-33" x="95.410156"/>
       <use xlink:href="#DejaVuSans-30" x="159.033203"/>
      </g>
     </g>
    </g>
    <g id="ytick_8">
     <g id="line2d_14">
      <g>
       <use xlink:href="#m67d0b265e5" x="57.6" y="55.813063" style="stroke: #000000; stroke-width: 0.8"/>
      </g>
     </g>
     <g id="text_15">
      <!-- 0.35 -->
      <g transform="translate(28.334375 59.612282) scale(0.1 -0.1)">
       <use xlink:href="#DejaVuSans-30"/>
       <use xlink:href="#DejaVuSans-2e" x="63.623047"/>
       <use xlink:href="#DejaVuSans-33" x="95.410156"/>
       <use xlink:href="#DejaVuSans-35" x="159.033203"/>
      </g>
     </g>
    </g>
    <g id="text_16">
     <!-- $v$ /V -->
     <g transform="translate(22.254688 184.228) rotate(-90) scale(0.1 -0.1)">
      <defs>
       <path id="DejaVuSans-Oblique-76" d="M 459 3500 
L 1069 3500 
L 1581 525 
L 3256 3500 
L 3866 3500 
L 1875 0 
L 1100 0 
L 459 3500 
z
" transform="scale(0.015625)"/>
       <path id="DejaVuSans-56" d="M 1831 0 
L 50 4666 
L 709 4666 
L 2188 738 
L 3669 4666 
L 4325 4666 
L 2547 0 
L 1831 0 
z
" transform="scale(0.015625)"/>
      </defs>
      <use xlink:href="#DejaVuSans-Oblique-76" transform="translate(0 0.09375)"/>
      <use xlink:href="#DejaVuSans-20" transform="translate(59.179688 0.09375)"/>
      <use xlink:href="#DejaVuSans-2f" transform="translate(90.966797 0.09375)"/>
      <use xlink:href="#DejaVuSans-56" transform="translate(124.658203 0.09375)"/>
     </g>
    </g>
   </g>
   <g id="line2d_15">
    <path d="M 73.832727 295.488 
L 75.43006 295.385814 
L 75.527458 294.971647 
L 75.644336 293.244954 
L 75.917051 286.289553 
L 75.99497 287.290455 
L 76.430016 295.425573 
L 76.631305 295.488 
L 81.267465 295.385814 
L 81.364863 294.971647 
L 81.481741 293.244954 
L 81.754457 286.289553 
L 81.832375 287.290455 
L 82.267421 295.425573 
L 82.468711 295.488 
L 83.514119 295.385814 
L 83.611518 294.971647 
L 83.728396 293.244954 
L 84.001111 286.289553 
L 84.07903 287.290455 
L 84.514075 295.425573 
L 84.715365 295.488 
L 86.137381 295.385814 
L 86.234779 294.971647 
L 86.351657 293.244954 
L 86.624372 286.289553 
L 86.702291 287.290455 
L 87.137337 295.425573 
L 87.338626 295.488 
L 88.890506 295.385814 
L 88.987905 294.971647 
L 89.104783 293.244954 
L 89.377498 286.289553 
L 89.455416 287.290455 
L 89.890462 295.425573 
L 90.091752 295.488 
L 93.448747 295.385814 
L 93.546146 294.971647 
L 93.663024 293.244954 
L 93.935739 286.289553 
L 94.013657 287.290455 
L 94.318839 294.352149 
L 94.383771 293.936549 
L 94.513635 290.777956 
L 94.701939 286.289553 
L 94.747391 286.643156 
L 94.883749 290.575246 
L 95.130491 295.205977 
L 95.305808 295.478906 
L 95.929158 295.488 
L 96.656398 295.385814 
L 96.753797 294.971647 
L 96.870675 293.244954 
L 97.14339 286.289553 
L 97.221308 287.290455 
L 97.656354 295.425573 
L 97.857644 295.488 
L 98.104387 295.385814 
L 98.201785 294.971647 
L 98.318663 293.244954 
L 98.591378 286.289553 
L 98.669297 287.290455 
L 99.104343 295.425573 
L 99.305632 295.488 
L 102.000319 295.385814 
L 102.097717 294.971647 
L 102.214595 293.244954 
L 102.487311 286.289553 
L 102.565229 287.290455 
L 103.000275 295.425573 
L 103.182085 295.466424 
L 103.29247 295.305493 
L 103.396361 294.595533 
L 103.532719 291.638918 
L 103.746995 286.289553 
L 103.792448 286.643156 
L 103.928806 290.575246 
L 104.175548 295.205977 
L 104.350865 295.478906 
L 104.974214 295.488 
L 105.526138 295.385814 
L 105.623536 294.971647 
L 105.740414 293.244954 
L 106.013129 286.289553 
L 106.091048 287.290455 
L 106.526094 295.425573 
L 106.727384 295.488 
L 113.629677 295.385814 
L 113.727076 294.971647 
L 113.843954 293.244954 
L 114.142642 285.838617 
L 114.233547 286.569486 
L 114.324452 287.169355 
L 114.369905 286.961451 
L 114.506262 285.839191 
L 114.558208 286.244094 
L 114.694566 290.115627 
L 114.947801 295.174816 
L 115.123118 295.477456 
L 115.675042 295.488 
L 119.902129 295.385814 
L 119.999527 294.962554 
L 120.116405 293.142769 
L 120.317695 285.183528 
L 120.499505 280.693301 
L 120.525478 280.826544 
L 120.616383 282.866662 
L 121.083895 295.372878 
L 121.265705 295.488 
L 123.018875 295.385814 
L 123.116273 294.971647 
L 123.233151 293.244954 
L 123.505866 286.289553 
L 123.583785 287.290455 
L 123.947405 295.0328 
L 123.992858 294.917102 
L 124.090256 293.781344 
L 124.298039 287.624477 
L 124.388944 286.289553 
L 124.44089 286.74866 
L 124.609714 291.839797 
L 124.830483 295.2604 
L 125.0058 295.481269 
L 125.434353 295.439673 
L 125.551231 295.066463 
L 125.661615 293.513429 
L 125.817453 286.99962 
L 126.025236 278.505526 
L 126.064195 278.911554 
L 126.181073 283.976275 
L 126.466775 294.324856 
L 126.486255 294.34731 
L 126.518721 294.20897 
L 126.616119 292.542212 
L 126.862861 286.289553 
L 126.927794 286.996763 
L 127.427772 295.466424 
L 127.752433 295.488 
L 129.46015 295.385814 
L 129.557548 294.971647 
L 129.674426 293.244954 
L 129.947141 286.289553 
L 130.02506 287.290455 
L 130.460106 295.425573 
L 130.661395 295.488 
L 134.635247 295.385814 
L 134.732645 294.971647 
L 134.849523 293.23586 
L 135.232623 284.540087 
L 135.323528 284.544441 
L 135.38846 284.599723 
L 135.394953 284.623665 
L 135.472872 285.463077 
L 135.648189 290.962308 
L 135.881945 295.205977 
L 136.057262 295.478906 
L 136.394909 295.43303 
L 136.492308 295.174816 
L 136.602692 294.031794 
L 136.778009 289.016258 
L 136.92086 286.151494 
L 136.966313 286.435476 
L 137.154616 289.149716 
L 137.226042 288.452653 
L 137.381879 286.151494 
L 137.433825 286.582408 
L 137.589662 291.07847 
L 137.72602 293.282332 
L 137.764979 293.043989 
L 137.875364 290.473061 
L 138.057174 286.289553 
L 138.102626 286.643156 
L 138.238984 290.575246 
L 138.485727 295.1844 
L 138.557152 295.317317 
L 138.609098 295.231989 
L 138.706496 294.512687 
L 138.842854 291.43347 
L 139.050637 286.289553 
L 139.096089 286.643156 
L 139.232447 290.575246 
L 139.479189 295.205977 
L 139.654506 295.478906 
L 139.953194 295.425573 
L 140.050593 295.140769 
L 140.160977 293.916808 
L 140.349281 288.389847 
L 140.466159 286.289553 
L 140.511611 286.643156 
L 140.647969 290.575246 
L 140.894711 295.205977 
L 141.070028 295.478906 
L 141.693378 295.488 
L 144.504942 295.385814 
L 144.60234 294.971647 
L 144.719218 293.244954 
L 144.991934 286.289553 
L 145.069852 287.290455 
L 145.504898 295.425573 
L 145.706188 295.488 
L 151.5371 295.385814 
L 151.634499 294.971647 
L 151.751377 293.244954 
L 152.024092 286.289553 
L 152.10201 287.290455 
L 152.491604 295.197171 
L 152.52407 295.154318 
L 152.608482 294.581424 
L 152.744839 291.638918 
L 152.959116 286.289553 
L 153.004568 286.643156 
L 153.140926 290.575246 
L 153.387668 295.205977 
L 153.562985 295.478906 
L 154.186334 295.488 
L 156.588826 295.385814 
L 156.686224 294.971647 
L 156.803102 293.244954 
L 157.075818 286.289553 
L 157.153736 287.290455 
L 157.588782 295.425573 
L 157.790072 295.488 
L 161.108108 295.385814 
L 161.205506 294.971647 
L 161.322384 293.239177 
L 161.965213 276.932456 
L 162.043131 278.51938 
L 162.549603 295.436487 
L 162.757386 295.488 
L 163.121006 295.385814 
L 163.218404 294.971647 
L 163.335282 293.220175 
L 163.958632 279.424852 
L 163.997591 279.613136 
L 164.088496 281.697066 
L 164.575488 295.385814 
L 164.757298 295.488 
L 170.38692 295.385814 
L 170.484318 294.971647 
L 170.601196 293.244954 
L 170.873912 286.289553 
L 170.95183 287.290455 
L 171.386876 295.425573 
L 171.588166 295.488 
L 177.094417 295.385814 
L 177.191816 294.971647 
L 177.308694 293.244954 
L 177.581409 286.289553 
L 177.659327 287.290455 
L 178.094373 295.425573 
L 178.295663 295.488 
L 179.828063 295.385814 
L 179.925461 294.971647 
L 180.042339 293.244954 
L 180.315055 286.289553 
L 180.392973 287.290455 
L 180.828019 295.425573 
L 181.029309 295.488 
L 181.315011 295.385814 
L 181.412409 294.971647 
L 181.529287 293.244954 
L 181.802002 286.289553 
L 181.879921 287.290455 
L 182.308474 295.337094 
L 182.373406 295.215685 
L 182.470804 294.430577 
L 182.620148 290.794237 
L 182.808452 286.289553 
L 182.853904 286.643156 
L 182.990262 290.575246 
L 183.237004 295.205977 
L 183.412321 295.478906 
L 183.613611 295.407875 
L 183.711009 295.063212 
L 183.827887 293.533304 
L 184.113589 286.289553 
L 184.204494 287.624477 
L 184.594087 295.372878 
L 184.775897 295.488 
L 185.542097 295.385814 
L 185.639496 294.971647 
L 185.756374 293.244954 
L 186.029089 286.289553 
L 186.107008 287.290455 
L 186.542053 295.425573 
L 186.743343 295.488 
L 187.464091 295.385814 
L 187.561489 294.971647 
L 187.678367 293.244954 
L 187.951082 286.289553 
L 188.029001 287.290455 
L 188.464047 295.425573 
L 188.665337 295.488 
L 189.425043 295.385814 
L 189.522442 294.971647 
L 189.63932 293.244954 
L 189.912035 286.289553 
L 189.989954 287.290455 
L 190.424999 295.425573 
L 190.626289 295.488 
L 190.853552 295.385814 
L 190.95095 294.971647 
L 191.067828 293.244954 
L 191.340544 286.289553 
L 191.418462 287.290455 
L 191.853508 295.419796 
L 191.9574 295.426298 
L 191.983372 295.393824 
L 192.080771 295.019287 
L 192.197649 293.392411 
L 192.476857 286.285935 
L 192.561269 287.427999 
L 192.801518 292.895648 
L 192.859957 292.362563 
L 193.119686 286.285935 
L 193.217084 287.804811 
L 193.587198 295.342585 
L 193.762515 295.484382 
L 194.191068 295.417219 
L 194.288466 295.103636 
L 194.398851 293.795453 
L 194.626113 287.138224 
L 194.697539 286.289553 
L 194.749485 286.74866 
L 194.918308 291.839797 
L 195.139078 295.2604 
L 195.314395 295.481269 
L 196.119554 295.488 
L 201.885534 295.385814 
L 201.982932 294.971647 
L 202.09981 293.244954 
L 202.372526 286.289553 
L 202.450444 287.290455 
L 202.88549 295.425573 
L 203.073794 295.475727 
L 203.171192 295.268187 
L 203.255604 294.242252 
L 203.346509 289.690497 
L 203.456894 270.017315 
L 203.612731 190.97107 
L 203.898433 53.568 
L 203.917912 54.274414 
L 204.015311 69.363376 
L 204.197121 91.417947 
L 204.229587 90.886748 
L 204.378931 83.470599 
L 204.443863 86.652025 
L 204.567234 113.115326 
L 204.943841 193.020755 
L 205.22305 209.705207 
L 205.60615 257.622557 
L 205.697055 258.38632 
L 205.943797 264.153113 
L 206.047689 262.758005 
L 206.15158 261.16422 
L 206.203526 261.692705 
L 206.339884 267.10144 
L 206.593119 273.560833 
L 206.807395 278.946337 
L 206.878821 277.821404 
L 207.080111 271.049955 
L 207.151536 272.484424 
L 207.456718 287.579178 
L 207.580089 286.287682 
L 207.619048 286.088697 
L 207.670994 286.465852 
L 207.807351 290.354259 
L 208.047601 294.827585 
L 208.08656 294.737567 
L 208.177465 293.635115 
L 208.46966 286.289553 
L 208.567058 287.804811 
L 208.937172 295.342585 
L 209.112489 295.484382 
L 210.515025 295.488 
L 214.943401 295.385814 
L 215.040799 294.971647 
L 215.157677 293.244954 
L 215.430393 286.289553 
L 215.508311 287.290455 
L 215.943357 295.425573 
L 216.144647 295.488 
L 217.3394 295.385814 
L 217.436798 294.971647 
L 217.553676 293.244954 
L 217.826391 286.289553 
L 217.90431 287.290455 
L 218.339356 295.425573 
L 218.540645 295.488 
L 220.722368 295.385814 
L 220.819766 294.971647 
L 220.936644 293.244954 
L 221.209359 286.289553 
L 221.287278 287.290455 
L 221.722324 295.425573 
L 221.91712 295.483764 
L 222.079451 295.358512 
L 222.176849 294.86435 
L 222.30022 292.763637 
L 222.553456 286.289553 
L 222.618388 286.996763 
L 223.118366 295.466424 
L 223.443027 295.488 
L 225.339048 295.385814 
L 225.436446 294.971647 
L 225.553324 293.244954 
L 225.826039 286.289553 
L 225.903958 287.290455 
L 226.339004 295.425573 
L 226.540293 295.488 
L 227.832444 295.385814 
L 227.929843 294.971647 
L 228.046721 293.244954 
L 228.325929 286.216784 
L 228.403848 287.139594 
L 228.572672 290.027067 
L 228.624617 289.615519 
L 228.916812 284.716473 
L 229.040183 284.747791 
L 229.085636 284.732944 
L 229.118102 284.822795 
L 229.196021 285.787946 
L 229.754438 295.475793 
L 230.247922 295.488 
L 233.702316 295.385814 
L 233.799714 294.971647 
L 233.916592 293.244954 
L 234.189307 286.289553 
L 234.267226 287.290455 
L 234.702272 295.425573 
L 234.903562 295.488 
L 236.254152 295.385814 
L 236.35155 294.971647 
L 236.468428 293.244954 
L 236.741143 286.289553 
L 236.819062 287.290455 
L 237.254108 295.425573 
L 237.455398 295.488 
L 241.877281 295.385814 
L 241.974679 294.971647 
L 242.091557 293.244954 
L 242.364272 286.289553 
L 242.442191 287.290455 
L 242.877237 295.425573 
L 243.078527 295.488 
L 244.013551 295.385814 
L 244.110949 294.971647 
L 244.227827 293.244954 
L 244.500542 286.289553 
L 244.578461 287.290455 
L 245.013507 295.425573 
L 245.214796 295.488 
L 246.701744 295.385814 
L 246.799142 294.971647 
L 246.91602 293.244954 
L 247.188735 286.289553 
L 247.266654 287.290455 
L 247.688713 295.317317 
L 247.695207 295.315034 
L 247.760139 295.150281 
L 247.86403 294.085552 
L 248.013375 289.448159 
L 248.28609 280.309822 
L 248.318556 280.532851 
L 248.415954 283.21004 
L 248.818534 295.230207 
L 248.993851 295.48017 
L 249.701612 295.488 
L 250.344441 295.385814 
L 250.441839 294.971647 
L 250.558717 293.244954 
L 250.831432 286.289553 
L 250.909351 287.290455 
L 251.344397 295.425573 
L 251.545687 295.488 
L 255.675375 295.385814 
L 255.772773 294.971647 
L 255.889651 293.244954 
L 256.162367 286.289553 
L 256.240285 287.290455 
L 256.675331 295.425573 
L 256.876621 295.488 
L 257.110377 295.385814 
L 257.207775 294.971647 
L 257.324653 293.244954 
L 257.597368 286.289553 
L 257.675287 287.290455 
L 257.999948 294.594499 
L 258.058387 294.267538 
L 258.181758 291.624809 
L 258.396035 286.289553 
L 258.44798 286.74866 
L 258.616804 291.839797 
L 258.837574 295.2604 
L 259.012891 295.481269 
L 259.81805 295.488 
L 260.623209 295.385814 
L 260.720608 294.971647 
L 260.837486 293.244954 
L 261.110201 286.289553 
L 261.188119 287.290455 
L 261.623165 295.425573 
L 261.824455 295.488 
L 262.746492 295.385814 
L 262.843891 294.971647 
L 262.960769 293.244954 
L 263.233484 286.289553 
L 263.311403 287.290455 
L 263.746448 295.425573 
L 263.947738 295.488 
L 265.525591 295.385814 
L 265.622989 294.971647 
L 265.739867 293.244954 
L 266.012583 286.289553 
L 266.090501 287.290455 
L 266.525547 295.425573 
L 266.726837 295.488 
L 282.602762 295.385814 
L 282.70016 294.971647 
L 282.817038 293.244954 
L 283.089753 286.289553 
L 283.167672 287.279911 
L 283.427401 293.373154 
L 283.492333 292.820166 
L 283.661157 287.974254 
L 283.765048 286.289553 
L 283.810501 286.643156 
L 283.946858 290.575246 
L 284.193601 295.201026 
L 284.303985 295.395857 
L 284.342945 295.356597 
L 284.43385 294.971647 
L 284.550728 293.244954 
L 284.829936 286.216784 
L 284.907855 287.139594 
L 285.076679 290.039274 
L 285.128624 289.652693 
L 285.323421 286.216784 
L 285.40134 287.121943 
L 285.862358 295.445581 
L 286.089621 295.488 
L 288.86872 295.385814 
L 288.966118 294.971647 
L 289.082996 293.244954 
L 289.355711 286.289553 
L 289.43363 287.290455 
L 289.868676 295.425573 
L 290.069965 295.488 
L 290.40112 295.385814 
L 290.498518 294.971647 
L 290.615396 293.244954 
L 290.888111 286.289553 
L 290.96603 287.290455 
L 291.401076 295.425573 
L 291.602366 295.488 
L 292.290647 295.385814 
L 292.388045 294.971647 
L 292.504923 293.244954 
L 292.777639 286.289553 
L 292.855557 287.290455 
L 293.290603 295.425573 
L 293.491893 295.488 
L 294.621713 295.385814 
L 294.719112 294.971647 
L 294.83599 293.244954 
L 295.108705 286.289553 
L 295.186623 287.290455 
L 295.608683 295.32775 
L 295.615176 295.326661 
L 295.680108 295.187219 
L 295.784 294.243126 
L 295.939837 290.131908 
L 296.108661 286.289553 
L 296.14762 286.55069 
L 296.264498 289.685814 
L 296.53072 295.174816 
L 296.706037 295.477456 
L 297.257961 295.488 
L 299.257873 295.385814 
L 299.355271 294.971647 
L 299.472149 293.244954 
L 299.744864 286.289553 
L 299.822783 287.290455 
L 300.257829 295.425573 
L 300.459119 295.488 
L 302.192809 295.385814 
L 302.290207 294.971647 
L 302.407085 293.244954 
L 302.6798 286.289553 
L 302.757719 287.290455 
L 303.192765 295.425573 
L 303.394054 295.488 
L 304.205707 295.381579 
L 304.303105 294.934474 
L 304.41349 293.096279 
L 304.575821 285.679623 
L 304.842043 274.430342 
L 304.868016 274.538388 
L 304.952427 276.532377 
L 305.244622 285.892006 
L 305.309555 285.682103 
L 305.348514 285.587441 
L 305.393966 285.799785 
L 305.497858 288.108164 
L 305.829012 295.2604 
L 305.991343 295.478906 
L 305.997836 295.477084 
L 306.160167 295.385814 
L 306.257565 294.971647 
L 306.374443 293.244954 
L 306.647158 286.289553 
L 306.725077 287.290455 
L 307.160123 295.425573 
L 307.361412 295.488 
L 312.69884 295.385814 
L 312.796238 294.971647 
L 312.913116 293.244954 
L 313.185831 286.289553 
L 313.26375 287.290455 
L 313.698796 295.425573 
L 313.900086 295.488 
L 315.133798 295.385814 
L 315.231196 294.959441 
L 315.348074 293.115466 
L 315.542871 285.194866 
L 315.724681 280.293541 
L 315.750654 280.430369 
L 315.841559 282.544302 
L 316.075315 289.12885 
L 316.12726 288.712286 
L 316.296084 286.167421 
L 316.361016 286.829537 
L 316.886967 295.473891 
L 317.328506 295.488 
L 324.198334 295.385814 
L 324.295732 294.971647 
L 324.41261 293.244954 
L 324.685325 286.289553 
L 324.763244 287.290455 
L 325.19829 295.425573 
L 325.39958 295.488 
L 327.308587 295.385814 
L 327.405985 294.961103 
L 327.522863 293.129832 
L 327.724153 285.042635 
L 327.89947 280.498022 
L 327.931936 280.674313 
L 328.029334 283.144888 
L 328.451393 295.284027 
L 328.62671 295.482222 
L 329.548748 295.488 
L 330.665582 295.385814 
L 330.76298 294.950071 
L 330.879858 293.040981 
L 331.068161 284.895266 
L 331.243478 279.589255 
L 331.275945 279.857533 
L 331.379836 283.296381 
L 331.736963 295.089527 
L 331.91228 295.473891 
L 332.353819 295.488 
L 336.236765 295.385814 
L 336.334163 294.971647 
L 336.451041 293.244954 
L 336.723757 286.241226 
L 336.808169 287.225178 
L 336.989979 290.533449 
L 337.041925 290.085992 
L 337.256201 286.055702 
L 337.340613 286.84344 
L 337.450997 288.098448 
L 337.49645 287.684035 
L 337.613328 283.408169 
L 337.769165 278.320503 
L 337.814618 278.838979 
L 337.937989 284.540732 
L 338.217198 294.849294 
L 338.392514 295.463221 
L 338.691203 295.488 
L 340.113218 295.385814 
L 340.210616 294.971647 
L 340.327494 293.244954 
L 340.60021 286.289553 
L 340.678128 287.290455 
L 341.113174 295.425573 
L 341.314464 295.488 
L 344.152001 295.385814 
L 344.2494 294.971647 
L 344.366278 293.244954 
L 344.638993 286.273272 
L 344.723405 287.36222 
L 344.931188 291.712943 
L 344.983134 291.254118 
L 345.21689 286.273272 
L 345.301301 287.452778 
L 345.710374 295.397442 
L 345.892184 295.488 
L 349.307619 295.385814 
L 349.405017 294.971647 
L 349.521895 293.244954 
L 349.79461 286.289553 
L 349.872529 287.290455 
L 350.307575 295.425573 
L 350.508864 295.488 
L 352.365926 295.385814 
L 352.463324 294.971647 
L 352.580202 293.244954 
L 352.852917 286.289553 
L 352.930836 287.290455 
L 353.365882 295.425573 
L 353.567171 295.488 
L 355.683961 295.385814 
L 355.78136 294.971647 
L 355.898238 293.244954 
L 356.170953 286.289553 
L 356.248872 287.290455 
L 356.683917 295.425573 
L 356.885207 295.488 
L 358.553965 295.385814 
L 358.651363 294.971647 
L 358.768241 293.244954 
L 359.066929 285.861779 
L 359.157835 286.53426 
L 359.216273 286.852841 
L 359.261726 286.544492 
L 359.372111 283.407072 
L 359.534441 279.164675 
L 359.579894 279.622389 
L 359.703265 284.555317 
L 360.008446 294.943236 
L 360.183763 295.466424 
L 360.508424 295.488 
L 361.93044 295.385814 
L 362.027838 294.971647 
L 362.144716 293.244954 
L 362.417431 286.289553 
L 362.49535 287.290455 
L 362.930396 295.425573 
L 363.131686 295.488 
L 364.742004 295.385814 
L 364.839403 294.971647 
L 364.956281 293.244954 
L 365.228996 286.289553 
L 365.306915 287.286837 
L 365.592616 293.92162 
L 365.657548 293.385616 
L 365.806893 289.226385 
L 365.949743 286.289553 
L 365.995196 286.643156 
L 366.131554 290.575246 
L 366.378296 295.205977 
L 366.553613 295.478906 
L 367.176962 295.488 
L 368.28081 295.385814 
L 368.378208 294.971647 
L 368.495086 293.244954 
L 368.767801 286.289553 
L 368.84572 287.290455 
L 369.280766 295.425573 
L 369.482056 295.488 
L 369.97554 295.380046 
L 370.066445 294.936796 
L 370.17683 292.859385 
L 370.339161 284.108924 
L 370.501491 277.186485 
L 370.540451 277.785253 
L 370.670315 284.992051 
L 370.923551 294.876036 
L 371.092374 295.463889 
L 371.384569 295.488 
L 373.384481 295.385814 
L 373.48188 294.971647 
L 373.598758 293.244954 
L 373.871473 286.289553 
L 373.949391 287.290455 
L 374.384437 295.425573 
L 374.585727 295.488 
L 378.780348 295.385814 
L 378.877746 294.971647 
L 378.994624 293.244954 
L 379.267339 286.289553 
L 379.345258 287.290455 
L 379.77381 295.346438 
L 379.838743 295.241643 
L 379.936141 294.515772 
L 380.078992 291.223885 
L 380.280282 286.289553 
L 380.325734 286.643156 
L 380.462092 290.575246 
L 380.708834 295.205977 
L 380.884151 295.478906 
L 381.351663 295.459589 
L 381.462048 295.2604 
L 381.565939 294.430577 
L 381.715283 290.794237 
L 381.903587 286.289553 
L 381.949039 286.643156 
L 382.085397 290.575246 
L 382.332139 295.205977 
L 382.507456 295.478906 
L 383.130806 295.488 
L 383.468453 295.385814 
L 383.565851 294.971647 
L 383.682729 293.244954 
L 383.955445 286.289553 
L 384.033363 287.290455 
L 384.468409 295.425573 
L 384.669699 295.488 
L 386.54624 295.385814 
L 386.643638 294.971647 
L 386.760516 293.244954 
L 387.033231 286.289553 
L 387.11115 287.290455 
L 387.546196 295.425573 
L 387.747486 295.488 
L 387.968255 295.385814 
L 388.065653 294.971647 
L 388.182531 293.244954 
L 388.455247 286.289553 
L 388.533165 287.290455 
L 388.968211 295.425573 
L 389.169501 295.488 
L 392.344686 295.385814 
L 392.442084 294.971647 
L 392.558962 293.244954 
L 392.831677 286.289553 
L 392.909596 287.290455 
L 393.344642 295.425573 
L 393.545932 295.488 
L 395.286115 295.385814 
L 395.383513 294.971647 
L 395.500391 293.244954 
L 395.773106 286.289553 
L 395.851025 287.290455 
L 396.286071 295.425573 
L 396.487361 295.488 
L 397.013312 295.385814 
L 397.11071 294.971647 
L 397.227588 293.244954 
L 397.51329 286.036918 
L 397.604195 286.935588 
L 397.721073 288.191594 
L 397.773018 287.888862 
L 397.928856 286.036918 
L 397.987295 286.540971 
L 398.149625 291.430385 
L 398.376888 295.234443 
L 398.487273 295.427064 
L 398.487273 295.427064 
" clip-path="url(#paed2137984)" style="fill: none; stroke: #1f77b4; stroke-opacity: 0.7; stroke-width: 1.5; stroke-linecap: square"/>
   </g>
   <g id="patch_3">
    <path d="M 57.6 307.584 
L 57.6 41.472 
" style="fill: none; stroke: #000000; stroke-width: 0.8; stroke-linejoin: miter; stroke-linecap: square"/>
   </g>
   <g id="patch_4">
    <path d="M 414.72 307.584 
L 414.72 41.472 
" style="fill: none; stroke: #000000; stroke-width: 0.8; stroke-linejoin: miter; stroke-linecap: square"/>
   </g>
   <g id="patch_5">
    <path d="M 57.6 307.584 
L 414.72 307.584 
" style="fill: none; stroke: #000000; stroke-width: 0.8; stroke-linejoin: miter; stroke-linecap: square"/>
   </g>
   <g id="patch_6">
    <path d="M 57.6 41.472 
L 414.72 41.472 
" style="fill: none; stroke: #000000; stroke-width: 0.8; stroke-linejoin: miter; stroke-linecap: square"/>
   </g>
   <g id="legend_1">
    <g id="patch_7">
     <path d="M 359.12 64.150125 
L 407.72 64.150125 
Q 409.72 64.150125 409.72 62.150125 
L 409.72 48.472 
Q 409.72 46.472 407.72 46.472 
L 359.12 46.472 
Q 357.12 46.472 357.12 48.472 
L 357.12 62.150125 
Q 357.12 64.150125 359.12 64.150125 
z
" style="fill: #ffffff; opacity: 0.8; stroke: #cccccc; stroke-linejoin: miter"/>
    </g>
    <g id="line2d_16">
     <path d="M 361.12 54.570438 
L 371.12 54.570438 
L 381.12 54.570438 
" style="fill: none; stroke: #1f77b4; stroke-opacity: 0.7; stroke-width: 1.5; stroke-linecap: square"/>
    </g>
    <g id="text_17">
     <!-- $v^{(4)}$ -->
     <g transform="translate(389.12 58.070438) scale(0.1 -0.1)">
      <defs>
       <path id="DejaVuSans-28" d="M 1984 4856 
Q 1566 4138 1362 3434 
Q 1159 2731 1159 2009 
Q 1159 1288 1364 580 
Q 1569 -128 1984 -844 
L 1484 -844 
Q 1016 -109 783 600 
Q 550 1309 550 2009 
Q 550 2706 781 3412 
Q 1013 4119 1484 4856 
L 1984 4856 
z
" transform="scale(0.015625)"/>
       <path id="DejaVuSans-29" d="M 513 4856 
L 1013 4856 
Q 1481 4119 1714 3412 
Q 1947 2706 1947 2009 
Q 1947 1309 1714 600 
Q 1481 -109 1013 -844 
L 513 -844 
Q 928 -128 1133 580 
Q 1338 1288 1338 2009 
Q 1338 2731 1133 3434 
Q 928 4138 513 4856 
z
" transform="scale(0.015625)"/>
      </defs>
      <use xlink:href="#DejaVuSans-Oblique-76" transform="translate(0 0.60625)"/>
      <use xlink:href="#DejaVuSans-28" transform="translate(63.645833 38.8875) scale(0.7)"/>
      <use xlink:href="#DejaVuSans-34" transform="translate(90.955404 38.8875) scale(0.7)"/>
      <use xlink:href="#DejaVuSans-29" transform="translate(135.491536 38.8875) scale(0.7)"/>
     </g>
    </g>
   </g>
  </g>
 </g>
 <defs>
  <clipPath id="paed2137984">
   <rect x="57.6" y="41.472" width="357.12" height="266.112"/>
  </clipPath>
 </defs>
</svg>
