<?xml version="1.0" encoding="utf-8" standalone="no"?>
<!DOCTYPE svg PUBLIC "-//W3C//DTD SVG 1.1//EN"
  "http://www.w3.org/Graphics/SVG/1.1/DTD/svg11.dtd">
<svg xmlns:xlink="http://www.w3.org/1999/xlink" width="460.8pt" height="345.6pt" viewBox="0 0 460.8 345.6" xmlns="http://www.w3.org/2000/svg" version="1.1">
 <metadata>
  <rdf:RDF xmlns:dc="http://purl.org/dc/elements/1.1/" xmlns:cc="http://creativecommons.org/ns#" xmlns:rdf="http://www.w3.org/1999/02/22-rdf-syntax-ns#">
   <cc:Work>
    <dc:type rdf:resource="http://purl.org/dc/dcmitype/StillImage"/>
    <dc:date>2025-06-11T11:01:02.820464</dc:date>
    <dc:format>image/svg+xml</dc:format>
    <dc:creator>
     <cc:Agent>
      <dc:title>Matplotlib v3.9.2, https://matplotlib.org/</dc:title>
     </cc:Agent>
    </dc:creator>
   </cc:Work>
  </rdf:RDF>
 </metadata>
 <defs>
  <style type="text/css">*{stroke-linejoin: round; stroke-linecap: butt}</style>
 </defs>
 <g id="figure_1">
  <g id="patch_1">
   <path d="M 0 345.6 
L 460.8 345.6 
L 460.8 0 
L 0 0 
z
" style="fill: #ffffff"/>
  </g>
  <g id="axes_1">
   <g id="patch_2">
    <path d="M 57.6 307.584 
L 414.72 307.584 
L 414.72 41.472 
L 57.6 41.472 
z
" style="fill: #ffffff"/>
   </g>
   <g id="matplotlib.axis_1">
    <g id="xtick_1">
     <g id="line2d_1">
      <defs>
       <path id="me0419a9a4a" d="M 0 0 
L 0 3.5 
" style="stroke: #000000; stroke-width: 0.8"/>
      </defs>
      <g>
       <use xlink:href="#me0419a9a4a" x="73.832727" y="307.584" style="stroke: #000000; stroke-width: 0.8"/>
      </g>
     </g>
     <g id="text_1">
      <!-- 0 -->
      <g transform="translate(70.651477 322.182437) scale(0.1 -0.1)">
       <defs>
        <path id="DejaVuSans-30" d="M 2034 4250 
Q 1547 4250 1301 3770 
Q 1056 3291 1056 2328 
Q 1056 1369 1301 889 
Q 1547 409 2034 409 
Q 2525 409 2770 889 
Q 3016 1369 3016 2328 
Q 3016 3291 2770 3770 
Q 2525 4250 2034 4250 
z
M 2034 4750 
Q 2819 4750 3233 4129 
Q 3647 3509 3647 2328 
Q 3647 1150 3233 529 
Q 2819 -91 2034 -91 
Q 1250 -91 836 529 
Q 422 1150 422 2328 
Q 422 3509 836 4129 
Q 1250 4750 2034 4750 
z
" transform="scale(0.015625)"/>
       </defs>
       <use xlink:href="#DejaVuSans-30"/>
      </g>
     </g>
    </g>
    <g id="xtick_2">
     <g id="line2d_2">
      <g>
       <use xlink:href="#me0419a9a4a" x="138.764935" y="307.584" style="stroke: #000000; stroke-width: 0.8"/>
      </g>
     </g>
     <g id="text_2">
      <!-- 20 -->
      <g transform="translate(132.402435 322.182437) scale(0.1 -0.1)">
       <defs>
        <path id="DejaVuSans-32" d="M 1228 531 
L 3431 531 
L 3431 0 
L 469 0 
L 469 531 
Q 828 903 1448 1529 
Q 2069 2156 2228 2338 
Q 2531 2678 2651 2914 
Q 2772 3150 2772 3378 
Q 2772 3750 2511 3984 
Q 2250 4219 1831 4219 
Q 1534 4219 1204 4116 
Q 875 4013 500 3803 
L 500 4441 
Q 881 4594 1212 4672 
Q 1544 4750 1819 4750 
Q 2544 4750 2975 4387 
Q 3406 4025 3406 3419 
Q 3406 3131 3298 2873 
Q 3191 2616 2906 2266 
Q 2828 2175 2409 1742 
Q 1991 1309 1228 531 
z
" transform="scale(0.015625)"/>
       </defs>
       <use xlink:href="#DejaVuSans-32"/>
       <use xlink:href="#DejaVuSans-30" x="63.623047"/>
      </g>
     </g>
    </g>
    <g id="xtick_3">
     <g id="line2d_3">
      <g>
       <use xlink:href="#me0419a9a4a" x="203.697143" y="307.584" style="stroke: #000000; stroke-width: 0.8"/>
      </g>
     </g>
     <g id="text_3">
      <!-- 40 -->
      <g transform="translate(197.334643 322.182437) scale(0.1 -0.1)">
       <defs>
        <path id="DejaVuSans-34" d="M 2419 4116 
L 825 1625 
L 2419 1625 
L 2419 4116 
z
M 2253 4666 
L 3047 4666 
L 3047 1625 
L 3713 1625 
L 3713 1100 
L 3047 1100 
L 3047 0 
L 2419 0 
L 2419 1100 
L 313 1100 
L 313 1709 
L 2253 4666 
z
" transform="scale(0.015625)"/>
       </defs>
       <use xlink:href="#DejaVuSans-34"/>
       <use xlink:href="#DejaVuSans-30" x="63.623047"/>
      </g>
     </g>
    </g>
    <g id="xtick_4">
     <g id="line2d_4">
      <g>
       <use xlink:href="#me0419a9a4a" x="268.62935" y="307.584" style="stroke: #000000; stroke-width: 0.8"/>
      </g>
     </g>
     <g id="text_4">
      <!-- 60 -->
      <g transform="translate(262.26685 322.182437) scale(0.1 -0.1)">
       <defs>
        <path id="DejaVuSans-36" d="M 2113 2584 
Q 1688 2584 1439 2293 
Q 1191 2003 1191 1497 
Q 1191 994 1439 701 
Q 1688 409 2113 409 
Q 2538 409 2786 701 
Q 3034 994 3034 1497 
Q 3034 2003 2786 2293 
Q 2538 2584 2113 2584 
z
M 3366 4563 
L 3366 3988 
Q 3128 4100 2886 4159 
Q 2644 4219 2406 4219 
Q 1781 4219 1451 3797 
Q 1122 3375 1075 2522 
Q 1259 2794 1537 2939 
Q 1816 3084 2150 3084 
Q 2853 3084 3261 2657 
Q 3669 2231 3669 1497 
Q 3669 778 3244 343 
Q 2819 -91 2113 -91 
Q 1303 -91 875 529 
Q 447 1150 447 2328 
Q 447 3434 972 4092 
Q 1497 4750 2381 4750 
Q 2619 4750 2861 4703 
Q 3103 4656 3366 4563 
z
" transform="scale(0.015625)"/>
       </defs>
       <use xlink:href="#DejaVuSans-36"/>
       <use xlink:href="#DejaVuSans-30" x="63.623047"/>
      </g>
     </g>
    </g>
    <g id="xtick_5">
     <g id="line2d_5">
      <g>
       <use xlink:href="#me0419a9a4a" x="333.561558" y="307.584" style="stroke: #000000; stroke-width: 0.8"/>
      </g>
     </g>
     <g id="text_5">
      <!-- 80 -->
      <g transform="translate(327.199058 322.182437) scale(0.1 -0.1)">
       <defs>
        <path id="DejaVuSans-38" d="M 2034 2216 
Q 1584 2216 1326 1975 
Q 1069 1734 1069 1313 
Q 1069 891 1326 650 
Q 1584 409 2034 409 
Q 2484 409 2743 651 
Q 3003 894 3003 1313 
Q 3003 1734 2745 1975 
Q 2488 2216 2034 2216 
z
M 1403 2484 
Q 997 2584 770 2862 
Q 544 3141 544 3541 
Q 544 4100 942 4425 
Q 1341 4750 2034 4750 
Q 2731 4750 3128 4425 
Q 3525 4100 3525 3541 
Q 3525 3141 3298 2862 
Q 3072 2584 2669 2484 
Q 3125 2378 3379 2068 
Q 3634 1759 3634 1313 
Q 3634 634 3220 271 
Q 2806 -91 2034 -91 
Q 1263 -91 848 271 
Q 434 634 434 1313 
Q 434 1759 690 2068 
Q 947 2378 1403 2484 
z
M 1172 3481 
Q 1172 3119 1398 2916 
Q 1625 2713 2034 2713 
Q 2441 2713 2670 2916 
Q 2900 3119 2900 3481 
Q 2900 3844 2670 4047 
Q 2441 4250 2034 4250 
Q 1625 4250 1398 4047 
Q 1172 3844 1172 3481 
z
" transform="scale(0.015625)"/>
       </defs>
       <use xlink:href="#DejaVuSans-38"/>
       <use xlink:href="#DejaVuSans-30" x="63.623047"/>
      </g>
     </g>
    </g>
    <g id="xtick_6">
     <g id="line2d_6">
      <g>
       <use xlink:href="#me0419a9a4a" x="398.493766" y="307.584" style="stroke: #000000; stroke-width: 0.8"/>
      </g>
     </g>
     <g id="text_6">
      <!-- 100 -->
      <g transform="translate(388.950016 322.182437) scale(0.1 -0.1)">
       <defs>
        <path id="DejaVuSans-31" d="M 794 531 
L 1825 531 
L 1825 4091 
L 703 3866 
L 703 4441 
L 1819 4666 
L 2450 4666 
L 2450 531 
L 3481 531 
L 3481 0 
L 794 0 
L 794 531 
z
" transform="scale(0.015625)"/>
       </defs>
       <use xlink:href="#DejaVuSans-31"/>
       <use xlink:href="#DejaVuSans-30" x="63.623047"/>
       <use xlink:href="#DejaVuSans-30" x="127.246094"/>
      </g>
     </g>
    </g>
    <g id="text_7">
     <!-- $t$ /µs -->
     <g transform="translate(225.21 335.84025) scale(0.1 -0.1)">
      <defs>
       <path id="DejaVuSans-Oblique-74" d="M 2706 3500 
L 2619 3053 
L 1472 3053 
L 1100 1153 
Q 1081 1047 1072 975 
Q 1063 903 1063 863 
Q 1063 663 1183 572 
Q 1303 481 1569 481 
L 2150 481 
L 2053 0 
L 1503 0 
Q 991 0 739 200 
Q 488 400 488 806 
Q 488 878 497 964 
Q 506 1050 525 1153 
L 897 3053 
L 409 3053 
L 500 3500 
L 978 3500 
L 1172 4494 
L 1747 4494 
L 1556 3500 
L 2706 3500 
z
" transform="scale(0.015625)"/>
       <path id="DejaVuSans-20" transform="scale(0.015625)"/>
       <path id="DejaVuSans-2f" d="M 1625 4666 
L 2156 4666 
L 531 -594 
L 0 -594 
L 1625 4666 
z
" transform="scale(0.015625)"/>
       <path id="DejaVuSans-b5" d="M 544 -1331 
L 544 3500 
L 1119 3500 
L 1119 1325 
Q 1119 872 1334 640 
Q 1550 409 1972 409 
Q 2434 409 2667 671 
Q 2900 934 2900 1459 
L 2900 3500 
L 3475 3500 
L 3475 806 
Q 3475 619 3529 530 
Q 3584 441 3700 441 
Q 3728 441 3778 458 
Q 3828 475 3916 513 
L 3916 50 
Q 3788 -22 3673 -56 
Q 3559 -91 3450 -91 
Q 3234 -91 3106 31 
Q 2978 153 2931 403 
Q 2775 156 2548 32 
Q 2322 -91 2016 -91 
Q 1697 -91 1473 31 
Q 1250 153 1119 397 
L 1119 -1331 
L 544 -1331 
z
" transform="scale(0.015625)"/>
       <path id="DejaVuSans-73" d="M 2834 3397 
L 2834 2853 
Q 2591 2978 2328 3040 
Q 2066 3103 1784 3103 
Q 1356 3103 1142 2972 
Q 928 2841 928 2578 
Q 928 2378 1081 2264 
Q 1234 2150 1697 2047 
L 1894 2003 
Q 2506 1872 2764 1633 
Q 3022 1394 3022 966 
Q 3022 478 2636 193 
Q 2250 -91 1575 -91 
Q 1294 -91 989 -36 
Q 684 19 347 128 
L 347 722 
Q 666 556 975 473 
Q 1284 391 1588 391 
Q 1994 391 2212 530 
Q 2431 669 2431 922 
Q 2431 1156 2273 1281 
Q 2116 1406 1581 1522 
L 1381 1569 
Q 847 1681 609 1914 
Q 372 2147 372 2553 
Q 372 3047 722 3315 
Q 1072 3584 1716 3584 
Q 2034 3584 2315 3537 
Q 2597 3491 2834 3397 
z
" transform="scale(0.015625)"/>
      </defs>
      <use xlink:href="#DejaVuSans-Oblique-74" transform="translate(0 0.09375)"/>
      <use xlink:href="#DejaVuSans-20" transform="translate(39.208984 0.09375)"/>
      <use xlink:href="#DejaVuSans-2f" transform="translate(70.996094 0.09375)"/>
      <use xlink:href="#DejaVuSans-b5" transform="translate(102.9375 0.09375)"/>
      <use xlink:href="#DejaVuSans-73" transform="translate(166.560547 0.09375)"/>
     </g>
    </g>
   </g>
   <g id="matplotlib.axis_2">
    <g id="ytick_1">
     <g id="line2d_7">
      <defs>
       <path id="m4df36437f8" d="M 0 0 
L -3.5 0 
" style="stroke: #000000; stroke-width: 0.8"/>
      </defs>
      <g>
       <use xlink:href="#m4df36437f8" x="57.6" y="295.488" style="stroke: #000000; stroke-width: 0.8"/>
      </g>
     </g>
     <g id="text_8">
      <!-- 0.0 -->
      <g transform="translate(34.696875 299.287219) scale(0.1 -0.1)">
       <defs>
        <path id="DejaVuSans-2e" d="M 684 794 
L 1344 794 
L 1344 0 
L 684 0 
L 684 794 
z
" transform="scale(0.015625)"/>
       </defs>
       <use xlink:href="#DejaVuSans-30"/>
       <use xlink:href="#DejaVuSans-2e" x="63.623047"/>
       <use xlink:href="#DejaVuSans-30" x="95.410156"/>
      </g>
     </g>
    </g>
    <g id="ytick_2">
     <g id="line2d_8">
      <g>
       <use xlink:href="#m4df36437f8" x="57.6" y="255.168" style="stroke: #000000; stroke-width: 0.8"/>
      </g>
     </g>
     <g id="text_9">
      <!-- 0.5 -->
      <g transform="translate(34.696875 258.967219) scale(0.1 -0.1)">
       <defs>
        <path id="DejaVuSans-35" d="M 691 4666 
L 3169 4666 
L 3169 4134 
L 1269 4134 
L 1269 2991 
Q 1406 3038 1543 3061 
Q 1681 3084 1819 3084 
Q 2600 3084 3056 2656 
Q 3513 2228 3513 1497 
Q 3513 744 3044 326 
Q 2575 -91 1722 -91 
Q 1428 -91 1123 -41 
Q 819 9 494 109 
L 494 744 
Q 775 591 1075 516 
Q 1375 441 1709 441 
Q 2250 441 2565 725 
Q 2881 1009 2881 1497 
Q 2881 1984 2565 2268 
Q 2250 2553 1709 2553 
Q 1456 2553 1204 2497 
Q 953 2441 691 2322 
L 691 4666 
z
" transform="scale(0.015625)"/>
       </defs>
       <use xlink:href="#DejaVuSans-30"/>
       <use xlink:href="#DejaVuSans-2e" x="63.623047"/>
       <use xlink:href="#DejaVuSans-35" x="95.410156"/>
      </g>
     </g>
    </g>
    <g id="ytick_3">
     <g id="line2d_9">
      <g>
       <use xlink:href="#m4df36437f8" x="57.6" y="214.848" style="stroke: #000000; stroke-width: 0.8"/>
      </g>
     </g>
     <g id="text_10">
      <!-- 1.0 -->
      <g transform="translate(34.696875 218.647219) scale(0.1 -0.1)">
       <use xlink:href="#DejaVuSans-31"/>
       <use xlink:href="#DejaVuSans-2e" x="63.623047"/>
       <use xlink:href="#DejaVuSans-30" x="95.410156"/>
      </g>
     </g>
    </g>
    <g id="ytick_4">
     <g id="line2d_10">
      <g>
       <use xlink:href="#m4df36437f8" x="57.6" y="174.528" style="stroke: #000000; stroke-width: 0.8"/>
      </g>
     </g>
     <g id="text_11">
      <!-- 1.5 -->
      <g transform="translate(34.696875 178.327219) scale(0.1 -0.1)">
       <use xlink:href="#DejaVuSans-31"/>
       <use xlink:href="#DejaVuSans-2e" x="63.623047"/>
       <use xlink:href="#DejaVuSans-35" x="95.410156"/>
      </g>
     </g>
    </g>
    <g id="ytick_5">
     <g id="line2d_11">
      <g>
       <use xlink:href="#m4df36437f8" x="57.6" y="134.208" style="stroke: #000000; stroke-width: 0.8"/>
      </g>
     </g>
     <g id="text_12">
      <!-- 2.0 -->
      <g transform="translate(34.696875 138.007219) scale(0.1 -0.1)">
       <use xlink:href="#DejaVuSans-32"/>
       <use xlink:href="#DejaVuSans-2e" x="63.623047"/>
       <use xlink:href="#DejaVuSans-30" x="95.410156"/>
      </g>
     </g>
    </g>
    <g id="ytick_6">
     <g id="line2d_12">
      <g>
       <use xlink:href="#m4df36437f8" x="57.6" y="93.888" style="stroke: #000000; stroke-width: 0.8"/>
      </g>
     </g>
     <g id="text_13">
      <!-- 2.5 -->
      <g transform="translate(34.696875 97.687219) scale(0.1 -0.1)">
       <use xlink:href="#DejaVuSans-32"/>
       <use xlink:href="#DejaVuSans-2e" x="63.623047"/>
       <use xlink:href="#DejaVuSans-35" x="95.410156"/>
      </g>
     </g>
    </g>
    <g id="ytick_7">
     <g id="line2d_13">
      <g>
       <use xlink:href="#m4df36437f8" x="57.6" y="53.568" style="stroke: #000000; stroke-width: 0.8"/>
      </g>
     </g>
     <g id="text_14">
      <!-- 3.0 -->
      <g transform="translate(34.696875 57.367219) scale(0.1 -0.1)">
       <defs>
        <path id="DejaVuSans-33" d="M 2597 2516 
Q 3050 2419 3304 2112 
Q 3559 1806 3559 1356 
Q 3559 666 3084 287 
Q 2609 -91 1734 -91 
Q 1441 -91 1130 -33 
Q 819 25 488 141 
L 488 750 
Q 750 597 1062 519 
Q 1375 441 1716 441 
Q 2309 441 2620 675 
Q 2931 909 2931 1356 
Q 2931 1769 2642 2001 
Q 2353 2234 1838 2234 
L 1294 2234 
L 1294 2753 
L 1863 2753 
Q 2328 2753 2575 2939 
Q 2822 3125 2822 3475 
Q 2822 3834 2567 4026 
Q 2313 4219 1838 4219 
Q 1578 4219 1281 4162 
Q 984 4106 628 3988 
L 628 4550 
Q 988 4650 1302 4700 
Q 1616 4750 1894 4750 
Q 2613 4750 3031 4423 
Q 3450 4097 3450 3541 
Q 3450 3153 3228 2886 
Q 3006 2619 2597 2516 
z
" transform="scale(0.015625)"/>
       </defs>
       <use xlink:href="#DejaVuSans-33"/>
       <use xlink:href="#DejaVuSans-2e" x="63.623047"/>
       <use xlink:href="#DejaVuSans-30" x="95.410156"/>
      </g>
     </g>
    </g>
    <g id="text_15">
     <!-- $v$ /s$^{-1}$ -->
     <g transform="translate(28.617188 188.728) rotate(-90) scale(0.1 -0.1)">
      <defs>
       <path id="DejaVuSans-Oblique-76" d="M 459 3500 
L 1069 3500 
L 1581 525 
L 3256 3500 
L 3866 3500 
L 1875 0 
L 1100 0 
L 459 3500 
z
" transform="scale(0.015625)"/>
       <path id="DejaVuSans-2212" d="M 678 2272 
L 4684 2272 
L 4684 1741 
L 678 1741 
L 678 2272 
z
" transform="scale(0.015625)"/>
      </defs>
      <use xlink:href="#DejaVuSans-Oblique-76" transform="translate(0 0.684375)"/>
      <use xlink:href="#DejaVuSans-20" transform="translate(59.179688 0.684375)"/>
      <use xlink:href="#DejaVuSans-2f" transform="translate(90.966797 0.684375)"/>
      <use xlink:href="#DejaVuSans-73" transform="translate(124.658203 0.684375)"/>
      <use xlink:href="#DejaVuSans-2212" transform="translate(177.714844 38.965625) scale(0.7)"/>
      <use xlink:href="#DejaVuSans-31" transform="translate(236.367188 38.965625) scale(0.7)"/>
     </g>
    </g>
   </g>
   <g id="line2d_14">
    <path d="M 73.832727 295.488 
L 203.697143 295.488 
L 203.749089 134.208 
L 203.814021 214.848 
L 203.865966 134.208 
L 203.930899 295.488 
L 203.950378 295.488 
L 203.995831 214.848 
L 204.060763 295.488 
L 204.07375 295.488 
L 204.184134 214.848 
L 204.294519 295.488 
L 204.41789 53.568 
L 204.528275 295.488 
L 204.534768 214.848 
L 204.632167 134.208 
L 204.645153 295.488 
L 204.742551 214.848 
L 204.755538 295.488 
L 204.775017 295.488 
L 204.865922 214.848 
L 204.885402 295.488 
L 204.917868 295.488 
L 205.015267 214.848 
L 205.028253 295.488 
L 205.047733 295.488 
L 205.158117 214.848 
L 205.197077 134.208 
L 205.268502 295.488 
L 205.274995 214.848 
L 205.378887 295.488 
L 205.528231 295.488 
L 205.58667 214.848 
L 205.638616 295.488 
L 205.664589 295.488 
L 205.781467 214.848 
L 205.898345 295.488 
L 206.054182 295.488 
L 206.060675 214.848 
L 206.164567 295.488 
L 206.17106 295.488 
L 206.184046 214.848 
L 206.281445 295.488 
L 206.326897 295.488 
L 206.33339 214.848 
L 206.437282 295.488 
L 206.547667 295.488 
L 206.638572 214.848 
L 206.658051 295.488 
L 206.950246 295.488 
L 206.95674 214.848 
L 207.060631 295.488 
L 207.132057 295.488 
L 207.13855 134.208 
L 207.242441 295.488 
L 207.625541 295.488 
L 207.632035 214.848 
L 207.735926 295.488 
L 208.463167 295.488 
L 208.46966 214.848 
L 208.573552 295.488 
L 398.487273 295.488 
L 398.487273 295.488 
" clip-path="url(#pcc22b76393)" style="fill: none; stroke: #1f77b4; stroke-width: 1.5; stroke-linecap: square"/>
   </g>
   <g id="line2d_15">
    <path d="M 73.832727 295.488 
L 75.910558 295.488 
L 75.917051 214.848 
L 76.020943 295.488 
L 81.747963 295.488 
L 81.754457 214.848 
L 81.858348 295.488 
L 83.994618 295.488 
L 84.001111 214.848 
L 84.105003 295.488 
L 86.617879 295.488 
L 86.624372 214.848 
L 86.728264 295.488 
L 89.371005 295.488 
L 89.377498 214.848 
L 89.481389 295.488 
L 93.929246 295.488 
L 93.935739 214.848 
L 94.03963 295.488 
L 94.695446 295.488 
L 94.701939 214.848 
L 94.80583 295.488 
L 97.136897 295.488 
L 97.14339 214.848 
L 97.247281 295.488 
L 98.584885 295.488 
L 98.591378 214.848 
L 98.69527 295.488 
L 102.480817 295.488 
L 102.487311 214.848 
L 102.591202 295.488 
L 103.740502 295.488 
L 103.746995 214.848 
L 103.850887 295.488 
L 106.006636 295.488 
L 106.013129 214.848 
L 106.117021 295.488 
L 114.110176 295.488 
L 114.116669 214.848 
L 114.22056 295.488 
L 114.519249 295.488 
L 114.525742 214.848 
L 114.629633 295.488 
L 120.382627 295.488 
L 120.38912 214.848 
L 120.493012 295.488 
L 120.596903 295.488 
L 120.603397 214.848 
L 120.707288 295.488 
L 123.499373 295.488 
L 123.505866 214.848 
L 123.609758 295.488 
L 124.382451 295.488 
L 124.388944 214.848 
L 124.492836 295.488 
L 125.95381 295.488 
L 125.960304 214.848 
L 126.064195 295.488 
L 126.083675 295.488 
L 126.090168 214.848 
L 126.19406 295.488 
L 126.856368 295.488 
L 126.862861 214.848 
L 126.966753 295.488 
L 129.940648 295.488 
L 129.947141 214.848 
L 130.051033 295.488 
L 135.115745 295.488 
L 135.122238 214.848 
L 135.22613 295.488 
L 135.446899 295.488 
L 135.453392 214.848 
L 135.557284 295.488 
L 136.907874 295.488 
L 136.914367 214.848 
L 137.018259 295.488 
L 137.381879 295.488 
L 137.388372 214.848 
L 137.492264 295.488 
L 138.050681 295.488 
L 138.057174 214.848 
L 138.161065 295.488 
L 139.044144 295.488 
L 139.050637 214.848 
L 139.154528 295.488 
L 140.459666 295.488 
L 140.466159 214.848 
L 140.57005 295.488 
L 144.985441 295.488 
L 144.991934 214.848 
L 145.095825 295.488 
L 152.017599 295.488 
L 152.024092 214.848 
L 152.127983 295.488 
L 152.952622 295.488 
L 152.959116 214.848 
L 153.063007 295.488 
L 157.069324 295.488 
L 157.075818 214.848 
L 157.179709 295.488 
L 161.588606 295.488 
L 161.595099 214.848 
L 161.698991 295.488 
L 161.93924 295.488 
L 162.017159 214.848 
L 162.049625 295.488 
L 163.601504 295.488 
L 163.607998 214.848 
L 163.711889 295.488 
L 163.887206 295.488 
L 163.893699 214.848 
L 163.997591 295.488 
L 164.082003 295.488 
L 164.088496 214.848 
L 164.192388 295.488 
L 170.867419 295.488 
L 170.873912 214.848 
L 170.977803 295.488 
L 177.574916 295.488 
L 177.581409 214.848 
L 177.6853 295.488 
L 180.308562 295.488 
L 180.315055 214.848 
L 180.418946 295.488 
L 181.795509 295.488 
L 181.802002 214.848 
L 181.905894 295.488 
L 182.801958 295.488 
L 182.808452 214.848 
L 182.912343 295.488 
L 184.107096 295.488 
L 184.113589 214.848 
L 184.21748 295.488 
L 186.022596 295.488 
L 186.029089 214.848 
L 186.132981 295.488 
L 187.944589 295.488 
L 187.951082 214.848 
L 188.054974 295.488 
L 189.905542 295.488 
L 189.912035 214.848 
L 190.015927 295.488 
L 191.33405 295.488 
L 191.340544 214.848 
L 191.444435 295.488 
L 192.470364 295.488 
L 192.476857 214.848 
L 192.580749 295.488 
L 193.113193 295.488 
L 193.119686 214.848 
L 193.223578 295.488 
L 194.691046 295.488 
L 194.697539 214.848 
L 194.80143 295.488 
L 202.366032 295.488 
L 202.372526 214.848 
L 202.476417 295.488 
L 203.697143 295.488 
L 203.749089 134.208 
L 203.814021 214.848 
L 203.865966 134.208 
L 203.930899 295.488 
L 203.950378 295.488 
L 203.995831 214.848 
L 204.060763 295.488 
L 204.07375 295.488 
L 204.184134 214.848 
L 204.294519 295.488 
L 204.41789 53.568 
L 204.528275 295.488 
L 204.534768 214.848 
L 204.632167 134.208 
L 204.645153 295.488 
L 204.742551 214.848 
L 204.755538 295.488 
L 204.775017 295.488 
L 204.865922 214.848 
L 204.885402 295.488 
L 204.917868 295.488 
L 205.015267 214.848 
L 205.028253 295.488 
L 205.047733 295.488 
L 205.158117 214.848 
L 205.197077 134.208 
L 205.268502 295.488 
L 205.274995 214.848 
L 205.378887 295.488 
L 205.528231 295.488 
L 205.58667 214.848 
L 205.638616 295.488 
L 205.664589 295.488 
L 205.781467 214.848 
L 205.898345 295.488 
L 206.054182 295.488 
L 206.060675 214.848 
L 206.164567 295.488 
L 206.17106 295.488 
L 206.184046 214.848 
L 206.281445 295.488 
L 206.326897 295.488 
L 206.33339 214.848 
L 206.437282 295.488 
L 206.547667 295.488 
L 206.638572 214.848 
L 206.658051 295.488 
L 206.950246 295.488 
L 206.95674 214.848 
L 207.060631 295.488 
L 207.132057 295.488 
L 207.13855 134.208 
L 207.242441 295.488 
L 207.625541 295.488 
L 207.632035 214.848 
L 207.735926 295.488 
L 208.463167 295.488 
L 208.46966 214.848 
L 208.573552 295.488 
L 215.423899 295.488 
L 215.430393 214.848 
L 215.534284 295.488 
L 217.819898 295.488 
L 217.826391 214.848 
L 217.930283 295.488 
L 221.202866 295.488 
L 221.209359 214.848 
L 221.313251 295.488 
L 222.546963 295.488 
L 222.553456 214.848 
L 222.657347 295.488 
L 225.819546 295.488 
L 225.826039 214.848 
L 225.929931 295.488 
L 228.312943 295.488 
L 228.319436 214.848 
L 228.423327 295.488 
L 228.819414 295.488 
L 228.825907 214.848 
L 228.929799 295.488 
L 229.157061 295.488 
L 229.163555 214.848 
L 229.267446 295.488 
L 234.182814 295.488 
L 234.189307 214.848 
L 234.293199 295.488 
L 236.73465 295.488 
L 236.741143 214.848 
L 236.845035 295.488 
L 242.357779 295.488 
L 242.364272 214.848 
L 242.468164 295.488 
L 244.494049 295.488 
L 244.500542 214.848 
L 244.604434 295.488 
L 247.182242 295.488 
L 247.188735 214.848 
L 247.292627 295.488 
L 248.175705 295.488 
L 248.182198 214.848 
L 248.28609 295.488 
L 248.376995 295.488 
L 248.383488 214.848 
L 248.48738 295.488 
L 250.824939 295.488 
L 250.831432 214.848 
L 250.935324 295.488 
L 256.155873 295.488 
L 256.162367 214.848 
L 256.266258 295.488 
L 257.590875 295.488 
L 257.597368 214.848 
L 257.70126 295.488 
L 258.389541 295.488 
L 258.396035 214.848 
L 258.499926 295.488 
L 261.103708 295.488 
L 261.110201 214.848 
L 261.214092 295.488 
L 263.226991 295.488 
L 263.233484 214.848 
L 263.337376 295.488 
L 266.006089 295.488 
L 266.012583 214.848 
L 266.116474 295.488 
L 283.08326 295.488 
L 283.089753 214.848 
L 283.193645 295.488 
L 283.758555 295.488 
L 283.765048 214.848 
L 283.86894 295.488 
L 284.81695 295.488 
L 284.823443 214.848 
L 284.927335 295.488 
L 285.323421 295.488 
L 285.329914 214.848 
L 285.433806 295.488 
L 289.349218 295.488 
L 289.355711 214.848 
L 289.459603 295.488 
L 290.881618 295.488 
L 290.888111 214.848 
L 290.992003 295.488 
L 292.771145 295.488 
L 292.777639 214.848 
L 292.88153 295.488 
L 295.102212 295.488 
L 295.108705 214.848 
L 295.212596 295.488 
L 296.102168 295.488 
L 296.108661 214.848 
L 296.212552 295.488 
L 299.738371 295.488 
L 299.744864 214.848 
L 299.848756 295.488 
L 302.673307 295.488 
L 302.6798 214.848 
L 302.783692 295.488 
L 304.686205 295.488 
L 304.692699 214.848 
L 304.79659 295.488 
L 304.83555 295.488 
L 304.842043 214.848 
L 304.945934 295.488 
L 304.991387 295.488 
L 304.99788 214.848 
L 305.101772 295.488 
L 305.38098 295.488 
L 305.387473 214.848 
L 305.491365 295.488 
L 306.640665 295.488 
L 306.647158 214.848 
L 306.75105 295.488 
L 313.179338 295.488 
L 313.185831 214.848 
L 313.289723 295.488 
L 315.614296 295.488 
L 315.620789 214.848 
L 315.724681 295.488 
L 315.815586 295.488 
L 315.822079 214.848 
L 315.925971 295.488 
L 316.296084 295.488 
L 316.302577 214.848 
L 316.406469 295.488 
L 324.678832 295.488 
L 324.685325 214.848 
L 324.789217 295.488 
L 327.789085 295.488 
L 327.795578 214.848 
L 327.89947 295.488 
L 327.996868 295.488 
L 328.003361 214.848 
L 328.107253 295.488 
L 331.14608 295.488 
L 331.152573 214.848 
L 331.256465 295.488 
L 331.321397 295.488 
L 331.32789 214.848 
L 331.431782 295.488 
L 336.717264 295.488 
L 336.723757 214.848 
L 336.827648 295.488 
L 337.243214 295.488 
L 337.249708 214.848 
L 337.353599 295.488 
L 337.704233 295.488 
L 337.710726 214.848 
L 337.814618 295.488 
L 337.827604 295.488 
L 337.834097 214.848 
L 337.937989 295.488 
L 340.593716 295.488 
L 340.60021 214.848 
L 340.704101 295.488 
L 344.6325 295.488 
L 344.638993 214.848 
L 344.742884 295.488 
L 345.210396 295.488 
L 345.21689 214.848 
L 345.320781 295.488 
L 349.788117 295.488 
L 349.79461 214.848 
L 349.898502 295.488 
L 352.846424 295.488 
L 352.852917 214.848 
L 352.956809 295.488 
L 356.16446 295.488 
L 356.170953 214.848 
L 356.274844 295.488 
L 359.034463 295.488 
L 359.040957 214.848 
L 359.144848 295.488 
L 359.450029 295.488 
L 359.456523 214.848 
L 359.560414 295.488 
L 359.61236 295.488 
L 359.618853 214.848 
L 359.722745 295.488 
L 362.410938 295.488 
L 362.417431 214.848 
L 362.521323 295.488 
L 365.222503 295.488 
L 365.228996 214.848 
L 365.332887 295.488 
L 365.94325 295.488 
L 365.949743 214.848 
L 366.053635 295.488 
L 368.761308 295.488 
L 368.767801 214.848 
L 368.871693 295.488 
L 370.475518 295.488 
L 370.514478 214.848 
L 370.585903 295.488 
L 373.86498 295.488 
L 373.871473 214.848 
L 373.975364 295.488 
L 379.260846 295.488 
L 379.267339 214.848 
L 379.371231 295.488 
L 380.273788 295.488 
L 380.280282 214.848 
L 380.384173 295.488 
L 381.897094 295.488 
L 381.903587 214.848 
L 382.007478 295.488 
L 383.948951 295.488 
L 383.955445 214.848 
L 384.059336 295.488 
L 387.026738 295.488 
L 387.033231 214.848 
L 387.137123 295.488 
L 388.448753 295.488 
L 388.455247 214.848 
L 388.559138 295.488 
L 392.825184 295.488 
L 392.831677 214.848 
L 392.935569 295.488 
L 395.766613 295.488 
L 395.773106 214.848 
L 395.876998 295.488 
L 397.49381 295.488 
L 397.500303 214.848 
L 397.604195 295.488 
L 397.935349 295.488 
L 397.941842 214.848 
L 398.045734 295.488 
L 398.487273 295.488 
L 398.487273 295.488 
" clip-path="url(#pcc22b76393)" style="fill: none; stroke: #ff7f0e; stroke-opacity: 0.7; stroke-width: 1.5; stroke-linecap: square"/>
   </g>
   <g id="patch_3">
    <path d="M 57.6 307.584 
L 57.6 41.472 
" style="fill: none; stroke: #000000; stroke-width: 0.8; stroke-linejoin: miter; stroke-linecap: square"/>
   </g>
   <g id="patch_4">
    <path d="M 414.72 307.584 
L 414.72 41.472 
" style="fill: none; stroke: #000000; stroke-width: 0.8; stroke-linejoin: miter; stroke-linecap: square"/>
   </g>
   <g id="patch_5">
    <path d="M 57.6 307.584 
L 414.72 307.584 
" style="fill: none; stroke: #000000; stroke-width: 0.8; stroke-linejoin: miter; stroke-linecap: square"/>
   </g>
   <g id="patch_6">
    <path d="M 57.6 41.472 
L 414.72 41.472 
" style="fill: none; stroke: #000000; stroke-width: 0.8; stroke-linejoin: miter; stroke-linecap: square"/>
   </g>
   <g id="legend_1">
    <g id="patch_7">
     <path d="M 359.12 78.82825 
L 407.72 78.82825 
Q 409.72 78.82825 409.72 76.82825 
L 409.72 48.472 
Q 409.72 46.472 407.72 46.472 
L 359.12 46.472 
Q 357.12 46.472 357.12 48.472 
L 357.12 76.82825 
Q 357.12 78.82825 359.12 78.82825 
z
" style="fill: #ffffff; opacity: 0.8; stroke: #cccccc; stroke-linejoin: miter"/>
    </g>
    <g id="line2d_16">
     <path d="M 361.12 54.570437 
L 371.12 54.570437 
L 381.12 54.570437 
" style="fill: none; stroke: #1f77b4; stroke-width: 1.5; stroke-linecap: square"/>
    </g>
    <g id="text_16">
     <!-- $v^{(2)}$ -->
     <g transform="translate(389.12 58.070437) scale(0.1 -0.1)">
      <defs>
       <path id="DejaVuSans-28" d="M 1984 4856 
Q 1566 4138 1362 3434 
Q 1159 2731 1159 2009 
Q 1159 1288 1364 580 
Q 1569 -128 1984 -844 
L 1484 -844 
Q 1016 -109 783 600 
Q 550 1309 550 2009 
Q 550 2706 781 3412 
Q 1013 4119 1484 4856 
L 1984 4856 
z
" transform="scale(0.015625)"/>
       <path id="DejaVuSans-29" d="M 513 4856 
L 1013 4856 
Q 1481 4119 1714 3412 
Q 1947 2706 1947 2009 
Q 1947 1309 1714 600 
Q 1481 -109 1013 -844 
L 513 -844 
Q 928 -128 1133 580 
Q 1338 1288 1338 2009 
Q 1338 2731 1133 3434 
Q 928 4138 513 4856 
z
" transform="scale(0.015625)"/>
      </defs>
      <use xlink:href="#DejaVuSans-Oblique-76" transform="translate(0 0.60625)"/>
      <use xlink:href="#DejaVuSans-28" transform="translate(63.645833 38.8875) scale(0.7)"/>
      <use xlink:href="#DejaVuSans-32" transform="translate(90.955404 38.8875) scale(0.7)"/>
      <use xlink:href="#DejaVuSans-29" transform="translate(135.491536 38.8875) scale(0.7)"/>
     </g>
    </g>
    <g id="line2d_17">
     <path d="M 361.12 69.248562 
L 371.12 69.248562 
L 381.12 69.248562 
" style="fill: none; stroke: #ff7f0e; stroke-opacity: 0.7; stroke-width: 1.5; stroke-linecap: square"/>
    </g>
    <g id="text_17">
     <!-- $v^{(3)}$ -->
     <g transform="translate(389.12 72.748562) scale(0.1 -0.1)">
      <use xlink:href="#DejaVuSans-Oblique-76" transform="translate(0 0.60625)"/>
      <use xlink:href="#DejaVuSans-28" transform="translate(63.645833 38.8875) scale(0.7)"/>
      <use xlink:href="#DejaVuSans-33" transform="translate(90.955404 38.8875) scale(0.7)"/>
      <use xlink:href="#DejaVuSans-29" transform="translate(135.491536 38.8875) scale(0.7)"/>
     </g>
    </g>
   </g>
  </g>
 </g>
 <defs>
  <clipPath id="pcc22b76393">
   <rect x="57.6" y="41.472" width="357.12" height="266.112"/>
  </clipPath>
 </defs>
</svg>
